SplineFontDB: 3.0
FontName: ChronolabsCooperativeRegularEightDotBraille
FullName: Regular Eight Dot Braille
FamilyName: Braille
Weight: Regular
Copyright: (c) Chronolabs Cooperative, 2007 - 2018
Version: 1.75
DefaultBaseFilename: Regular Eight Dot Braille
ItalicAngle: 0
UnderlinePosition: -133
UnderlineWidth: 20
Ascent: 800
Descent: 200
InvalidEm: 0
LayerCount: 2
Layer: 0 0 "Back" 1
Layer: 1 0 "Fore" 0
UniqueID: 6129368
FSType: 0
OS2Version: 0
OS2_WeightWidthSlopeOnly: 0
OS2_UseTypoMetrics: 0
CreationTime: 969780978
ModificationTime: 1533958421
PfmFamily: 17
TTFWeight: 400
TTFWidth: 5
LineGap: 90
VLineGap: 0
OS2TypoAscent: 0
OS2TypoAOffset: 1
OS2TypoDescent: 0
OS2TypoDOffset: 1
OS2TypoLinegap: 90
OS2WinAscent: 0
OS2WinAOffset: 1
OS2WinDescent: 0
OS2WinDOffset: 1
HheadAscent: 0
HheadAOffset: 1
HheadDescent: 0
HheadDOffset: 1
OS2Vendor: 'CC  '
MarkAttachClasses: 1
DEI: 91125
LangName: 1033 "" "" "" "Chronolabs Cooperative Regular Eight Dot Braille" "" "" "" "" "Chronolabs Cooperative" "Dr. Simon Antony Roberts" "Regular weight, Eight Dot Braille System" "https://github.com/DrARoberts/Braille" "https://internetfounder.wordpress.com" "APL Academic Public License, version 2.0+AAoA-Packaging+AAoA-The files found with the license applies to those file within the folder and recursive of the tree with the file containing this license called: ACADEMIC+AAoA-License+AAoA-These file and media and softwares are formally licensed to the academic facility of choice and any further licensing is defined by that educational facility for the lifetime of the package/download/media!+AAoA-The package is provided without warranty and support is limited please contact the author for any correspondence with work material to do with the package and educational sessions with it for furthering the online material with exercises, tests, tutorials!" "" "" "Braille"
Encoding: AdobeStandard
UnicodeInterp: none
NameList: AGL For New Fonts
DisplaySize: -48
AntiAlias: 1
FitToEm: 0
WinInfo: 0 38 14

StartChar: uni28D2
Encoding: 256 10450 0
Width: 444
Flags: W
HStem: 3 146<288 310.5> 4 146<93 115.5> 345 146<336 358.5> 346 146<140 162.5>
LayerCount: 2
Fore
SplineSet
421 418 m 0x60
 426 459 397 491 356 491 c 0
 316 491 280 459 275 418 c 0
 270 377 298 345 338 345 c 0
 379 345 416 377 421 418 c 0x60
225 419 m 0
 230 460 201 492 160 492 c 0
 120 492 84 460 79 419 c 0
 74 378 102 346 142 346 c 0x90
 183 346 220 378 225 419 c 0
373 76 m 0
 378 117 349 149 308 149 c 0
 268 149 232 117 227 76 c 0
 222 35 250 3 290 3 c 0
 331 3 368 35 373 76 c 0
178 77 m 0
 183 118 154 150 113 150 c 0
 73 150 36 118 31 77 c 0
 26 36 55 4 95 4 c 0xa0
 136 4 173 36 178 77 c 0
EndSplineSet
EndChar

StartChar: uni28D3
Encoding: 257 10451 1
Width: 444
Flags: W
HStem: 3 146<288 310.5> 4 146<93 115.5> 345 146<336 358.5> 346 146<140 162.5> 517 146<161 183.5>
LayerCount: 2
Fore
SplineSet
246 590 m 0x68
 251 631 222 663 181 663 c 0
 141 663 105 631 100 590 c 0
 95 549 123 517 163 517 c 0
 204 517 241 549 246 590 c 0x68
225 419 m 0
 230 460 201 492 160 492 c 0
 120 492 84 460 79 419 c 0
 74 378 102 346 142 346 c 0
 183 346 220 378 225 419 c 0
373 76 m 0
 378 117 349 149 308 149 c 0
 268 149 232 117 227 76 c 0
 222 35 250 3 290 3 c 0x98
 331 3 368 35 373 76 c 0
421 418 m 0
 426 459 397 491 356 491 c 0
 316 491 280 459 275 418 c 0
 270 377 298 345 338 345 c 0
 379 345 416 377 421 418 c 0
178 77 m 0
 183 118 154 150 113 150 c 0
 73 150 36 118 31 77 c 0
 26 36 55 4 95 4 c 0
 136 4 173 36 178 77 c 0
EndSplineSet
EndChar

StartChar: uni28D4
Encoding: 258 10452 2
Width: 444
Flags: W
HStem: 3 146<288 310.5> 4 146<93 115.5> 174 146<120 142.5> 345 146<336 358.5>
LayerCount: 2
Fore
SplineSet
205 247 m 0x70
 210 288 181 320 140 320 c 0
 100 320 64 288 59 247 c 0
 54 206 82 174 122 174 c 0
 163 174 200 206 205 247 c 0x70
373 76 m 0
 378 117 349 149 308 149 c 0
 268 149 232 117 227 76 c 0
 222 35 250 3 290 3 c 0
 331 3 368 35 373 76 c 0
421 418 m 0
 426 459 397 491 356 491 c 0
 316 491 280 459 275 418 c 0
 270 377 298 345 338 345 c 0xb0
 379 345 416 377 421 418 c 0
178 77 m 0
 183 118 154 150 113 150 c 0
 73 150 36 118 31 77 c 0
 26 36 55 4 95 4 c 0
 136 4 173 36 178 77 c 0
EndSplineSet
EndChar

StartChar: uni28D5
Encoding: 259 10453 3
Width: 444
Flags: W
HStem: 3 146<288 310.5> 4 146<93 115.5> 174 146<120 142.5> 345 146<336 358.5> 517 146<161 183.5>
LayerCount: 2
Fore
SplineSet
246 590 m 0x78
 251 631 222 663 181 663 c 0
 141 663 105 631 100 590 c 0
 95 549 123 517 163 517 c 0
 204 517 241 549 246 590 c 0x78
421 418 m 0
 426 459 397 491 356 491 c 0
 316 491 280 459 275 418 c 0
 270 377 298 345 338 345 c 0
 379 345 416 377 421 418 c 0
373 76 m 0
 378 117 349 149 308 149 c 0
 268 149 232 117 227 76 c 0
 222 35 250 3 290 3 c 0xb8
 331 3 368 35 373 76 c 0
205 247 m 0
 210 288 181 320 140 320 c 0
 100 320 64 288 59 247 c 0
 54 206 82 174 122 174 c 0
 163 174 200 206 205 247 c 0
178 77 m 0
 183 118 154 150 113 150 c 0
 73 150 36 118 31 77 c 0
 26 36 55 4 95 4 c 0
 136 4 173 36 178 77 c 0
EndSplineSet
EndChar

StartChar: uni28D6
Encoding: 260 10454 4
Width: 444
Flags: W
HStem: 3 146<288 310.5> 4 146<93 115.5> 174 146<120 142.5> 345 146<336 358.5> 346 146<140 162.5>
LayerCount: 2
Fore
SplineSet
205 247 m 0x70
 210 288 181 320 140 320 c 0
 100 320 64 288 59 247 c 0
 54 206 82 174 122 174 c 0
 163 174 200 206 205 247 c 0x70
225 419 m 0
 230 460 201 492 160 492 c 0
 120 492 84 460 79 419 c 0
 74 378 102 346 142 346 c 0
 183 346 220 378 225 419 c 0
373 76 m 0
 378 117 349 149 308 149 c 0
 268 149 232 117 227 76 c 0
 222 35 250 3 290 3 c 0xa8
 331 3 368 35 373 76 c 0
421 418 m 0
 426 459 397 491 356 491 c 0
 316 491 280 459 275 418 c 0
 270 377 298 345 338 345 c 0
 379 345 416 377 421 418 c 0
178 77 m 0
 183 118 154 150 113 150 c 0
 73 150 36 118 31 77 c 0
 26 36 55 4 95 4 c 0
 136 4 173 36 178 77 c 0
EndSplineSet
EndChar

StartChar: uni28D7
Encoding: 261 10455 5
Width: 444
Flags: W
HStem: 3 146<288 310.5> 4 146<93 115.5> 174 146<120 142.5> 345 146<336 358.5> 346 146<140 162.5> 517 146<161 183.5>
LayerCount: 2
Fore
SplineSet
205 247 m 0x6c
 210 288 181 320 140 320 c 0
 100 320 64 288 59 247 c 0
 54 206 82 174 122 174 c 0
 163 174 200 206 205 247 c 0x6c
246 590 m 0
 251 631 222 663 181 663 c 0
 141 663 105 631 100 590 c 0
 95 549 123 517 163 517 c 0
 204 517 241 549 246 590 c 0
421 418 m 0
 426 459 397 491 356 491 c 0
 316 491 280 459 275 418 c 0
 270 377 298 345 338 345 c 0xb4
 379 345 416 377 421 418 c 0
373 76 m 0
 378 117 349 149 308 149 c 0
 268 149 232 117 227 76 c 0
 222 35 250 3 290 3 c 0
 331 3 368 35 373 76 c 0
225 419 m 0
 230 460 201 492 160 492 c 0
 120 492 84 460 79 419 c 0
 74 378 102 346 142 346 c 0
 183 346 220 378 225 419 c 0
178 77 m 0
 183 118 154 150 113 150 c 0
 73 150 36 118 31 77 c 0
 26 36 55 4 95 4 c 0
 136 4 173 36 178 77 c 0
EndSplineSet
EndChar

StartChar: uni28D8
Encoding: 262 10456 6
Width: 444
Flags: W
HStem: 3 146<288 310.5> 4 146<93 115.5> 345 146<336 358.5> 516 146<357 379.5>
LayerCount: 2
Fore
SplineSet
442 589 m 0x70
 447 630 418 662 377 662 c 0
 337 662 301 630 296 589 c 0
 291 548 319 516 359 516 c 0
 400 516 437 548 442 589 c 0x70
373 76 m 0
 378 117 349 149 308 149 c 0
 268 149 232 117 227 76 c 0
 222 35 250 3 290 3 c 0
 331 3 368 35 373 76 c 0
421 418 m 0
 426 459 397 491 356 491 c 0
 316 491 280 459 275 418 c 0
 270 377 298 345 338 345 c 0xb0
 379 345 416 377 421 418 c 0
178 77 m 0
 183 118 154 150 113 150 c 0
 73 150 36 118 31 77 c 0
 26 36 55 4 95 4 c 0
 136 4 173 36 178 77 c 0
EndSplineSet
EndChar

StartChar: uni28D9
Encoding: 263 10457 7
Width: 444
Flags: W
HStem: 3 146<288 310.5> 4 146<93 115.5> 345 146<336 358.5> 516 146<357 379.5> 517 146<161 183.5>
LayerCount: 2
Fore
SplineSet
246 590 m 0x70
 251 631 222 663 181 663 c 0
 141 663 105 631 100 590 c 0
 95 549 123 517 163 517 c 0
 204 517 241 549 246 590 c 0x70
421 418 m 0
 426 459 397 491 356 491 c 0
 316 491 280 459 275 418 c 0
 270 377 298 345 338 345 c 0
 379 345 416 377 421 418 c 0
373 76 m 0
 378 117 349 149 308 149 c 0
 268 149 232 117 227 76 c 0
 222 35 250 3 290 3 c 0xa8
 331 3 368 35 373 76 c 0
442 589 m 0
 447 630 418 662 377 662 c 0
 337 662 301 630 296 589 c 0
 291 548 319 516 359 516 c 0
 400 516 437 548 442 589 c 0
178 77 m 0
 183 118 154 150 113 150 c 0
 73 150 36 118 31 77 c 0
 26 36 55 4 95 4 c 0
 136 4 173 36 178 77 c 0
EndSplineSet
EndChar

StartChar: uni28DA
Encoding: 264 10458 8
Width: 444
Flags: W
HStem: 3 146<288 310.5> 4 146<93 115.5> 345 146<336 358.5> 346 146<140 162.5> 516 146<357 379.5>
LayerCount: 2
Fore
SplineSet
442 589 m 0x68
 447 630 418 662 377 662 c 0
 337 662 301 630 296 589 c 0
 291 548 319 516 359 516 c 0
 400 516 437 548 442 589 c 0x68
225 419 m 0
 230 460 201 492 160 492 c 0
 120 492 84 460 79 419 c 0
 74 378 102 346 142 346 c 0
 183 346 220 378 225 419 c 0
373 76 m 0
 378 117 349 149 308 149 c 0
 268 149 232 117 227 76 c 0
 222 35 250 3 290 3 c 0x98
 331 3 368 35 373 76 c 0
421 418 m 0
 426 459 397 491 356 491 c 0
 316 491 280 459 275 418 c 0
 270 377 298 345 338 345 c 0
 379 345 416 377 421 418 c 0
178 77 m 0
 183 118 154 150 113 150 c 0
 73 150 36 118 31 77 c 0
 26 36 55 4 95 4 c 0
 136 4 173 36 178 77 c 0
EndSplineSet
EndChar

StartChar: uni28DB
Encoding: 265 10459 9
Width: 444
Flags: W
HStem: 3 146<288 310.5> 4 146<93 115.5> 345 146<336 358.5> 346 146<140 162.5> 516 146<357 379.5> 517 146<161 183.5>
LayerCount: 2
Fore
SplineSet
442 589 m 0x58
 447 630 418 662 377 662 c 0
 337 662 301 630 296 589 c 0
 291 548 319 516 359 516 c 0
 400 516 437 548 442 589 c 0x58
246 590 m 0
 251 631 222 663 181 663 c 0
 141 663 105 631 100 590 c 0
 95 549 123 517 163 517 c 0
 204 517 241 549 246 590 c 0
421 418 m 0
 426 459 397 491 356 491 c 0
 316 491 280 459 275 418 c 0
 270 377 298 345 338 345 c 0xa4
 379 345 416 377 421 418 c 0
373 76 m 0
 378 117 349 149 308 149 c 0
 268 149 232 117 227 76 c 0
 222 35 250 3 290 3 c 0
 331 3 368 35 373 76 c 0
225 419 m 0
 230 460 201 492 160 492 c 0
 120 492 84 460 79 419 c 0
 74 378 102 346 142 346 c 0
 183 346 220 378 225 419 c 0
178 77 m 0
 183 118 154 150 113 150 c 0
 73 150 36 118 31 77 c 0
 26 36 55 4 95 4 c 0xa8
 136 4 173 36 178 77 c 0
EndSplineSet
EndChar

StartChar: uni28DC
Encoding: 266 10460 10
Width: 444
Flags: W
HStem: 3 146<288 310.5> 4 146<93 115.5> 174 146<120 142.5> 345 146<336 358.5> 516 146<357 379.5>
LayerCount: 2
Fore
SplineSet
205 247 m 0x78
 210 288 181 320 140 320 c 0
 100 320 64 288 59 247 c 0
 54 206 82 174 122 174 c 0
 163 174 200 206 205 247 c 0x78
421 418 m 0
 426 459 397 491 356 491 c 0
 316 491 280 459 275 418 c 0
 270 377 298 345 338 345 c 0
 379 345 416 377 421 418 c 0
373 76 m 0
 378 117 349 149 308 149 c 0
 268 149 232 117 227 76 c 0
 222 35 250 3 290 3 c 0xb0
 331 3 368 35 373 76 c 0
442 589 m 0
 447 630 418 662 377 662 c 0
 337 662 301 630 296 589 c 0
 291 548 319 516 359 516 c 0
 400 516 437 548 442 589 c 0
178 77 m 0
 183 118 154 150 113 150 c 0
 73 150 36 118 31 77 c 0
 26 36 55 4 95 4 c 0
 136 4 173 36 178 77 c 0
EndSplineSet
EndChar

StartChar: uni28DD
Encoding: 267 10461 11
Width: 444
Flags: W
HStem: 3 146<288 310.5> 4 146<93 115.5> 174 146<120 142.5> 345 146<336 358.5> 516 146<357 379.5> 517 146<161 183.5>
LayerCount: 2
Fore
SplineSet
205 247 m 0x78
 210 288 181 320 140 320 c 0
 100 320 64 288 59 247 c 0
 54 206 82 174 122 174 c 0
 163 174 200 206 205 247 c 0x78
246 590 m 0
 251 631 222 663 181 663 c 0
 141 663 105 631 100 590 c 0
 95 549 123 517 163 517 c 0
 204 517 241 549 246 590 c 0
421 418 m 0
 426 459 397 491 356 491 c 0
 316 491 280 459 275 418 c 0
 270 377 298 345 338 345 c 0xb4
 379 345 416 377 421 418 c 0
373 76 m 0
 378 117 349 149 308 149 c 0
 268 149 232 117 227 76 c 0
 222 35 250 3 290 3 c 0
 331 3 368 35 373 76 c 0
442 589 m 0
 447 630 418 662 377 662 c 0
 337 662 301 630 296 589 c 0
 291 548 319 516 359 516 c 0
 400 516 437 548 442 589 c 0
178 77 m 0
 183 118 154 150 113 150 c 0
 73 150 36 118 31 77 c 0
 26 36 55 4 95 4 c 0
 136 4 173 36 178 77 c 0
EndSplineSet
EndChar

StartChar: uni28DE
Encoding: 268 10462 12
Width: 444
Flags: W
HStem: 3 146<288 310.5> 4 146<93 115.5> 174 146<120 142.5> 345 146<336 358.5> 346 146<140 162.5> 516 146<357 379.5>
LayerCount: 2
Fore
SplineSet
442 589 m 0x6c
 447 630 418 662 377 662 c 0
 337 662 301 630 296 589 c 0
 291 548 319 516 359 516 c 0
 400 516 437 548 442 589 c 0x6c
205 247 m 0
 210 288 181 320 140 320 c 0
 100 320 64 288 59 247 c 0
 54 206 82 174 122 174 c 0
 163 174 200 206 205 247 c 0
421 418 m 0
 426 459 397 491 356 491 c 0
 316 491 280 459 275 418 c 0
 270 377 298 345 338 345 c 0xb0
 379 345 416 377 421 418 c 0
373 76 m 0
 378 117 349 149 308 149 c 0
 268 149 232 117 227 76 c 0
 222 35 250 3 290 3 c 0
 331 3 368 35 373 76 c 0
225 419 m 0
 230 460 201 492 160 492 c 0
 120 492 84 460 79 419 c 0
 74 378 102 346 142 346 c 0
 183 346 220 378 225 419 c 0
178 77 m 0
 183 118 154 150 113 150 c 0
 73 150 36 118 31 77 c 0
 26 36 55 4 95 4 c 0
 136 4 173 36 178 77 c 0
EndSplineSet
EndChar

StartChar: uni28DF
Encoding: 269 10463 13
Width: 444
Flags: W
HStem: 3 146<288 310.5> 4 146<93 115.5> 174 146<120 142.5> 345 146<336 358.5> 346 146<140 162.5> 516 146<357 379.5> 517 146<161 183.5>
LayerCount: 2
Fore
SplineSet
205 247 m 0x6c
 210 288 181 320 140 320 c 0
 100 320 64 288 59 247 c 0
 54 206 82 174 122 174 c 0
 163 174 200 206 205 247 c 0x6c
246 590 m 0
 251 631 222 663 181 663 c 0
 141 663 105 631 100 590 c 0
 95 549 123 517 163 517 c 0
 204 517 241 549 246 590 c 0
421 418 m 0
 426 459 397 491 356 491 c 0
 316 491 280 459 275 418 c 0
 270 377 298 345 338 345 c 0xb4
 379 345 416 377 421 418 c 0
442 589 m 0
 447 630 418 662 377 662 c 0
 337 662 301 630 296 589 c 0
 291 548 319 516 359 516 c 0
 400 516 437 548 442 589 c 0
373 76 m 0
 378 117 349 149 308 149 c 0
 268 149 232 117 227 76 c 0
 222 35 250 3 290 3 c 0
 331 3 368 35 373 76 c 0
225 419 m 0
 230 460 201 492 160 492 c 0
 120 492 84 460 79 419 c 0
 74 378 102 346 142 346 c 0xb2
 183 346 220 378 225 419 c 0
178 77 m 0
 183 118 154 150 113 150 c 0
 73 150 36 118 31 77 c 0
 26 36 55 4 95 4 c 0
 136 4 173 36 178 77 c 0
EndSplineSet
EndChar

StartChar: uni28E0
Encoding: 270 10464 14
Width: 444
Flags: W
HStem: 3 146<288 310.5> 4 146<93 115.5> 173 146<316 338.5>
LayerCount: 2
Fore
SplineSet
401 246 m 0x60
 406 287 377 319 336 319 c 0
 296 319 260 287 255 246 c 0
 250 205 278 173 318 173 c 0
 359 173 396 205 401 246 c 0x60
373 76 m 0
 378 117 349 149 308 149 c 0
 268 149 232 117 227 76 c 0
 222 35 250 3 290 3 c 0xa0
 331 3 368 35 373 76 c 0
178 77 m 0
 183 118 154 150 113 150 c 0
 73 150 36 118 31 77 c 0
 26 36 55 4 95 4 c 0
 136 4 173 36 178 77 c 0
EndSplineSet
EndChar

StartChar: uni28E1
Encoding: 271 10465 15
Width: 444
Flags: W
HStem: 3 146<288 310.5> 4 146<93 115.5> 173 146<316 338.5> 517 146<161 183.5>
LayerCount: 2
Fore
SplineSet
246 590 m 0x70
 251 631 222 663 181 663 c 0
 141 663 105 631 100 590 c 0
 95 549 123 517 163 517 c 0
 204 517 241 549 246 590 c 0x70
401 246 m 0
 406 287 377 319 336 319 c 0
 296 319 260 287 255 246 c 0
 250 205 278 173 318 173 c 0xb0
 359 173 396 205 401 246 c 0
373 76 m 0
 378 117 349 149 308 149 c 0
 268 149 232 117 227 76 c 0
 222 35 250 3 290 3 c 0
 331 3 368 35 373 76 c 0
178 77 m 0
 183 118 154 150 113 150 c 0
 73 150 36 118 31 77 c 0
 26 36 55 4 95 4 c 0
 136 4 173 36 178 77 c 0
EndSplineSet
EndChar

StartChar: uni28E2
Encoding: 272 10466 16
Width: 444
Flags: W
HStem: 3 146<288 310.5> 4 146<93 115.5> 173 146<316 338.5> 346 146<140 162.5>
LayerCount: 2
Fore
SplineSet
373 76 m 0x70
 378 117 349 149 308 149 c 0
 268 149 232 117 227 76 c 0
 222 35 250 3 290 3 c 0
 331 3 368 35 373 76 c 0x70
225 419 m 0
 230 460 201 492 160 492 c 0
 120 492 84 460 79 419 c 0
 74 378 102 346 142 346 c 0
 183 346 220 378 225 419 c 0
401 246 m 0
 406 287 377 319 336 319 c 0
 296 319 260 287 255 246 c 0
 250 205 278 173 318 173 c 0
 359 173 396 205 401 246 c 0
178 77 m 0
 183 118 154 150 113 150 c 0
 73 150 36 118 31 77 c 0
 26 36 55 4 95 4 c 0xb0
 136 4 173 36 178 77 c 0
EndSplineSet
EndChar

StartChar: uni28E3
Encoding: 273 10467 17
Width: 444
Flags: W
HStem: 3 146<288 310.5> 4 146<93 115.5> 173 146<316 338.5> 346 146<140 162.5> 517 146<161 183.5>
LayerCount: 2
Fore
SplineSet
246 590 m 0x78
 251 631 222 663 181 663 c 0
 141 663 105 631 100 590 c 0
 95 549 123 517 163 517 c 0
 204 517 241 549 246 590 c 0x78
225 419 m 0
 230 460 201 492 160 492 c 0
 120 492 84 460 79 419 c 0
 74 378 102 346 142 346 c 0
 183 346 220 378 225 419 c 0
373 76 m 0
 378 117 349 149 308 149 c 0
 268 149 232 117 227 76 c 0
 222 35 250 3 290 3 c 0xb8
 331 3 368 35 373 76 c 0
401 246 m 0
 406 287 377 319 336 319 c 0
 296 319 260 287 255 246 c 0
 250 205 278 173 318 173 c 0
 359 173 396 205 401 246 c 0
178 77 m 0
 183 118 154 150 113 150 c 0
 73 150 36 118 31 77 c 0
 26 36 55 4 95 4 c 0
 136 4 173 36 178 77 c 0
EndSplineSet
EndChar

StartChar: uni28E4
Encoding: 274 10468 18
Width: 444
Flags: W
HStem: 3 146<288 310.5> 4 146<93 115.5> 173 146<316 338.5> 174 146<120 142.5>
LayerCount: 2
Fore
SplineSet
205 247 m 0x60
 210 288 181 320 140 320 c 0
 100 320 64 288 59 247 c 0
 54 206 82 174 122 174 c 0
 163 174 200 206 205 247 c 0x60
401 246 m 0
 406 287 377 319 336 319 c 0
 296 319 260 287 255 246 c 0
 250 205 278 173 318 173 c 0xa0
 359 173 396 205 401 246 c 0
373 76 m 0
 378 117 349 149 308 149 c 0
 268 149 232 117 227 76 c 0
 222 35 250 3 290 3 c 0
 331 3 368 35 373 76 c 0
178 77 m 0
 183 118 154 150 113 150 c 0
 73 150 36 118 31 77 c 0
 26 36 55 4 95 4 c 0x90
 136 4 173 36 178 77 c 0
EndSplineSet
EndChar

StartChar: uni28E5
Encoding: 275 10469 19
Width: 444
Flags: W
HStem: 3 146<288 310.5> 4 146<93 115.5> 173 146<316 338.5> 174 146<120 142.5> 517 146<161 183.5>
LayerCount: 2
Fore
SplineSet
246 590 m 0x58
 251 631 222 663 181 663 c 0
 141 663 105 631 100 590 c 0
 95 549 123 517 163 517 c 0
 204 517 241 549 246 590 c 0x58
401 246 m 0
 406 287 377 319 336 319 c 0
 296 319 260 287 255 246 c 0
 250 205 278 173 318 173 c 0
 359 173 396 205 401 246 c 0
373 76 m 0
 378 117 349 149 308 149 c 0
 268 149 232 117 227 76 c 0
 222 35 250 3 290 3 c 0xa8
 331 3 368 35 373 76 c 0
205 247 m 0
 210 288 181 320 140 320 c 0
 100 320 64 288 59 247 c 0
 54 206 82 174 122 174 c 0
 163 174 200 206 205 247 c 0
178 77 m 0
 183 118 154 150 113 150 c 0
 73 150 36 118 31 77 c 0
 26 36 55 4 95 4 c 0
 136 4 173 36 178 77 c 0
EndSplineSet
EndChar

StartChar: uni28E6
Encoding: 276 10470 20
Width: 444
Flags: W
HStem: 3 146<288 310.5> 4 146<93 115.5> 173 146<316 338.5> 174 146<120 142.5> 346 146<140 162.5>
LayerCount: 2
Fore
SplineSet
205 247 m 0x68
 210 288 181 320 140 320 c 0
 100 320 64 288 59 247 c 0
 54 206 82 174 122 174 c 0
 163 174 200 206 205 247 c 0x68
225 419 m 0
 230 460 201 492 160 492 c 0
 120 492 84 460 79 419 c 0
 74 378 102 346 142 346 c 0
 183 346 220 378 225 419 c 0
373 76 m 0
 378 117 349 149 308 149 c 0
 268 149 232 117 227 76 c 0
 222 35 250 3 290 3 c 0x98
 331 3 368 35 373 76 c 0
401 246 m 0
 406 287 377 319 336 319 c 0
 296 319 260 287 255 246 c 0
 250 205 278 173 318 173 c 0
 359 173 396 205 401 246 c 0
178 77 m 0
 183 118 154 150 113 150 c 0
 73 150 36 118 31 77 c 0
 26 36 55 4 95 4 c 0
 136 4 173 36 178 77 c 0
EndSplineSet
EndChar

StartChar: uni28E7
Encoding: 277 10471 21
Width: 444
Flags: W
HStem: 3 146<288 310.5> 4 146<93 115.5> 173 146<316 338.5> 174 146<120 142.5> 346 146<140 162.5> 517 146<161 183.5>
LayerCount: 2
Fore
SplineSet
205 247 m 0x6c
 210 288 181 320 140 320 c 0
 100 320 64 288 59 247 c 0
 54 206 82 174 122 174 c 0
 163 174 200 206 205 247 c 0x6c
246 590 m 0
 251 631 222 663 181 663 c 0
 141 663 105 631 100 590 c 0
 95 549 123 517 163 517 c 0
 204 517 241 549 246 590 c 0
225 419 m 0
 230 460 201 492 160 492 c 0
 120 492 84 460 79 419 c 0
 74 378 102 346 142 346 c 0x9c
 183 346 220 378 225 419 c 0
373 76 m 0
 378 117 349 149 308 149 c 0
 268 149 232 117 227 76 c 0
 222 35 250 3 290 3 c 0
 331 3 368 35 373 76 c 0
401 246 m 0
 406 287 377 319 336 319 c 0
 296 319 260 287 255 246 c 0
 250 205 278 173 318 173 c 0
 359 173 396 205 401 246 c 0
178 77 m 0
 183 118 154 150 113 150 c 0
 73 150 36 118 31 77 c 0
 26 36 55 4 95 4 c 0
 136 4 173 36 178 77 c 0
EndSplineSet
EndChar

StartChar: uni28E8
Encoding: 278 10472 22
Width: 444
Flags: W
HStem: 3 146<288 310.5> 4 146<93 115.5> 173 146<316 338.5> 516 146<357 379.5>
LayerCount: 2
Fore
SplineSet
442 589 m 0x70
 447 630 418 662 377 662 c 0
 337 662 301 630 296 589 c 0
 291 548 319 516 359 516 c 0
 400 516 437 548 442 589 c 0x70
401 246 m 0
 406 287 377 319 336 319 c 0
 296 319 260 287 255 246 c 0
 250 205 278 173 318 173 c 0xb0
 359 173 396 205 401 246 c 0
373 76 m 0
 378 117 349 149 308 149 c 0
 268 149 232 117 227 76 c 0
 222 35 250 3 290 3 c 0
 331 3 368 35 373 76 c 0
178 77 m 0
 183 118 154 150 113 150 c 0
 73 150 36 118 31 77 c 0
 26 36 55 4 95 4 c 0
 136 4 173 36 178 77 c 0
EndSplineSet
EndChar

StartChar: uni28E9
Encoding: 279 10473 23
Width: 444
Flags: W
HStem: 3 146<288 310.5> 4 146<93 115.5> 173 146<316 338.5> 516 146<357 379.5> 517 146<161 183.5>
LayerCount: 2
Fore
SplineSet
246 590 m 0x70
 251 631 222 663 181 663 c 0
 141 663 105 631 100 590 c 0
 95 549 123 517 163 517 c 0
 204 517 241 549 246 590 c 0x70
401 246 m 0
 406 287 377 319 336 319 c 0
 296 319 260 287 255 246 c 0
 250 205 278 173 318 173 c 0
 359 173 396 205 401 246 c 0
373 76 m 0
 378 117 349 149 308 149 c 0
 268 149 232 117 227 76 c 0
 222 35 250 3 290 3 c 0xa8
 331 3 368 35 373 76 c 0
442 589 m 0
 447 630 418 662 377 662 c 0
 337 662 301 630 296 589 c 0
 291 548 319 516 359 516 c 0
 400 516 437 548 442 589 c 0
178 77 m 0
 183 118 154 150 113 150 c 0
 73 150 36 118 31 77 c 0
 26 36 55 4 95 4 c 0
 136 4 173 36 178 77 c 0
EndSplineSet
EndChar

StartChar: uni28EA
Encoding: 280 10474 24
Width: 444
Flags: W
HStem: 3 146<288 310.5> 4 146<93 115.5> 173 146<316 338.5> 346 146<140 162.5> 516 146<357 379.5>
LayerCount: 2
Fore
SplineSet
442 589 m 0x78
 447 630 418 662 377 662 c 0
 337 662 301 630 296 589 c 0
 291 548 319 516 359 516 c 0
 400 516 437 548 442 589 c 0x78
225 419 m 0
 230 460 201 492 160 492 c 0
 120 492 84 460 79 419 c 0
 74 378 102 346 142 346 c 0
 183 346 220 378 225 419 c 0
373 76 m 0
 378 117 349 149 308 149 c 0
 268 149 232 117 227 76 c 0
 222 35 250 3 290 3 c 0xb8
 331 3 368 35 373 76 c 0
401 246 m 0
 406 287 377 319 336 319 c 0
 296 319 260 287 255 246 c 0
 250 205 278 173 318 173 c 0
 359 173 396 205 401 246 c 0
178 77 m 0
 183 118 154 150 113 150 c 0
 73 150 36 118 31 77 c 0
 26 36 55 4 95 4 c 0
 136 4 173 36 178 77 c 0
EndSplineSet
EndChar

StartChar: uni28EB
Encoding: 281 10475 25
Width: 444
Flags: W
HStem: 3 146<288 310.5> 4 146<93 115.5> 173 146<316 338.5> 346 146<140 162.5> 516 146<357 379.5> 517 146<161 183.5>
LayerCount: 2
Fore
SplineSet
442 589 m 0x78
 447 630 418 662 377 662 c 0
 337 662 301 630 296 589 c 0
 291 548 319 516 359 516 c 0
 400 516 437 548 442 589 c 0x78
246 590 m 0
 251 631 222 663 181 663 c 0
 141 663 105 631 100 590 c 0
 95 549 123 517 163 517 c 0
 204 517 241 549 246 590 c 0
225 419 m 0
 230 460 201 492 160 492 c 0
 120 492 84 460 79 419 c 0
 74 378 102 346 142 346 c 0xb4
 183 346 220 378 225 419 c 0
373 76 m 0
 378 117 349 149 308 149 c 0
 268 149 232 117 227 76 c 0
 222 35 250 3 290 3 c 0
 331 3 368 35 373 76 c 0
401 246 m 0
 406 287 377 319 336 319 c 0
 296 319 260 287 255 246 c 0
 250 205 278 173 318 173 c 0
 359 173 396 205 401 246 c 0
178 77 m 0
 183 118 154 150 113 150 c 0
 73 150 36 118 31 77 c 0
 26 36 55 4 95 4 c 0xb8
 136 4 173 36 178 77 c 0
EndSplineSet
EndChar

StartChar: uni28EC
Encoding: 282 10476 26
Width: 444
Flags: W
HStem: 3 146<288 310.5> 4 146<93 115.5> 173 146<316 338.5> 174 146<120 142.5> 516 146<357 379.5>
LayerCount: 2
Fore
SplineSet
205 247 m 0x68
 210 288 181 320 140 320 c 0
 100 320 64 288 59 247 c 0
 54 206 82 174 122 174 c 0
 163 174 200 206 205 247 c 0x68
401 246 m 0
 406 287 377 319 336 319 c 0
 296 319 260 287 255 246 c 0
 250 205 278 173 318 173 c 0
 359 173 396 205 401 246 c 0
373 76 m 0
 378 117 349 149 308 149 c 0
 268 149 232 117 227 76 c 0
 222 35 250 3 290 3 c 0xa8
 331 3 368 35 373 76 c 0
442 589 m 0
 447 630 418 662 377 662 c 0
 337 662 301 630 296 589 c 0
 291 548 319 516 359 516 c 0
 400 516 437 548 442 589 c 0
178 77 m 0
 183 118 154 150 113 150 c 0
 73 150 36 118 31 77 c 0
 26 36 55 4 95 4 c 0x98
 136 4 173 36 178 77 c 0
EndSplineSet
EndChar

StartChar: uni28ED
Encoding: 283 10477 27
Width: 444
Flags: W
HStem: 3 146<288 310.5> 4 146<93 115.5> 173 146<316 338.5> 174 146<120 142.5> 516 146<357 379.5> 517 146<161 183.5>
LayerCount: 2
Fore
SplineSet
205 247 m 0x68
 210 288 181 320 140 320 c 0
 100 320 64 288 59 247 c 0
 54 206 82 174 122 174 c 0
 163 174 200 206 205 247 c 0x68
246 590 m 0
 251 631 222 663 181 663 c 0
 141 663 105 631 100 590 c 0
 95 549 123 517 163 517 c 0
 204 517 241 549 246 590 c 0
401 246 m 0
 406 287 377 319 336 319 c 0
 296 319 260 287 255 246 c 0
 250 205 278 173 318 173 c 0xa4
 359 173 396 205 401 246 c 0
373 76 m 0
 378 117 349 149 308 149 c 0
 268 149 232 117 227 76 c 0
 222 35 250 3 290 3 c 0
 331 3 368 35 373 76 c 0
442 589 m 0
 447 630 418 662 377 662 c 0
 337 662 301 630 296 589 c 0
 291 548 319 516 359 516 c 0
 400 516 437 548 442 589 c 0
178 77 m 0
 183 118 154 150 113 150 c 0
 73 150 36 118 31 77 c 0
 26 36 55 4 95 4 c 0x98
 136 4 173 36 178 77 c 0
EndSplineSet
EndChar

StartChar: uni28EE
Encoding: 284 10478 28
Width: 444
Flags: W
HStem: 3 146<288 310.5> 4 146<93 115.5> 173 146<316 338.5> 174 146<120 142.5> 346 146<140 162.5> 516 146<357 379.5>
LayerCount: 2
Fore
SplineSet
442 589 m 0x6c
 447 630 418 662 377 662 c 0
 337 662 301 630 296 589 c 0
 291 548 319 516 359 516 c 0
 400 516 437 548 442 589 c 0x6c
205 247 m 0
 210 288 181 320 140 320 c 0
 100 320 64 288 59 247 c 0
 54 206 82 174 122 174 c 0
 163 174 200 206 205 247 c 0
225 419 m 0
 230 460 201 492 160 492 c 0
 120 492 84 460 79 419 c 0
 74 378 102 346 142 346 c 0x9c
 183 346 220 378 225 419 c 0
373 76 m 0
 378 117 349 149 308 149 c 0
 268 149 232 117 227 76 c 0
 222 35 250 3 290 3 c 0
 331 3 368 35 373 76 c 0
401 246 m 0
 406 287 377 319 336 319 c 0
 296 319 260 287 255 246 c 0
 250 205 278 173 318 173 c 0
 359 173 396 205 401 246 c 0
178 77 m 0
 183 118 154 150 113 150 c 0
 73 150 36 118 31 77 c 0
 26 36 55 4 95 4 c 0
 136 4 173 36 178 77 c 0
EndSplineSet
EndChar

StartChar: uni28EF
Encoding: 285 10479 29
Width: 444
Flags: W
HStem: 3 146<288 310.5> 4 146<93 115.5> 173 146<316 338.5> 174 146<120 142.5> 346 146<140 162.5> 516 146<357 379.5> 517 146<161 183.5>
LayerCount: 2
Fore
SplineSet
205 247 m 0x6c
 210 288 181 320 140 320 c 0
 100 320 64 288 59 247 c 0
 54 206 82 174 122 174 c 0
 163 174 200 206 205 247 c 0x6c
246 590 m 0
 251 631 222 663 181 663 c 0
 141 663 105 631 100 590 c 0
 95 549 123 517 163 517 c 0
 204 517 241 549 246 590 c 0
225 419 m 0
 230 460 201 492 160 492 c 0
 120 492 84 460 79 419 c 0
 74 378 102 346 142 346 c 0xac
 183 346 220 378 225 419 c 0
442 589 m 0
 447 630 418 662 377 662 c 0
 337 662 301 630 296 589 c 0
 291 548 319 516 359 516 c 0
 400 516 437 548 442 589 c 0
373 76 m 0
 378 117 349 149 308 149 c 0
 268 149 232 117 227 76 c 0
 222 35 250 3 290 3 c 0
 331 3 368 35 373 76 c 0
401 246 m 0
 406 287 377 319 336 319 c 0
 296 319 260 287 255 246 c 0
 250 205 278 173 318 173 c 0x9a
 359 173 396 205 401 246 c 0
178 77 m 0
 183 118 154 150 113 150 c 0
 73 150 36 118 31 77 c 0
 26 36 55 4 95 4 c 0
 136 4 173 36 178 77 c 0
EndSplineSet
EndChar

StartChar: uni28F0
Encoding: 286 10480 30
Width: 444
Flags: W
HStem: 3 146<288 310.5> 4 146<93 115.5> 173 146<316 338.5> 345 146<336 358.5>
LayerCount: 2
Fore
SplineSet
421 418 m 0x70
 426 459 397 491 356 491 c 0
 316 491 280 459 275 418 c 0
 270 377 298 345 338 345 c 0
 379 345 416 377 421 418 c 0x70
401 246 m 0
 406 287 377 319 336 319 c 0
 296 319 260 287 255 246 c 0
 250 205 278 173 318 173 c 0xb0
 359 173 396 205 401 246 c 0
373 76 m 0
 378 117 349 149 308 149 c 0
 268 149 232 117 227 76 c 0
 222 35 250 3 290 3 c 0
 331 3 368 35 373 76 c 0
178 77 m 0
 183 118 154 150 113 150 c 0
 73 150 36 118 31 77 c 0
 26 36 55 4 95 4 c 0
 136 4 173 36 178 77 c 0
EndSplineSet
EndChar

StartChar: uni28F1
Encoding: 287 10481 31
Width: 444
Flags: W
HStem: 3 146<288 310.5> 4 146<93 115.5> 173 146<316 338.5> 345 146<336 358.5> 517 146<161 183.5>
LayerCount: 2
Fore
SplineSet
246 590 m 0x78
 251 631 222 663 181 663 c 0
 141 663 105 631 100 590 c 0
 95 549 123 517 163 517 c 0
 204 517 241 549 246 590 c 0x78
401 246 m 0
 406 287 377 319 336 319 c 0
 296 319 260 287 255 246 c 0
 250 205 278 173 318 173 c 0
 359 173 396 205 401 246 c 0
373 76 m 0
 378 117 349 149 308 149 c 0
 268 149 232 117 227 76 c 0
 222 35 250 3 290 3 c 0xb8
 331 3 368 35 373 76 c 0
421 418 m 0
 426 459 397 491 356 491 c 0
 316 491 280 459 275 418 c 0
 270 377 298 345 338 345 c 0
 379 345 416 377 421 418 c 0
178 77 m 0
 183 118 154 150 113 150 c 0
 73 150 36 118 31 77 c 0
 26 36 55 4 95 4 c 0
 136 4 173 36 178 77 c 0
EndSplineSet
EndChar

StartChar: uni28F2
Encoding: 288 10482 32
Width: 444
Flags: W
HStem: 3 146<288 310.5> 4 146<93 115.5> 173 146<316 338.5> 345 146<336 358.5> 346 146<140 162.5>
LayerCount: 2
Fore
SplineSet
421 418 m 0x70
 426 459 397 491 356 491 c 0
 316 491 280 459 275 418 c 0
 270 377 298 345 338 345 c 0
 379 345 416 377 421 418 c 0x70
225 419 m 0
 230 460 201 492 160 492 c 0
 120 492 84 460 79 419 c 0
 74 378 102 346 142 346 c 0
 183 346 220 378 225 419 c 0
373 76 m 0
 378 117 349 149 308 149 c 0
 268 149 232 117 227 76 c 0
 222 35 250 3 290 3 c 0xa8
 331 3 368 35 373 76 c 0
401 246 m 0
 406 287 377 319 336 319 c 0
 296 319 260 287 255 246 c 0
 250 205 278 173 318 173 c 0
 359 173 396 205 401 246 c 0
178 77 m 0
 183 118 154 150 113 150 c 0
 73 150 36 118 31 77 c 0
 26 36 55 4 95 4 c 0xb0
 136 4 173 36 178 77 c 0
EndSplineSet
EndChar

StartChar: uni28F3
Encoding: 289 10483 33
Width: 444
Flags: W
HStem: 3 146<288 310.5> 4 146<93 115.5> 173 146<316 338.5> 345 146<336 358.5> 346 146<140 162.5> 517 146<161 183.5>
LayerCount: 2
Fore
SplineSet
401 246 m 0x6c
 406 287 377 319 336 319 c 0
 296 319 260 287 255 246 c 0
 250 205 278 173 318 173 c 0
 359 173 396 205 401 246 c 0x6c
246 590 m 0
 251 631 222 663 181 663 c 0
 141 663 105 631 100 590 c 0
 95 549 123 517 163 517 c 0
 204 517 241 549 246 590 c 0
421 418 m 0
 426 459 397 491 356 491 c 0
 316 491 280 459 275 418 c 0
 270 377 298 345 338 345 c 0xb4
 379 345 416 377 421 418 c 0
373 76 m 0
 378 117 349 149 308 149 c 0
 268 149 232 117 227 76 c 0
 222 35 250 3 290 3 c 0
 331 3 368 35 373 76 c 0
225 419 m 0
 230 460 201 492 160 492 c 0
 120 492 84 460 79 419 c 0
 74 378 102 346 142 346 c 0
 183 346 220 378 225 419 c 0
178 77 m 0
 183 118 154 150 113 150 c 0
 73 150 36 118 31 77 c 0
 26 36 55 4 95 4 c 0
 136 4 173 36 178 77 c 0
EndSplineSet
EndChar

StartChar: uni28F4
Encoding: 290 10484 34
Width: 444
Flags: W
HStem: 3 146<288 310.5> 4 146<93 115.5> 173 146<316 338.5> 174 146<120 142.5> 345 146<336 358.5>
LayerCount: 2
Fore
SplineSet
205 247 m 0x68
 210 288 181 320 140 320 c 0
 100 320 64 288 59 247 c 0
 54 206 82 174 122 174 c 0
 163 174 200 206 205 247 c 0x68
401 246 m 0
 406 287 377 319 336 319 c 0
 296 319 260 287 255 246 c 0
 250 205 278 173 318 173 c 0
 359 173 396 205 401 246 c 0
373 76 m 0
 378 117 349 149 308 149 c 0
 268 149 232 117 227 76 c 0
 222 35 250 3 290 3 c 0xa8
 331 3 368 35 373 76 c 0
421 418 m 0
 426 459 397 491 356 491 c 0
 316 491 280 459 275 418 c 0
 270 377 298 345 338 345 c 0
 379 345 416 377 421 418 c 0
178 77 m 0
 183 118 154 150 113 150 c 0
 73 150 36 118 31 77 c 0
 26 36 55 4 95 4 c 0x98
 136 4 173 36 178 77 c 0
EndSplineSet
EndChar

StartChar: uni28F5
Encoding: 291 10485 35
Width: 444
Flags: W
HStem: 3 146<288 310.5> 4 146<93 115.5> 173 146<316 338.5> 174 146<120 142.5> 345 146<336 358.5> 517 146<161 183.5>
LayerCount: 2
Fore
SplineSet
205 247 m 0x6c
 210 288 181 320 140 320 c 0
 100 320 64 288 59 247 c 0
 54 206 82 174 122 174 c 0
 163 174 200 206 205 247 c 0x6c
246 590 m 0
 251 631 222 663 181 663 c 0
 141 663 105 631 100 590 c 0
 95 549 123 517 163 517 c 0
 204 517 241 549 246 590 c 0
421 418 m 0
 426 459 397 491 356 491 c 0
 316 491 280 459 275 418 c 0
 270 377 298 345 338 345 c 0x9c
 379 345 416 377 421 418 c 0
373 76 m 0
 378 117 349 149 308 149 c 0
 268 149 232 117 227 76 c 0
 222 35 250 3 290 3 c 0
 331 3 368 35 373 76 c 0
401 246 m 0
 406 287 377 319 336 319 c 0
 296 319 260 287 255 246 c 0
 250 205 278 173 318 173 c 0
 359 173 396 205 401 246 c 0
178 77 m 0
 183 118 154 150 113 150 c 0
 73 150 36 118 31 77 c 0
 26 36 55 4 95 4 c 0
 136 4 173 36 178 77 c 0
EndSplineSet
EndChar

StartChar: uni28F6
Encoding: 292 10486 36
Width: 444
Flags: W
HStem: 3 146<288 310.5> 4 146<93 115.5> 173 146<316 338.5> 174 146<120 142.5> 345 146<336 358.5> 346 146<140 162.5>
LayerCount: 2
Fore
SplineSet
401 246 m 0x64
 406 287 377 319 336 319 c 0
 296 319 260 287 255 246 c 0
 250 205 278 173 318 173 c 0
 359 173 396 205 401 246 c 0x64
205 247 m 0
 210 288 181 320 140 320 c 0
 100 320 64 288 59 247 c 0
 54 206 82 174 122 174 c 0
 163 174 200 206 205 247 c 0
421 418 m 0
 426 459 397 491 356 491 c 0
 316 491 280 459 275 418 c 0
 270 377 298 345 338 345 c 0x98
 379 345 416 377 421 418 c 0
373 76 m 0
 378 117 349 149 308 149 c 0
 268 149 232 117 227 76 c 0
 222 35 250 3 290 3 c 0
 331 3 368 35 373 76 c 0
225 419 m 0
 230 460 201 492 160 492 c 0
 120 492 84 460 79 419 c 0
 74 378 102 346 142 346 c 0
 183 346 220 378 225 419 c 0
178 77 m 0
 183 118 154 150 113 150 c 0
 73 150 36 118 31 77 c 0
 26 36 55 4 95 4 c 0xa8
 136 4 173 36 178 77 c 0
EndSplineSet
EndChar

StartChar: uni28F7
Encoding: 293 10487 37
Width: 444
Flags: W
HStem: 3 146<288 310.5> 4 146<93 115.5> 173 146<316 338.5> 174 146<120 142.5> 345 146<336 358.5> 346 146<140 162.5> 517 146<161 183.5>
LayerCount: 2
Fore
SplineSet
205 247 m 0x6a
 210 288 181 320 140 320 c 0
 100 320 64 288 59 247 c 0
 54 206 82 174 122 174 c 0
 163 174 200 206 205 247 c 0x6a
246 590 m 0
 251 631 222 663 181 663 c 0
 141 663 105 631 100 590 c 0
 95 549 123 517 163 517 c 0
 204 517 241 549 246 590 c 0
225 419 m 0
 230 460 201 492 160 492 c 0
 120 492 84 460 79 419 c 0
 74 378 102 346 142 346 c 0xaa
 183 346 220 378 225 419 c 0
421 418 m 0
 426 459 397 491 356 491 c 0
 316 491 280 459 275 418 c 0
 270 377 298 345 338 345 c 0
 379 345 416 377 421 418 c 0
373 76 m 0
 378 117 349 149 308 149 c 0
 268 149 232 117 227 76 c 0
 222 35 250 3 290 3 c 0x96
 331 3 368 35 373 76 c 0
401 246 m 0
 406 287 377 319 336 319 c 0
 296 319 260 287 255 246 c 0
 250 205 278 173 318 173 c 0
 359 173 396 205 401 246 c 0
178 77 m 0
 183 118 154 150 113 150 c 0
 73 150 36 118 31 77 c 0
 26 36 55 4 95 4 c 0
 136 4 173 36 178 77 c 0
EndSplineSet
EndChar

StartChar: uni28F8
Encoding: 294 10488 38
Width: 444
Flags: W
HStem: 3 146<288 310.5> 4 146<93 115.5> 173 146<316 338.5> 345 146<336 358.5> 516 146<357 379.5>
LayerCount: 2
Fore
SplineSet
442 589 m 0x78
 447 630 418 662 377 662 c 0
 337 662 301 630 296 589 c 0
 291 548 319 516 359 516 c 0
 400 516 437 548 442 589 c 0x78
401 246 m 0
 406 287 377 319 336 319 c 0
 296 319 260 287 255 246 c 0
 250 205 278 173 318 173 c 0
 359 173 396 205 401 246 c 0
373 76 m 0
 378 117 349 149 308 149 c 0
 268 149 232 117 227 76 c 0
 222 35 250 3 290 3 c 0xb8
 331 3 368 35 373 76 c 0
421 418 m 0
 426 459 397 491 356 491 c 0
 316 491 280 459 275 418 c 0
 270 377 298 345 338 345 c 0
 379 345 416 377 421 418 c 0
178 77 m 0
 183 118 154 150 113 150 c 0
 73 150 36 118 31 77 c 0
 26 36 55 4 95 4 c 0
 136 4 173 36 178 77 c 0
EndSplineSet
EndChar

StartChar: uni28F9
Encoding: 295 10489 39
Width: 444
Flags: W
HStem: 3 146<288 310.5> 4 146<93 115.5> 173 146<316 338.5> 345 146<336 358.5> 516 146<357 379.5> 517 146<161 183.5>
LayerCount: 2
Fore
SplineSet
442 589 m 0x78
 447 630 418 662 377 662 c 0
 337 662 301 630 296 589 c 0
 291 548 319 516 359 516 c 0
 400 516 437 548 442 589 c 0x78
246 590 m 0
 251 631 222 663 181 663 c 0
 141 663 105 631 100 590 c 0
 95 549 123 517 163 517 c 0
 204 517 241 549 246 590 c 0
421 418 m 0
 426 459 397 491 356 491 c 0
 316 491 280 459 275 418 c 0
 270 377 298 345 338 345 c 0xb4
 379 345 416 377 421 418 c 0
373 76 m 0
 378 117 349 149 308 149 c 0
 268 149 232 117 227 76 c 0
 222 35 250 3 290 3 c 0
 331 3 368 35 373 76 c 0
401 246 m 0
 406 287 377 319 336 319 c 0
 296 319 260 287 255 246 c 0
 250 205 278 173 318 173 c 0
 359 173 396 205 401 246 c 0
178 77 m 0
 183 118 154 150 113 150 c 0
 73 150 36 118 31 77 c 0
 26 36 55 4 95 4 c 0xb8
 136 4 173 36 178 77 c 0
EndSplineSet
EndChar

StartChar: uni28FA
Encoding: 296 10490 40
Width: 444
Flags: W
HStem: 3 146<288 310.5> 4 146<93 115.5> 173 146<316 338.5> 345 146<336 358.5> 346 146<140 162.5> 516 146<357 379.5>
LayerCount: 2
Fore
SplineSet
401 246 m 0x6c
 406 287 377 319 336 319 c 0
 296 319 260 287 255 246 c 0
 250 205 278 173 318 173 c 0
 359 173 396 205 401 246 c 0x6c
442 589 m 0
 447 630 418 662 377 662 c 0
 337 662 301 630 296 589 c 0
 291 548 319 516 359 516 c 0
 400 516 437 548 442 589 c 0
421 418 m 0
 426 459 397 491 356 491 c 0
 316 491 280 459 275 418 c 0
 270 377 298 345 338 345 c 0xb4
 379 345 416 377 421 418 c 0
373 76 m 0
 378 117 349 149 308 149 c 0
 268 149 232 117 227 76 c 0
 222 35 250 3 290 3 c 0
 331 3 368 35 373 76 c 0
225 419 m 0
 230 460 201 492 160 492 c 0
 120 492 84 460 79 419 c 0
 74 378 102 346 142 346 c 0
 183 346 220 378 225 419 c 0
178 77 m 0
 183 118 154 150 113 150 c 0
 73 150 36 118 31 77 c 0
 26 36 55 4 95 4 c 0
 136 4 173 36 178 77 c 0
EndSplineSet
EndChar

StartChar: uni28FB
Encoding: 297 10491 41
Width: 444
Flags: W
HStem: 3 146<288 310.5> 4 146<93 115.5> 173 146<316 338.5> 345 146<336 358.5> 346 146<140 162.5> 516 146<357 379.5> 517 146<161 183.5>
LayerCount: 2
Fore
SplineSet
401 246 m 0x6c
 406 287 377 319 336 319 c 0
 296 319 260 287 255 246 c 0
 250 205 278 173 318 173 c 0
 359 173 396 205 401 246 c 0x6c
246 590 m 0
 251 631 222 663 181 663 c 0
 141 663 105 631 100 590 c 0
 95 549 123 517 163 517 c 0
 204 517 241 549 246 590 c 0
421 418 m 0
 426 459 397 491 356 491 c 0
 316 491 280 459 275 418 c 0
 270 377 298 345 338 345 c 0xb4
 379 345 416 377 421 418 c 0
442 589 m 0
 447 630 418 662 377 662 c 0
 337 662 301 630 296 589 c 0
 291 548 319 516 359 516 c 0
 400 516 437 548 442 589 c 0
373 76 m 0
 378 117 349 149 308 149 c 0
 268 149 232 117 227 76 c 0
 222 35 250 3 290 3 c 0
 331 3 368 35 373 76 c 0
225 419 m 0
 230 460 201 492 160 492 c 0
 120 492 84 460 79 419 c 0
 74 378 102 346 142 346 c 0xb2
 183 346 220 378 225 419 c 0
178 77 m 0
 183 118 154 150 113 150 c 0
 73 150 36 118 31 77 c 0
 26 36 55 4 95 4 c 0
 136 4 173 36 178 77 c 0
EndSplineSet
EndChar

StartChar: uni28FC
Encoding: 298 10492 42
Width: 444
Flags: W
HStem: 3 146<288 310.5> 4 146<93 115.5> 173 146<316 338.5> 174 146<120 142.5> 345 146<336 358.5> 516 146<357 379.5>
LayerCount: 2
Fore
SplineSet
442 589 m 0x6c
 447 630 418 662 377 662 c 0
 337 662 301 630 296 589 c 0
 291 548 319 516 359 516 c 0
 400 516 437 548 442 589 c 0x6c
205 247 m 0
 210 288 181 320 140 320 c 0
 100 320 64 288 59 247 c 0
 54 206 82 174 122 174 c 0
 163 174 200 206 205 247 c 0
421 418 m 0
 426 459 397 491 356 491 c 0
 316 491 280 459 275 418 c 0
 270 377 298 345 338 345 c 0x98
 379 345 416 377 421 418 c 0
373 76 m 0
 378 117 349 149 308 149 c 0
 268 149 232 117 227 76 c 0
 222 35 250 3 290 3 c 0
 331 3 368 35 373 76 c 0
401 246 m 0
 406 287 377 319 336 319 c 0
 296 319 260 287 255 246 c 0
 250 205 278 173 318 173 c 0
 359 173 396 205 401 246 c 0
178 77 m 0
 183 118 154 150 113 150 c 0
 73 150 36 118 31 77 c 0
 26 36 55 4 95 4 c 0
 136 4 173 36 178 77 c 0
EndSplineSet
EndChar

StartChar: uni28FD
Encoding: 299 10493 43
Width: 444
Flags: W
HStem: 3 146<288 310.5> 4 146<93 115.5> 173 146<316 338.5> 174 146<120 142.5> 345 146<336 358.5> 516 146<357 379.5> 517 146<161 183.5>
LayerCount: 2
Fore
SplineSet
205 247 m 0x6c
 210 288 181 320 140 320 c 0
 100 320 64 288 59 247 c 0
 54 206 82 174 122 174 c 0
 163 174 200 206 205 247 c 0x6c
246 590 m 0
 251 631 222 663 181 663 c 0
 141 663 105 631 100 590 c 0
 95 549 123 517 163 517 c 0
 204 517 241 549 246 590 c 0
421 418 m 0
 426 459 397 491 356 491 c 0
 316 491 280 459 275 418 c 0
 270 377 298 345 338 345 c 0xac
 379 345 416 377 421 418 c 0
442 589 m 0
 447 630 418 662 377 662 c 0
 337 662 301 630 296 589 c 0
 291 548 319 516 359 516 c 0
 400 516 437 548 442 589 c 0
373 76 m 0
 378 117 349 149 308 149 c 0
 268 149 232 117 227 76 c 0
 222 35 250 3 290 3 c 0
 331 3 368 35 373 76 c 0
401 246 m 0
 406 287 377 319 336 319 c 0
 296 319 260 287 255 246 c 0
 250 205 278 173 318 173 c 0x9a
 359 173 396 205 401 246 c 0
178 77 m 0
 183 118 154 150 113 150 c 0
 73 150 36 118 31 77 c 0
 26 36 55 4 95 4 c 0
 136 4 173 36 178 77 c 0
EndSplineSet
EndChar

StartChar: uni28FE
Encoding: 300 10494 44
Width: 444
Flags: W
HStem: 3 146<288 310.5> 4 146<93 115.5> 173 146<316 338.5> 174 146<120 142.5> 345 146<336 358.5> 346 146<140 162.5> 516 146<357 379.5>
LayerCount: 2
Fore
SplineSet
401 246 m 0x66
 406 287 377 319 336 319 c 0
 296 319 260 287 255 246 c 0
 250 205 278 173 318 173 c 0
 359 173 396 205 401 246 c 0x66
205 247 m 0
 210 288 181 320 140 320 c 0
 100 320 64 288 59 247 c 0
 54 206 82 174 122 174 c 0
 163 174 200 206 205 247 c 0
421 418 m 0
 426 459 397 491 356 491 c 0
 316 491 280 459 275 418 c 0
 270 377 298 345 338 345 c 0x9a
 379 345 416 377 421 418 c 0
442 589 m 0
 447 630 418 662 377 662 c 0
 337 662 301 630 296 589 c 0
 291 548 319 516 359 516 c 0
 400 516 437 548 442 589 c 0
373 76 m 0
 378 117 349 149 308 149 c 0
 268 149 232 117 227 76 c 0
 222 35 250 3 290 3 c 0
 331 3 368 35 373 76 c 0
225 419 m 0
 230 460 201 492 160 492 c 0
 120 492 84 460 79 419 c 0
 74 378 102 346 142 346 c 0
 183 346 220 378 225 419 c 0
178 77 m 0
 183 118 154 150 113 150 c 0
 73 150 36 118 31 77 c 0
 26 36 55 4 95 4 c 0xaa
 136 4 173 36 178 77 c 0
EndSplineSet
EndChar

StartChar: uni28FF
Encoding: 301 10495 45
Width: 444
Flags: W
HStem: 3 146<288 310.5> 4 146<93 115.5> 173 146<316 338.5> 174 146<120 142.5> 345 146<336 358.5> 346 146<140 162.5> 516 146<357 379.5> 517 146<161 183.5>
LayerCount: 2
Fore
SplineSet
442 589 m 0x69
 447 630 418 662 377 662 c 0
 337 662 301 630 296 589 c 0
 291 548 319 516 359 516 c 0
 400 516 437 548 442 589 c 0x69
225 419 m 0
 230 460 201 492 160 492 c 0
 120 492 84 460 79 419 c 0
 74 378 102 346 142 346 c 0
 183 346 220 378 225 419 c 0
401 246 m 0
 406 287 377 319 336 319 c 0
 296 319 260 287 255 246 c 0
 250 205 278 173 318 173 c 0
 359 173 396 205 401 246 c 0
205 247 m 0
 210 288 181 320 140 320 c 0
 100 320 64 288 59 247 c 0
 54 206 82 174 122 174 c 0x98
 163 174 200 206 205 247 c 0
373 76 m 0
 378 117 349 149 308 149 c 0
 268 149 232 117 227 76 c 0
 222 35 250 3 290 3 c 0
 331 3 368 35 373 76 c 0
246 590 m 0
 251 631 222 663 181 663 c 0
 141 663 105 631 100 590 c 0
 95 549 123 517 163 517 c 0xa6
 204 517 241 549 246 590 c 0
421 418 m 0
 426 459 397 491 356 491 c 0
 316 491 280 459 275 418 c 0
 270 377 298 345 338 345 c 0
 379 345 416 377 421 418 c 0
178 77 m 0
 183 118 154 150 113 150 c 0
 73 150 36 118 31 77 c 0
 26 36 55 4 95 4 c 0
 136 4 173 36 178 77 c 0
EndSplineSet
EndChar

StartChar: uni286A
Encoding: 302 10346 46
Width: 444
Flags: MW
HStem: 4 146<93 115.5> 173 146<316 338.5> 346 146<140 162.5> 516 146<357 379.5>
LayerCount: 2
Fore
SplineSet
442 589 m 0
 447 630 418 662 377 662 c 0
 337 662 301 630 296 589 c 0
 291 548 319 516 359 516 c 0
 400 516 437 548 442 589 c 0
225 419 m 0
 230 460 201 492 160 492 c 0
 120 492 84 460 79 419 c 0
 74 378 102 346 142 346 c 0
 183 346 220 378 225 419 c 0
401 246 m 0
 406 287 377 319 336 319 c 0
 296 319 260 287 255 246 c 0
 250 205 278 173 318 173 c 0
 359 173 396 205 401 246 c 0
178 77 m 0
 183 118 154 150 113 150 c 0
 73 150 36 118 31 77 c 0
 26 36 55 4 95 4 c 0
 136 4 173 36 178 77 c 0
EndSplineSet
EndChar

StartChar: uni2869
Encoding: 303 10345 47
Width: 444
Flags: W
HStem: 4 146<93 115.5> 173 146<316 338.5> 516 146<357 379.5> 517 146<161 183.5>
LayerCount: 2
Fore
SplineSet
246 590 m 0xe0
 251 631 222 663 181 663 c 0
 141 663 105 631 100 590 c 0
 95 549 123 517 163 517 c 0
 204 517 241 549 246 590 c 0xe0
401 246 m 0
 406 287 377 319 336 319 c 0
 296 319 260 287 255 246 c 0
 250 205 278 173 318 173 c 0
 359 173 396 205 401 246 c 0
442 589 m 0
 447 630 418 662 377 662 c 0
 337 662 301 630 296 589 c 0
 291 548 319 516 359 516 c 0
 400 516 437 548 442 589 c 0
178 77 m 0
 183 118 154 150 113 150 c 0
 73 150 36 118 31 77 c 0
 26 36 55 4 95 4 c 0xd0
 136 4 173 36 178 77 c 0
EndSplineSet
EndChar

StartChar: uni288A
Encoding: 304 10378 48
Width: 444
Flags: MW
HStem: 3 146<288 310.5> 346 146<140 162.5> 516 146<357 379.5>
LayerCount: 2
Fore
SplineSet
225 419 m 0
 230 460 201 492 160 492 c 0
 120 492 84 460 79 419 c 0
 74 378 102 346 142 346 c 0
 183 346 220 378 225 419 c 0
442 589 m 0
 447 630 418 662 377 662 c 0
 337 662 301 630 296 589 c 0
 291 548 319 516 359 516 c 0
 400 516 437 548 442 589 c 0
373 76 m 0
 378 117 349 149 308 149 c 0
 268 149 232 117 227 76 c 0
 222 35 250 3 290 3 c 0
 331 3 368 35 373 76 c 0
EndSplineSet
EndChar

StartChar: uni28C8
Encoding: 305 10440 49
Width: 444
Flags: W
HStem: 3 146<288 310.5> 4 146<93 115.5> 516 146<357 379.5>
LayerCount: 2
Fore
SplineSet
373 76 m 0x60
 378 117 349 149 308 149 c 0
 268 149 232 117 227 76 c 0
 222 35 250 3 290 3 c 0
 331 3 368 35 373 76 c 0x60
442 589 m 0
 447 630 418 662 377 662 c 0
 337 662 301 630 296 589 c 0
 291 548 319 516 359 516 c 0
 400 516 437 548 442 589 c 0
178 77 m 0
 183 118 154 150 113 150 c 0
 73 150 36 118 31 77 c 0
 26 36 55 4 95 4 c 0xa0
 136 4 173 36 178 77 c 0
EndSplineSet
EndChar

StartChar: uni28C9
Encoding: 306 10441 50
Width: 444
Flags: W
HStem: 3 146<288 310.5> 4 146<93 115.5> 516 146<357 379.5> 517 146<161 183.5>
LayerCount: 2
Fore
SplineSet
246 590 m 0x60
 251 631 222 663 181 663 c 0
 141 663 105 631 100 590 c 0
 95 549 123 517 163 517 c 0
 204 517 241 549 246 590 c 0x60
373 76 m 0
 378 117 349 149 308 149 c 0
 268 149 232 117 227 76 c 0
 222 35 250 3 290 3 c 0
 331 3 368 35 373 76 c 0
442 589 m 0
 447 630 418 662 377 662 c 0
 337 662 301 630 296 589 c 0
 291 548 319 516 359 516 c 0x90
 400 516 437 548 442 589 c 0
178 77 m 0
 183 118 154 150 113 150 c 0
 73 150 36 118 31 77 c 0
 26 36 55 4 95 4 c 0
 136 4 173 36 178 77 c 0
EndSplineSet
EndChar

StartChar: uni28CA
Encoding: 307 10442 51
Width: 444
Flags: W
HStem: 3 146<288 310.5> 4 146<93 115.5> 346 146<140 162.5> 516 146<357 379.5>
LayerCount: 2
Fore
SplineSet
442 589 m 0x70
 447 630 418 662 377 662 c 0
 337 662 301 630 296 589 c 0
 291 548 319 516 359 516 c 0
 400 516 437 548 442 589 c 0x70
225 419 m 0
 230 460 201 492 160 492 c 0
 120 492 84 460 79 419 c 0
 74 378 102 346 142 346 c 0xb0
 183 346 220 378 225 419 c 0
373 76 m 0
 378 117 349 149 308 149 c 0
 268 149 232 117 227 76 c 0
 222 35 250 3 290 3 c 0
 331 3 368 35 373 76 c 0
178 77 m 0
 183 118 154 150 113 150 c 0
 73 150 36 118 31 77 c 0
 26 36 55 4 95 4 c 0
 136 4 173 36 178 77 c 0
EndSplineSet
EndChar

StartChar: a
Encoding: 97 97 52
Width: 444
Flags: MW
HStem: 517 146<161 183.5>
LayerCount: 2
Fore
SplineSet
246 590 m 0
 251 631 222 663 181 663 c 0
 141 663 105 631 100 590 c 0
 95 549 123 517 163 517 c 0
 204 517 241 549 246 590 c 0
EndSplineSet
EndChar

StartChar: b
Encoding: 98 98 53
Width: 444
Flags: MW
HStem: 346 146<140 162.5> 517 146<161 183.5>
LayerCount: 2
Fore
SplineSet
246 590 m 0
 251 631 222 663 181 663 c 0
 141 663 105 631 100 590 c 0
 95 549 123 517 163 517 c 0
 204 517 241 549 246 590 c 0
225 419 m 0
 230 460 201 492 160 492 c 0
 120 492 84 460 79 419 c 0
 74 378 102 346 142 346 c 0
 183 346 220 378 225 419 c 0
EndSplineSet
EndChar

StartChar: c
Encoding: 99 99 54
Width: 444
Flags: W
HStem: 516 146<357 379.5> 517 146<161 183.5>
LayerCount: 2
Fore
SplineSet
246 590 m 0x80
 251 631 222 663 181 663 c 0
 141 663 105 631 100 590 c 0
 95 549 123 517 163 517 c 0
 204 517 241 549 246 590 c 0x80
442 589 m 0
 447 630 418 662 377 662 c 0
 337 662 301 630 296 589 c 0
 291 548 319 516 359 516 c 0x40
 400 516 437 548 442 589 c 0
EndSplineSet
EndChar

StartChar: d
Encoding: 100 100 55
Width: 444
Flags: W
HStem: 345 146<336 358.5> 516 146<357 379.5> 517 146<161 183.5>
LayerCount: 2
Fore
SplineSet
421 418 m 0xc0
 426 459 397 491 356 491 c 0
 316 491 280 459 275 418 c 0
 270 377 298 345 338 345 c 0
 379 345 416 377 421 418 c 0xc0
246 590 m 0
 251 631 222 663 181 663 c 0
 141 663 105 631 100 590 c 0
 95 549 123 517 163 517 c 0xa0
 204 517 241 549 246 590 c 0
442 589 m 0
 447 630 418 662 377 662 c 0
 337 662 301 630 296 589 c 0
 291 548 319 516 359 516 c 0
 400 516 437 548 442 589 c 0
EndSplineSet
EndChar

StartChar: e
Encoding: 101 101 56
Width: 444
Flags: MW
HStem: 345 146<336 358.5> 517 146<161 183.5>
LayerCount: 2
Fore
SplineSet
246 590 m 0
 251 631 222 663 181 663 c 0
 141 663 105 631 100 590 c 0
 95 549 123 517 163 517 c 0
 204 517 241 549 246 590 c 0
421 418 m 0
 426 459 397 491 356 491 c 0
 316 491 280 459 275 418 c 0
 270 377 298 345 338 345 c 0
 379 345 416 377 421 418 c 0
EndSplineSet
EndChar

StartChar: f
Encoding: 102 102 57
Width: 444
Flags: W
HStem: 346 146<140 162.5> 516 146<357 379.5> 517 146<161 183.5>
LayerCount: 2
Fore
SplineSet
225 419 m 0xc0
 230 460 201 492 160 492 c 0
 120 492 84 460 79 419 c 0
 74 378 102 346 142 346 c 0
 183 346 220 378 225 419 c 0xc0
246 590 m 0
 251 631 222 663 181 663 c 0
 141 663 105 631 100 590 c 0
 95 549 123 517 163 517 c 0xa0
 204 517 241 549 246 590 c 0
442 589 m 0
 447 630 418 662 377 662 c 0
 337 662 301 630 296 589 c 0
 291 548 319 516 359 516 c 0
 400 516 437 548 442 589 c 0
EndSplineSet
EndChar

StartChar: g
Encoding: 103 103 58
Width: 444
Flags: W
HStem: 345 146<336 358.5> 346 146<140 162.5> 516 146<357 379.5> 517 146<161 183.5>
LayerCount: 2
Fore
SplineSet
421 418 m 0xa0
 426 459 397 491 356 491 c 0
 316 491 280 459 275 418 c 0
 270 377 298 345 338 345 c 0
 379 345 416 377 421 418 c 0xa0
225 419 m 0
 230 460 201 492 160 492 c 0
 120 492 84 460 79 419 c 0
 74 378 102 346 142 346 c 0x50
 183 346 220 378 225 419 c 0
246 590 m 0
 251 631 222 663 181 663 c 0
 141 663 105 631 100 590 c 0
 95 549 123 517 163 517 c 0
 204 517 241 549 246 590 c 0
442 589 m 0
 447 630 418 662 377 662 c 0
 337 662 301 630 296 589 c 0
 291 548 319 516 359 516 c 0xa0
 400 516 437 548 442 589 c 0
EndSplineSet
EndChar

StartChar: h
Encoding: 104 104 59
Width: 444
Flags: W
HStem: 345 146<336 358.5> 346 146<140 162.5> 517 146<161 183.5>
LayerCount: 2
Fore
SplineSet
225 419 m 0xa0
 230 460 201 492 160 492 c 0
 120 492 84 460 79 419 c 0
 74 378 102 346 142 346 c 0
 183 346 220 378 225 419 c 0xa0
246 590 m 0
 251 631 222 663 181 663 c 0
 141 663 105 631 100 590 c 0
 95 549 123 517 163 517 c 0
 204 517 241 549 246 590 c 0
421 418 m 0
 426 459 397 491 356 491 c 0
 316 491 280 459 275 418 c 0
 270 377 298 345 338 345 c 0x60
 379 345 416 377 421 418 c 0
EndSplineSet
EndChar

StartChar: i
Encoding: 105 105 60
Width: 444
Flags: MW
HStem: 346 146<140 162.5> 516 146<357 379.5>
LayerCount: 2
Fore
SplineSet
442 589 m 0
 447 630 418 662 377 662 c 0
 337 662 301 630 296 589 c 0
 291 548 319 516 359 516 c 0
 400 516 437 548 442 589 c 0
225 419 m 0
 230 460 201 492 160 492 c 0
 120 492 84 460 79 419 c 0
 74 378 102 346 142 346 c 0
 183 346 220 378 225 419 c 0
EndSplineSet
EndChar

StartChar: j
Encoding: 106 106 61
Width: 444
Flags: W
HStem: 345 146<336 358.5> 346 146<140 162.5> 516 146<357 379.5>
LayerCount: 2
Fore
SplineSet
225 419 m 0xa0
 230 460 201 492 160 492 c 0
 120 492 84 460 79 419 c 0
 74 378 102 346 142 346 c 0
 183 346 220 378 225 419 c 0xa0
442 589 m 0
 447 630 418 662 377 662 c 0
 337 662 301 630 296 589 c 0
 291 548 319 516 359 516 c 0
 400 516 437 548 442 589 c 0
421 418 m 0
 426 459 397 491 356 491 c 0
 316 491 280 459 275 418 c 0
 270 377 298 345 338 345 c 0x60
 379 345 416 377 421 418 c 0
EndSplineSet
EndChar

StartChar: k
Encoding: 107 107 62
Width: 444
Flags: MW
HStem: 174 146<120 142.5> 517 146<161 183.5>
LayerCount: 2
Fore
SplineSet
246 590 m 0
 251 631 222 663 181 663 c 0
 141 663 105 631 100 590 c 0
 95 549 123 517 163 517 c 0
 204 517 241 549 246 590 c 0
205 247 m 0
 210 288 181 320 140 320 c 0
 100 320 64 288 59 247 c 0
 54 206 82 174 122 174 c 0
 163 174 200 206 205 247 c 0
EndSplineSet
EndChar

StartChar: l
Encoding: 108 108 63
Width: 444
Flags: MW
HStem: 174 146<120 142.5> 346 146<140 162.5> 517 146<161 183.5>
LayerCount: 2
Fore
SplineSet
225 419 m 0
 230 460 201 492 160 492 c 0
 120 492 84 460 79 419 c 0
 74 378 102 346 142 346 c 0
 183 346 220 378 225 419 c 0
246 590 m 0
 251 631 222 663 181 663 c 0
 141 663 105 631 100 590 c 0
 95 549 123 517 163 517 c 0
 204 517 241 549 246 590 c 0
205 247 m 0
 210 288 181 320 140 320 c 0
 100 320 64 288 59 247 c 0
 54 206 82 174 122 174 c 0
 163 174 200 206 205 247 c 0
EndSplineSet
EndChar

StartChar: m
Encoding: 109 109 64
Width: 444
Flags: W
HStem: 174 146<120 142.5> 516 146<357 379.5> 517 146<161 183.5>
LayerCount: 2
Fore
SplineSet
442 589 m 0xa0
 447 630 418 662 377 662 c 0
 337 662 301 630 296 589 c 0
 291 548 319 516 359 516 c 0
 400 516 437 548 442 589 c 0xa0
246 590 m 0
 251 631 222 663 181 663 c 0
 141 663 105 631 100 590 c 0
 95 549 123 517 163 517 c 0
 204 517 241 549 246 590 c 0
205 247 m 0
 210 288 181 320 140 320 c 0
 100 320 64 288 59 247 c 0
 54 206 82 174 122 174 c 0xc0
 163 174 200 206 205 247 c 0
EndSplineSet
EndChar

StartChar: n
Encoding: 110 110 65
Width: 444
Flags: W
HStem: 174 146<120 142.5> 345 146<336 358.5> 516 146<357 379.5> 517 146<161 183.5>
LayerCount: 2
Fore
SplineSet
442 589 m 0xd0
 447 630 418 662 377 662 c 0
 337 662 301 630 296 589 c 0
 291 548 319 516 359 516 c 0
 400 516 437 548 442 589 c 0xd0
421 418 m 0
 426 459 397 491 356 491 c 0
 316 491 280 459 275 418 c 0
 270 377 298 345 338 345 c 0
 379 345 416 377 421 418 c 0
246 590 m 0
 251 631 222 663 181 663 c 0
 141 663 105 631 100 590 c 0
 95 549 123 517 163 517 c 0
 204 517 241 549 246 590 c 0
205 247 m 0
 210 288 181 320 140 320 c 0
 100 320 64 288 59 247 c 0
 54 206 82 174 122 174 c 0xe0
 163 174 200 206 205 247 c 0
EndSplineSet
EndChar

StartChar: o
Encoding: 111 111 66
Width: 444
Flags: MW
HStem: 174 146<120 142.5> 345 146<336 358.5> 517 146<161 183.5>
LayerCount: 2
Fore
SplineSet
421 418 m 0
 426 459 397 491 356 491 c 0
 316 491 280 459 275 418 c 0
 270 377 298 345 338 345 c 0
 379 345 416 377 421 418 c 0
246 590 m 0
 251 631 222 663 181 663 c 0
 141 663 105 631 100 590 c 0
 95 549 123 517 163 517 c 0
 204 517 241 549 246 590 c 0
205 247 m 0
 210 288 181 320 140 320 c 0
 100 320 64 288 59 247 c 0
 54 206 82 174 122 174 c 0
 163 174 200 206 205 247 c 0
EndSplineSet
EndChar

StartChar: p
Encoding: 112 112 67
Width: 444
Flags: W
HStem: 174 146<120 142.5> 346 146<140 162.5> 516 146<357 379.5> 517 146<161 183.5>
LayerCount: 2
Fore
SplineSet
442 589 m 0xd0
 447 630 418 662 377 662 c 0
 337 662 301 630 296 589 c 0
 291 548 319 516 359 516 c 0
 400 516 437 548 442 589 c 0xd0
225 419 m 0
 230 460 201 492 160 492 c 0
 120 492 84 460 79 419 c 0
 74 378 102 346 142 346 c 0
 183 346 220 378 225 419 c 0
246 590 m 0
 251 631 222 663 181 663 c 0
 141 663 105 631 100 590 c 0
 95 549 123 517 163 517 c 0
 204 517 241 549 246 590 c 0
205 247 m 0
 210 288 181 320 140 320 c 0
 100 320 64 288 59 247 c 0
 54 206 82 174 122 174 c 0xe0
 163 174 200 206 205 247 c 0
EndSplineSet
EndChar

StartChar: q
Encoding: 113 113 68
Width: 444
Flags: W
HStem: 174 146<120 142.5> 345 146<336 358.5> 346 146<140 162.5> 516 146<357 379.5> 517 146<161 183.5>
LayerCount: 2
Fore
SplineSet
442 589 m 0xa8
 447 630 418 662 377 662 c 0
 337 662 301 630 296 589 c 0
 291 548 319 516 359 516 c 0
 400 516 437 548 442 589 c 0xa8
421 418 m 0
 426 459 397 491 356 491 c 0
 316 491 280 459 275 418 c 0
 270 377 298 345 338 345 c 0
 379 345 416 377 421 418 c 0
225 419 m 0
 230 460 201 492 160 492 c 0
 120 492 84 460 79 419 c 0
 74 378 102 346 142 346 c 0
 183 346 220 378 225 419 c 0
246 590 m 0
 251 631 222 663 181 663 c 0
 141 663 105 631 100 590 c 0
 95 549 123 517 163 517 c 0xd0
 204 517 241 549 246 590 c 0
205 247 m 0
 210 288 181 320 140 320 c 0
 100 320 64 288 59 247 c 0
 54 206 82 174 122 174 c 0
 163 174 200 206 205 247 c 0
EndSplineSet
EndChar

StartChar: r
Encoding: 114 114 69
Width: 444
Flags: W
HStem: 174 146<120 142.5> 345 146<336 358.5> 346 146<140 162.5> 517 146<161 183.5>
LayerCount: 2
Fore
SplineSet
421 418 m 0xb0
 426 459 397 491 356 491 c 0
 316 491 280 459 275 418 c 0
 270 377 298 345 338 345 c 0
 379 345 416 377 421 418 c 0xb0
225 419 m 0
 230 460 201 492 160 492 c 0
 120 492 84 460 79 419 c 0
 74 378 102 346 142 346 c 0
 183 346 220 378 225 419 c 0
246 590 m 0
 251 631 222 663 181 663 c 0
 141 663 105 631 100 590 c 0
 95 549 123 517 163 517 c 0
 204 517 241 549 246 590 c 0
205 247 m 0
 210 288 181 320 140 320 c 0
 100 320 64 288 59 247 c 0
 54 206 82 174 122 174 c 0xd0
 163 174 200 206 205 247 c 0
EndSplineSet
EndChar

StartChar: s
Encoding: 115 115 70
Width: 444
Flags: MW
HStem: 174 146<120 142.5> 346 146<140 162.5> 516 146<357 379.5>
LayerCount: 2
Fore
SplineSet
225 419 m 0
 230 460 201 492 160 492 c 0
 120 492 84 460 79 419 c 0
 74 378 102 346 142 346 c 0
 183 346 220 378 225 419 c 0
205 247 m 0
 210 288 181 320 140 320 c 0
 100 320 64 288 59 247 c 0
 54 206 82 174 122 174 c 0
 163 174 200 206 205 247 c 0
442 589 m 0
 447 630 418 662 377 662 c 0
 337 662 301 630 296 589 c 0
 291 548 319 516 359 516 c 0
 400 516 437 548 442 589 c 0
EndSplineSet
EndChar

StartChar: t
Encoding: 116 116 71
Width: 444
Flags: W
HStem: 174 146<120 142.5> 345 146<336 358.5> 346 146<140 162.5> 516 146<357 379.5>
LayerCount: 2
Fore
SplineSet
421 418 m 0xb0
 426 459 397 491 356 491 c 0
 316 491 280 459 275 418 c 0
 270 377 298 345 338 345 c 0
 379 345 416 377 421 418 c 0xb0
225 419 m 0
 230 460 201 492 160 492 c 0
 120 492 84 460 79 419 c 0
 74 378 102 346 142 346 c 0
 183 346 220 378 225 419 c 0
205 247 m 0
 210 288 181 320 140 320 c 0
 100 320 64 288 59 247 c 0
 54 206 82 174 122 174 c 0
 163 174 200 206 205 247 c 0
442 589 m 0
 447 630 418 662 377 662 c 0
 337 662 301 630 296 589 c 0
 291 548 319 516 359 516 c 0xd0
 400 516 437 548 442 589 c 0
EndSplineSet
EndChar

StartChar: u
Encoding: 117 117 72
Width: 444
Flags: W
HStem: 173 146<316 338.5> 174 146<120 142.5> 517 146<161 183.5>
LayerCount: 2
Fore
SplineSet
401 246 m 0x60
 406 287 377 319 336 319 c 0
 296 319 260 287 255 246 c 0
 250 205 278 173 318 173 c 0
 359 173 396 205 401 246 c 0x60
246 590 m 0
 251 631 222 663 181 663 c 0
 141 663 105 631 100 590 c 0
 95 549 123 517 163 517 c 0
 204 517 241 549 246 590 c 0
205 247 m 0
 210 288 181 320 140 320 c 0
 100 320 64 288 59 247 c 0
 54 206 82 174 122 174 c 0xa0
 163 174 200 206 205 247 c 0
EndSplineSet
EndChar

StartChar: v
Encoding: 118 118 73
Width: 444
Flags: W
HStem: 173 146<316 338.5> 174 146<120 142.5> 346 146<140 162.5> 517 146<161 183.5>
LayerCount: 2
Fore
SplineSet
401 246 m 0x70
 406 287 377 319 336 319 c 0
 296 319 260 287 255 246 c 0
 250 205 278 173 318 173 c 0
 359 173 396 205 401 246 c 0x70
225 419 m 0
 230 460 201 492 160 492 c 0
 120 492 84 460 79 419 c 0
 74 378 102 346 142 346 c 0
 183 346 220 378 225 419 c 0
246 590 m 0
 251 631 222 663 181 663 c 0
 141 663 105 631 100 590 c 0
 95 549 123 517 163 517 c 0
 204 517 241 549 246 590 c 0
205 247 m 0
 210 288 181 320 140 320 c 0
 100 320 64 288 59 247 c 0
 54 206 82 174 122 174 c 0xb0
 163 174 200 206 205 247 c 0
EndSplineSet
EndChar

StartChar: w
Encoding: 119 119 74
Width: 444
Flags: W
HStem: 173 146<316 338.5> 345 146<336 358.5> 346 146<140 162.5> 516 146<357 379.5>
LayerCount: 2
Fore
SplineSet
401 246 m 0xd0
 406 287 377 319 336 319 c 0
 296 319 260 287 255 246 c 0
 250 205 278 173 318 173 c 0
 359 173 396 205 401 246 c 0xd0
225 419 m 0
 230 460 201 492 160 492 c 0
 120 492 84 460 79 419 c 0
 74 378 102 346 142 346 c 0
 183 346 220 378 225 419 c 0
442 589 m 0
 447 630 418 662 377 662 c 0
 337 662 301 630 296 589 c 0
 291 548 319 516 359 516 c 0xb0
 400 516 437 548 442 589 c 0
421 418 m 0
 426 459 397 491 356 491 c 0
 316 491 280 459 275 418 c 0
 270 377 298 345 338 345 c 0
 379 345 416 377 421 418 c 0
EndSplineSet
EndChar

StartChar: x
Encoding: 120 120 75
Width: 444
Flags: W
HStem: 173 146<316 338.5> 174 146<120 142.5> 516 146<357 379.5> 517 146<161 183.5>
LayerCount: 2
Fore
SplineSet
442 589 m 0x50
 447 630 418 662 377 662 c 0
 337 662 301 630 296 589 c 0
 291 548 319 516 359 516 c 0
 400 516 437 548 442 589 c 0x50
401 246 m 0
 406 287 377 319 336 319 c 0
 296 319 260 287 255 246 c 0
 250 205 278 173 318 173 c 0
 359 173 396 205 401 246 c 0
246 590 m 0
 251 631 222 663 181 663 c 0
 141 663 105 631 100 590 c 0
 95 549 123 517 163 517 c 0xa0
 204 517 241 549 246 590 c 0
205 247 m 0
 210 288 181 320 140 320 c 0
 100 320 64 288 59 247 c 0
 54 206 82 174 122 174 c 0
 163 174 200 206 205 247 c 0
EndSplineSet
EndChar

StartChar: y
Encoding: 121 121 76
Width: 444
Flags: W
HStem: 173 146<316 338.5> 174 146<120 142.5> 345 146<336 358.5> 516 146<357 379.5> 517 146<161 183.5>
LayerCount: 2
Fore
SplineSet
442 589 m 0x68
 447 630 418 662 377 662 c 0
 337 662 301 630 296 589 c 0
 291 548 319 516 359 516 c 0
 400 516 437 548 442 589 c 0x68
421 418 m 0
 426 459 397 491 356 491 c 0
 316 491 280 459 275 418 c 0
 270 377 298 345 338 345 c 0
 379 345 416 377 421 418 c 0
401 246 m 0
 406 287 377 319 336 319 c 0
 296 319 260 287 255 246 c 0
 250 205 278 173 318 173 c 0xb0
 359 173 396 205 401 246 c 0
246 590 m 0
 251 631 222 663 181 663 c 0
 141 663 105 631 100 590 c 0
 95 549 123 517 163 517 c 0
 204 517 241 549 246 590 c 0
205 247 m 0
 210 288 181 320 140 320 c 0
 100 320 64 288 59 247 c 0
 54 206 82 174 122 174 c 0
 163 174 200 206 205 247 c 0
EndSplineSet
EndChar

StartChar: z
Encoding: 122 122 77
Width: 444
Flags: W
HStem: 173 146<316 338.5> 174 146<120 142.5> 345 146<336 358.5> 517 146<161 183.5>
LayerCount: 2
Fore
SplineSet
421 418 m 0x70
 426 459 397 491 356 491 c 0
 316 491 280 459 275 418 c 0
 270 377 298 345 338 345 c 0
 379 345 416 377 421 418 c 0x70
401 246 m 0
 406 287 377 319 336 319 c 0
 296 319 260 287 255 246 c 0
 250 205 278 173 318 173 c 0
 359 173 396 205 401 246 c 0
246 590 m 0
 251 631 222 663 181 663 c 0
 141 663 105 631 100 590 c 0
 95 549 123 517 163 517 c 0xb0
 204 517 241 549 246 590 c 0
205 247 m 0
 210 288 181 320 140 320 c 0
 100 320 64 288 59 247 c 0
 54 206 82 174 122 174 c 0
 163 174 200 206 205 247 c 0
EndSplineSet
EndChar

StartChar: numbersign
Encoding: 35 35 78
Width: 444
Flags: MW
HStem: 175 146<-69 -46.5>
LayerCount: 2
Fore
SplineSet
16 248 m 0
 21 289 -8 321 -49 321 c 0
 -89 321 -125 289 -130 248 c 0
 -135 207 -107 175 -67 175 c 0
 -26 175 11 207 16 248 c 0
EndSplineSet
EndChar

StartChar: A
Encoding: 65 65 79
Width: 626
Flags: MW
HStem: 175 146<113 135.5> 517 146<343 365.5>
LayerCount: 2
Fore
SplineSet
428 590 m 0
 423 549 386 517 345 517 c 0
 305 517 277 549 282 590 c 0
 287 631 323 663 363 663 c 0
 404 663 433 631 428 590 c 0
198 248 m 0
 193 207 156 175 115 175 c 0
 75 175 47 207 52 248 c 0
 57 289 93 321 133 321 c 0
 174 321 203 289 198 248 c 0
EndSplineSet
EndChar

StartChar: B
Encoding: 66 66 80
Width: 623
Flags: MW
HStem: 175 146<110 132.5> 346 146<319 341.5> 517 146<340 362.5>
LayerCount: 2
Fore
SplineSet
425 590 m 0
 420 549 383 517 342 517 c 0
 302 517 274 549 279 590 c 0
 284 631 320 663 360 663 c 0
 401 663 430 631 425 590 c 0
195 248 m 0
 190 207 153 175 112 175 c 0
 72 175 44 207 49 248 c 0
 54 289 90 321 130 321 c 0
 171 321 200 289 195 248 c 0
404 419 m 0
 399 378 362 346 321 346 c 0
 281 346 253 378 258 419 c 0
 263 460 299 492 339 492 c 0
 380 492 409 460 404 419 c 0
EndSplineSet
EndChar

StartChar: C
Encoding: 67 67 81
Width: 631
Flags: W
HStem: 175 146<118 140.5> 516 146<544 566.5> 517 146<348 370.5>
LayerCount: 2
Fore
SplineSet
433 590 m 0xa0
 428 549 391 517 350 517 c 0
 310 517 282 549 287 590 c 0
 292 631 328 663 368 663 c 0
 409 663 438 631 433 590 c 0xa0
203 248 m 0
 198 207 161 175 120 175 c 0
 80 175 52 207 57 248 c 0
 62 289 98 321 138 321 c 0
 179 321 208 289 203 248 c 0
629 589 m 0
 624 548 587 516 546 516 c 0
 506 516 478 548 483 589 c 0
 488 630 524 662 564 662 c 0xc0
 605 662 634 630 629 589 c 0
EndSplineSet
EndChar

StartChar: D
Encoding: 68 68 82
Width: 622
Flags: W
HStem: 175 146<109 131.5> 345 146<514 536.5> 516 146<535 557.5> 517 146<339 361.5>
LayerCount: 2
Fore
SplineSet
599 418 m 0xe0
 594 377 557 345 516 345 c 0
 476 345 448 377 453 418 c 0
 458 459 494 491 534 491 c 0
 575 491 604 459 599 418 c 0xe0
194 248 m 0
 189 207 152 175 111 175 c 0
 71 175 43 207 48 248 c 0
 53 289 89 321 129 321 c 0
 170 321 199 289 194 248 c 0
620 589 m 0
 615 548 578 516 537 516 c 0
 497 516 469 548 474 589 c 0
 479 630 515 662 555 662 c 0
 596 662 625 630 620 589 c 0
424 590 m 0
 419 549 382 517 341 517 c 0
 301 517 273 549 278 590 c 0
 283 631 319 663 359 663 c 0xd0
 400 663 429 631 424 590 c 0
EndSplineSet
EndChar

StartChar: E
Encoding: 69 69 83
Width: 628
Flags: MW
HStem: 175 146<115 137.5> 345 146<520 542.5> 517 146<345 367.5>
LayerCount: 2
Fore
SplineSet
430 590 m 0
 425 549 388 517 347 517 c 0
 307 517 279 549 284 590 c 0
 289 631 325 663 365 663 c 0
 406 663 435 631 430 590 c 0
200 248 m 0
 195 207 158 175 117 175 c 0
 77 175 49 207 54 248 c 0
 59 289 95 321 135 321 c 0
 176 321 205 289 200 248 c 0
605 418 m 0
 600 377 563 345 522 345 c 0
 482 345 454 377 459 418 c 0
 464 459 500 491 540 491 c 0
 581 491 610 459 605 418 c 0
EndSplineSet
EndChar

StartChar: F
Encoding: 70 70 84
Width: 626
Flags: W
HStem: 175 146<113 135.5> 346 146<322 344.5> 516 146<539 561.5> 517 146<343 365.5>
LayerCount: 2
Fore
SplineSet
407 419 m 0xe0
 402 378 365 346 324 346 c 0
 284 346 256 378 261 419 c 0
 266 460 302 492 342 492 c 0
 383 492 412 460 407 419 c 0xe0
198 248 m 0
 193 207 156 175 115 175 c 0
 75 175 47 207 52 248 c 0
 57 289 93 321 133 321 c 0
 174 321 203 289 198 248 c 0
624 589 m 0
 619 548 582 516 541 516 c 0
 501 516 473 548 478 589 c 0
 483 630 519 662 559 662 c 0
 600 662 629 630 624 589 c 0
428 590 m 0
 423 549 386 517 345 517 c 0
 305 517 277 549 282 590 c 0
 287 631 323 663 363 663 c 0xd0
 404 663 433 631 428 590 c 0
EndSplineSet
EndChar

StartChar: G
Encoding: 71 71 85
Width: 628
Flags: W
HStem: 175 146<115 137.5> 345 146<520 542.5> 346 146<324 346.5> 516 146<541 563.5> 517 146<345 367.5>
LayerCount: 2
Fore
SplineSet
605 418 m 0xd0
 600 377 563 345 522 345 c 0
 482 345 454 377 459 418 c 0
 464 459 500 491 540 491 c 0
 581 491 610 459 605 418 c 0xd0
200 248 m 0
 195 207 158 175 117 175 c 0
 77 175 49 207 54 248 c 0
 59 289 95 321 135 321 c 0
 176 321 205 289 200 248 c 0
626 589 m 0
 621 548 584 516 543 516 c 0
 503 516 475 548 480 589 c 0
 485 630 521 662 561 662 c 0
 602 662 631 630 626 589 c 0
430 590 m 0
 425 549 388 517 347 517 c 0
 307 517 279 549 284 590 c 0
 289 631 325 663 365 663 c 0xa8
 406 663 435 631 430 590 c 0
409 419 m 0
 404 378 367 346 326 346 c 0
 286 346 258 378 263 419 c 0
 268 460 304 492 344 492 c 0
 385 492 414 460 409 419 c 0
EndSplineSet
EndChar

StartChar: H
Encoding: 72 72 86
Width: 622
Flags: W
HStem: 175 146<109 131.5> 345 146<514 536.5> 346 146<318 340.5> 517 146<339 361.5>
LayerCount: 2
Fore
SplineSet
403 419 m 0xb0
 398 378 361 346 320 346 c 0
 280 346 252 378 257 419 c 0
 262 460 298 492 338 492 c 0
 379 492 408 460 403 419 c 0xb0
194 248 m 0
 189 207 152 175 111 175 c 0
 71 175 43 207 48 248 c 0
 53 289 89 321 129 321 c 0
 170 321 199 289 194 248 c 0
599 418 m 0
 594 377 557 345 516 345 c 0
 476 345 448 377 453 418 c 0
 458 459 494 491 534 491 c 0xd0
 575 491 604 459 599 418 c 0
424 590 m 0
 419 549 382 517 341 517 c 0
 301 517 273 549 278 590 c 0
 283 631 319 663 359 663 c 0
 400 663 429 631 424 590 c 0
EndSplineSet
EndChar

StartChar: I
Encoding: 73 73 87
Width: 627
Flags: MW
HStem: 175 146<114 136.5> 346 146<323 345.5> 516 146<540 562.5>
LayerCount: 2
Fore
SplineSet
625 589 m 0
 620 548 583 516 542 516 c 0
 502 516 474 548 479 589 c 0
 484 630 520 662 560 662 c 0
 601 662 630 630 625 589 c 0
199 248 m 0
 194 207 157 175 116 175 c 0
 76 175 48 207 53 248 c 0
 58 289 94 321 134 321 c 0
 175 321 204 289 199 248 c 0
408 419 m 0
 403 378 366 346 325 346 c 0
 285 346 257 378 262 419 c 0
 267 460 303 492 343 492 c 0
 384 492 413 460 408 419 c 0
EndSplineSet
EndChar

StartChar: J
Encoding: 74 74 88
Width: 631
Flags: W
HStem: 175 146<118 140.5> 345 146<523 545.5> 346 146<327 349.5> 516 146<544 566.5>
LayerCount: 2
Fore
SplineSet
412 419 m 0xb0
 407 378 370 346 329 346 c 0
 289 346 261 378 266 419 c 0
 271 460 307 492 347 492 c 0
 388 492 417 460 412 419 c 0xb0
203 248 m 0
 198 207 161 175 120 175 c 0
 80 175 52 207 57 248 c 0
 62 289 98 321 138 321 c 0
 179 321 208 289 203 248 c 0
608 418 m 0
 603 377 566 345 525 345 c 0
 485 345 457 377 462 418 c 0
 467 459 503 491 543 491 c 0xd0
 584 491 613 459 608 418 c 0
629 589 m 0
 624 548 587 516 546 516 c 0
 506 516 478 548 483 589 c 0
 488 630 524 662 564 662 c 0
 605 662 634 630 629 589 c 0
EndSplineSet
EndChar

StartChar: K
Encoding: 75 75 89
Width: 623
Flags: W
HStem: 174 146<299 321.5> 175 146<110 132.5> 517 146<340 362.5>
LayerCount: 2
Fore
SplineSet
425 590 m 0x60
 420 549 383 517 342 517 c 0
 302 517 274 549 279 590 c 0
 284 631 320 663 360 663 c 0
 401 663 430 631 425 590 c 0x60
195 248 m 0
 190 207 153 175 112 175 c 0
 72 175 44 207 49 248 c 0
 54 289 90 321 130 321 c 0
 171 321 200 289 195 248 c 0
384 247 m 0
 379 206 342 174 301 174 c 0
 261 174 233 206 238 247 c 0
 243 288 279 320 319 320 c 0xa0
 360 320 389 288 384 247 c 0
EndSplineSet
EndChar

StartChar: L
Encoding: 76 76 90
Width: 624
Flags: W
HStem: 174 146<300 322.5> 175 146<111 133.5> 346 146<320 342.5> 517 146<341 363.5>
LayerCount: 2
Fore
SplineSet
405 419 m 0x70
 400 378 363 346 322 346 c 0
 282 346 254 378 259 419 c 0
 264 460 300 492 340 492 c 0
 381 492 410 460 405 419 c 0x70
196 248 m 0
 191 207 154 175 113 175 c 0
 73 175 45 207 50 248 c 0
 55 289 91 321 131 321 c 0
 172 321 201 289 196 248 c 0
385 247 m 0
 380 206 343 174 302 174 c 0
 262 174 234 206 239 247 c 0
 244 288 280 320 320 320 c 0xb0
 361 320 390 288 385 247 c 0
426 590 m 0
 421 549 384 517 343 517 c 0
 303 517 275 549 280 590 c 0
 285 631 321 663 361 663 c 0
 402 663 431 631 426 590 c 0
EndSplineSet
EndChar

StartChar: M
Encoding: 77 77 91
Width: 625
Flags: W
HStem: 174 146<301 323.5> 175 146<112 134.5> 516 146<538 560.5> 517 146<342 364.5>
LayerCount: 2
Fore
SplineSet
623 589 m 0x60
 618 548 581 516 540 516 c 0
 500 516 472 548 477 589 c 0
 482 630 518 662 558 662 c 0
 599 662 628 630 623 589 c 0x60
197 248 m 0
 192 207 155 175 114 175 c 0
 74 175 46 207 51 248 c 0
 56 289 92 321 132 321 c 0
 173 321 202 289 197 248 c 0
386 247 m 0
 381 206 344 174 303 174 c 0
 263 174 235 206 240 247 c 0
 245 288 281 320 321 320 c 0x90
 362 320 391 288 386 247 c 0
427 590 m 0
 422 549 385 517 344 517 c 0
 304 517 276 549 281 590 c 0
 286 631 322 663 362 663 c 0
 403 663 432 631 427 590 c 0
EndSplineSet
EndChar

StartChar: N
Encoding: 78 78 92
Width: 626
Flags: W
HStem: 174 146<302 324.5> 175 146<113 135.5> 345 146<518 540.5> 516 146<539 561.5> 517 146<343 365.5>
LayerCount: 2
Fore
SplineSet
624 589 m 0x70
 619 548 582 516 541 516 c 0
 501 516 473 548 478 589 c 0
 483 630 519 662 559 662 c 0
 600 662 629 630 624 589 c 0x70
198 248 m 0
 193 207 156 175 115 175 c 0
 75 175 47 207 52 248 c 0
 57 289 93 321 133 321 c 0
 174 321 203 289 198 248 c 0
387 247 m 0
 382 206 345 174 304 174 c 0
 264 174 236 206 241 247 c 0
 246 288 282 320 322 320 c 0xa8
 363 320 392 288 387 247 c 0
428 590 m 0
 423 549 386 517 345 517 c 0
 305 517 277 549 282 590 c 0
 287 631 323 663 363 663 c 0
 404 663 433 631 428 590 c 0
603 418 m 0
 598 377 561 345 520 345 c 0
 480 345 452 377 457 418 c 0
 462 459 498 491 538 491 c 0
 579 491 608 459 603 418 c 0
EndSplineSet
EndChar

StartChar: O
Encoding: 79 79 93
Width: 626
Flags: W
HStem: 174 146<302 324.5> 175 146<113 135.5> 345 146<518 540.5> 517 146<343 365.5>
LayerCount: 2
Fore
SplineSet
603 418 m 0x70
 598 377 561 345 520 345 c 0
 480 345 452 377 457 418 c 0
 462 459 498 491 538 491 c 0
 579 491 608 459 603 418 c 0x70
198 248 m 0
 193 207 156 175 115 175 c 0
 75 175 47 207 52 248 c 0
 57 289 93 321 133 321 c 0
 174 321 203 289 198 248 c 0
387 247 m 0
 382 206 345 174 304 174 c 0
 264 174 236 206 241 247 c 0
 246 288 282 320 322 320 c 0xb0
 363 320 392 288 387 247 c 0
428 590 m 0
 423 549 386 517 345 517 c 0
 305 517 277 549 282 590 c 0
 287 631 323 663 363 663 c 0
 404 663 433 631 428 590 c 0
EndSplineSet
EndChar

StartChar: P
Encoding: 80 80 94
Width: 626
Flags: W
HStem: 174 146<302 324.5> 175 146<113 135.5> 346 146<322 344.5> 516 146<539 561.5> 517 146<343 365.5>
LayerCount: 2
Fore
SplineSet
624 589 m 0x70
 619 548 582 516 541 516 c 0
 501 516 473 548 478 589 c 0
 483 630 519 662 559 662 c 0
 600 662 629 630 624 589 c 0x70
198 248 m 0
 193 207 156 175 115 175 c 0
 75 175 47 207 52 248 c 0
 57 289 93 321 133 321 c 0
 174 321 203 289 198 248 c 0
387 247 m 0
 382 206 345 174 304 174 c 0
 264 174 236 206 241 247 c 0
 246 288 282 320 322 320 c 0xa8
 363 320 392 288 387 247 c 0
428 590 m 0
 423 549 386 517 345 517 c 0
 305 517 277 549 282 590 c 0
 287 631 323 663 363 663 c 0
 404 663 433 631 428 590 c 0
407 419 m 0
 402 378 365 346 324 346 c 0
 284 346 256 378 261 419 c 0
 266 460 302 492 342 492 c 0
 383 492 412 460 407 419 c 0
EndSplineSet
EndChar

StartChar: Q
Encoding: 81 81 95
Width: 626
Flags: W
HStem: 174 146<302 324.5> 175 146<113 135.5> 345 146<518 540.5> 346 146<322 344.5> 516 146<539 561.5> 517 146<343 365.5>
LayerCount: 2
Fore
SplineSet
624 589 m 0x68
 619 548 582 516 541 516 c 0
 501 516 473 548 478 589 c 0
 483 630 519 662 559 662 c 0
 600 662 629 630 624 589 c 0x68
198 248 m 0
 193 207 156 175 115 175 c 0
 75 175 47 207 52 248 c 0
 57 289 93 321 133 321 c 0
 174 321 203 289 198 248 c 0
387 247 m 0
 382 206 345 174 304 174 c 0
 264 174 236 206 241 247 c 0
 246 288 282 320 322 320 c 0x94
 363 320 392 288 387 247 c 0
428 590 m 0
 423 549 386 517 345 517 c 0
 305 517 277 549 282 590 c 0
 287 631 323 663 363 663 c 0
 404 663 433 631 428 590 c 0
407 419 m 0
 402 378 365 346 324 346 c 0
 284 346 256 378 261 419 c 0
 266 460 302 492 342 492 c 0
 383 492 412 460 407 419 c 0
603 418 m 0
 598 377 561 345 520 345 c 0
 480 345 452 377 457 418 c 0
 462 459 498 491 538 491 c 0xa8
 579 491 608 459 603 418 c 0
EndSplineSet
EndChar

StartChar: R
Encoding: 82 82 96
Width: 629
Flags: W
HStem: 174 146<305 327.5> 175 146<116 138.5> 345 146<521 543.5> 346 146<325 347.5> 517 146<346 368.5>
LayerCount: 2
Fore
SplineSet
606 418 m 0x68
 601 377 564 345 523 345 c 0
 483 345 455 377 460 418 c 0
 465 459 501 491 541 491 c 0
 582 491 611 459 606 418 c 0x68
201 248 m 0
 196 207 159 175 118 175 c 0
 78 175 50 207 55 248 c 0
 60 289 96 321 136 321 c 0
 177 321 206 289 201 248 c 0
390 247 m 0
 385 206 348 174 307 174 c 0
 267 174 239 206 244 247 c 0
 249 288 285 320 325 320 c 0x98
 366 320 395 288 390 247 c 0
431 590 m 0
 426 549 389 517 348 517 c 0
 308 517 280 549 285 590 c 0
 290 631 326 663 366 663 c 0
 407 663 436 631 431 590 c 0
410 419 m 0
 405 378 368 346 327 346 c 0
 287 346 259 378 264 419 c 0
 269 460 305 492 345 492 c 0
 386 492 415 460 410 419 c 0
EndSplineSet
EndChar

StartChar: S
Encoding: 83 83 97
Width: 627
Flags: W
HStem: 174 146<303 325.5> 175 146<114 136.5> 346 146<323 345.5> 516 146<540 562.5>
LayerCount: 2
Fore
SplineSet
408 419 m 0x70
 403 378 366 346 325 346 c 0
 285 346 257 378 262 419 c 0
 267 460 303 492 343 492 c 0
 384 492 413 460 408 419 c 0x70
199 248 m 0
 194 207 157 175 116 175 c 0
 76 175 48 207 53 248 c 0
 58 289 94 321 134 321 c 0
 175 321 204 289 199 248 c 0
625 589 m 0
 620 548 583 516 542 516 c 0
 502 516 474 548 479 589 c 0
 484 630 520 662 560 662 c 0
 601 662 630 630 625 589 c 0
388 247 m 0
 383 206 346 174 305 174 c 0
 265 174 237 206 242 247 c 0
 247 288 283 320 323 320 c 0xb0
 364 320 393 288 388 247 c 0
EndSplineSet
EndChar

StartChar: T
Encoding: 84 84 98
Width: 628
Flags: W
HStem: 174 146<304 326.5> 175 146<115 137.5> 345 146<520 542.5> 346 146<324 346.5> 516 146<541 563.5>
LayerCount: 2
Fore
SplineSet
605 418 m 0x68
 600 377 563 345 522 345 c 0
 482 345 454 377 459 418 c 0
 464 459 500 491 540 491 c 0
 581 491 610 459 605 418 c 0x68
200 248 m 0
 195 207 158 175 117 175 c 0
 77 175 49 207 54 248 c 0
 59 289 95 321 135 321 c 0
 176 321 205 289 200 248 c 0
626 589 m 0
 621 548 584 516 543 516 c 0
 503 516 475 548 480 589 c 0
 485 630 521 662 561 662 c 0
 602 662 631 630 626 589 c 0
389 247 m 0
 384 206 347 174 306 174 c 0
 266 174 238 206 243 247 c 0
 248 288 284 320 324 320 c 0x98
 365 320 394 288 389 247 c 0
409 419 m 0
 404 378 367 346 326 346 c 0
 286 346 258 378 263 419 c 0
 268 460 304 492 344 492 c 0
 385 492 414 460 409 419 c 0
EndSplineSet
EndChar

StartChar: U
Encoding: 85 85 99
Width: 626
Flags: W
HStem: 173 146<498 520.5> 174 146<302 324.5> 175 146<113 135.5> 517 146<343 365.5>
LayerCount: 2
Fore
SplineSet
583 246 m 0x90
 578 205 541 173 500 173 c 0
 460 173 432 205 437 246 c 0
 442 287 478 319 518 319 c 0
 559 319 588 287 583 246 c 0x90
198 248 m 0
 193 207 156 175 115 175 c 0
 75 175 47 207 52 248 c 0
 57 289 93 321 133 321 c 0x30
 174 321 203 289 198 248 c 0
387 247 m 0
 382 206 345 174 304 174 c 0
 264 174 236 206 241 247 c 0
 246 288 282 320 322 320 c 0x50
 363 320 392 288 387 247 c 0
428 590 m 0
 423 549 386 517 345 517 c 0
 305 517 277 549 282 590 c 0
 287 631 323 663 363 663 c 0
 404 663 433 631 428 590 c 0
EndSplineSet
EndChar

StartChar: V
Encoding: 86 86 100
Width: 627
Flags: W
HStem: 173 146<499 521.5> 174 146<303 325.5> 175 146<114 136.5> 346 146<323 345.5> 517 146<344 366.5>
LayerCount: 2
Fore
SplineSet
584 246 m 0x98
 579 205 542 173 501 173 c 0
 461 173 433 205 438 246 c 0
 443 287 479 319 519 319 c 0
 560 319 589 287 584 246 c 0x98
199 248 m 0
 194 207 157 175 116 175 c 0
 76 175 48 207 53 248 c 0
 58 289 94 321 134 321 c 0x38
 175 321 204 289 199 248 c 0
388 247 m 0
 383 206 346 174 305 174 c 0
 265 174 237 206 242 247 c 0
 247 288 283 320 323 320 c 0x58
 364 320 393 288 388 247 c 0
429 590 m 0
 424 549 387 517 346 517 c 0
 306 517 278 549 283 590 c 0
 288 631 324 663 364 663 c 0
 405 663 434 631 429 590 c 0
408 419 m 0
 403 378 366 346 325 346 c 0
 285 346 257 378 262 419 c 0
 267 460 303 492 343 492 c 0
 384 492 413 460 408 419 c 0
EndSplineSet
EndChar

StartChar: W
Encoding: 87 87 101
Width: 628
Flags: W
HStem: 173 146<500 522.5> 175 146<115 137.5> 345 146<520 542.5> 346 146<324 346.5> 516 146<541 563.5>
LayerCount: 2
Fore
SplineSet
585 246 m 0xa8
 580 205 543 173 502 173 c 0
 462 173 434 205 439 246 c 0
 444 287 480 319 520 319 c 0
 561 319 590 287 585 246 c 0xa8
200 248 m 0
 195 207 158 175 117 175 c 0
 77 175 49 207 54 248 c 0
 59 289 95 321 135 321 c 0x68
 176 321 205 289 200 248 c 0
605 418 m 0
 600 377 563 345 522 345 c 0
 482 345 454 377 459 418 c 0
 464 459 500 491 540 491 c 0
 581 491 610 459 605 418 c 0
626 589 m 0
 621 548 584 516 543 516 c 0
 503 516 475 548 480 589 c 0
 485 630 521 662 561 662 c 0
 602 662 631 630 626 589 c 0
409 419 m 0
 404 378 367 346 326 346 c 0
 286 346 258 378 263 419 c 0
 268 460 304 492 344 492 c 0x98
 385 492 414 460 409 419 c 0
EndSplineSet
EndChar

StartChar: X
Encoding: 88 88 102
Width: 625
Flags: W
HStem: 173 146<497 519.5> 174 146<301 323.5> 175 146<112 134.5> 516 146<538 560.5> 517 146<342 364.5>
LayerCount: 2
Fore
SplineSet
623 589 m 0x30
 618 548 581 516 540 516 c 0
 500 516 472 548 477 589 c 0
 482 630 518 662 558 662 c 0
 599 662 628 630 623 589 c 0x30
197 248 m 0
 192 207 155 175 114 175 c 0
 74 175 46 207 51 248 c 0
 56 289 92 321 132 321 c 0
 173 321 202 289 197 248 c 0
386 247 m 0
 381 206 344 174 303 174 c 0
 263 174 235 206 240 247 c 0
 245 288 281 320 321 320 c 0x48
 362 320 391 288 386 247 c 0
427 590 m 0
 422 549 385 517 344 517 c 0
 304 517 276 549 281 590 c 0
 286 631 322 663 362 663 c 0
 403 663 432 631 427 590 c 0
582 246 m 0
 577 205 540 173 499 173 c 0
 459 173 431 205 436 246 c 0
 441 287 477 319 517 319 c 0x90
 558 319 587 287 582 246 c 0
EndSplineSet
EndChar

StartChar: Y
Encoding: 89 89 103
Width: 623
Flags: W
HStem: 173 146<495 517.5> 174 146<299 321.5> 175 146<110 132.5> 345 146<515 537.5> 516 146<536 558.5> 517 146<340 362.5>
LayerCount: 2
Fore
SplineSet
621 589 m 0x38
 616 548 579 516 538 516 c 0
 498 516 470 548 475 589 c 0
 480 630 516 662 556 662 c 0
 597 662 626 630 621 589 c 0x38
195 248 m 0
 190 207 153 175 112 175 c 0
 72 175 44 207 49 248 c 0
 54 289 90 321 130 321 c 0
 171 321 200 289 195 248 c 0
384 247 m 0
 379 206 342 174 301 174 c 0
 261 174 233 206 238 247 c 0
 243 288 279 320 319 320 c 0x54
 360 320 389 288 384 247 c 0
425 590 m 0
 420 549 383 517 342 517 c 0
 302 517 274 549 279 590 c 0
 284 631 320 663 360 663 c 0
 401 663 430 631 425 590 c 0
580 246 m 0
 575 205 538 173 497 173 c 0
 457 173 429 205 434 246 c 0
 439 287 475 319 515 319 c 0x98
 556 319 585 287 580 246 c 0
600 418 m 0
 595 377 558 345 517 345 c 0
 477 345 449 377 454 418 c 0
 459 459 495 491 535 491 c 0
 576 491 605 459 600 418 c 0
EndSplineSet
EndChar

StartChar: Z
Encoding: 90 90 104
Width: 623
Flags: W
HStem: 173 146<495 517.5> 174 146<299 321.5> 175 146<110 132.5> 345 146<515 537.5> 517 146<340 362.5>
LayerCount: 2
Fore
SplineSet
600 418 m 0x38
 595 377 558 345 517 345 c 0
 477 345 449 377 454 418 c 0
 459 459 495 491 535 491 c 0
 576 491 605 459 600 418 c 0x38
195 248 m 0
 190 207 153 175 112 175 c 0
 72 175 44 207 49 248 c 0
 54 289 90 321 130 321 c 0
 171 321 200 289 195 248 c 0
384 247 m 0
 379 206 342 174 301 174 c 0
 261 174 233 206 238 247 c 0
 243 288 279 320 319 320 c 0x58
 360 320 389 288 384 247 c 0
425 590 m 0
 420 549 383 517 342 517 c 0
 302 517 274 549 279 590 c 0
 284 631 320 663 360 663 c 0
 401 663 430 631 425 590 c 0
580 246 m 0
 575 205 538 173 497 173 c 0
 457 173 429 205 434 246 c 0
 439 287 475 319 515 319 c 0x98
 556 319 585 287 580 246 c 0
EndSplineSet
EndChar

StartChar: grave
Encoding: 193 96 105
Width: 444
Flags: MW
HStem: 346 146<140 162.5>
LayerCount: 2
Fore
SplineSet
225 419 m 0
 230 460 201 492 160 492 c 0
 120 492 84 460 79 419 c 0
 74 378 102 346 142 346 c 0
 183 346 220 378 225 419 c 0
EndSplineSet
EndChar

StartChar: acute
Encoding: 194 180 106
Width: 444
Flags: MW
HStem: 174 146<120 142.5>
LayerCount: 2
Fore
SplineSet
205 247 m 0
 210 288 181 320 140 320 c 0
 100 320 64 288 59 247 c 0
 54 206 82 174 122 174 c 0
 163 174 200 206 205 247 c 0
EndSplineSet
EndChar

StartChar: circumflex
Encoding: 195 710 107
Width: 444
Flags: MW
HStem: 174 146<120 142.5> 346 146<140 162.5>
LayerCount: 2
Fore
SplineSet
205 247 m 0
 210 288 181 320 140 320 c 0
 100 320 64 288 59 247 c 0
 54 206 82 174 122 174 c 0
 163 174 200 206 205 247 c 0
225 419 m 0
 230 460 201 492 160 492 c 0
 120 492 84 460 79 419 c 0
 74 378 102 346 142 346 c 0
 183 346 220 378 225 419 c 0
EndSplineSet
EndChar

StartChar: tilde
Encoding: 196 732 108
Width: 444
Flags: MW
HStem: 516 146<357 379.5>
LayerCount: 2
Fore
SplineSet
442 589 m 0
 447 630 418 662 377 662 c 0
 337 662 301 630 296 589 c 0
 291 548 319 516 359 516 c 0
 400 516 437 548 442 589 c 0
EndSplineSet
EndChar

StartChar: macron
Encoding: 197 175 109
Width: 444
Flags: MW
HStem: 174 146<120 142.5> 516 146<357 379.5>
LayerCount: 2
Fore
SplineSet
205 247 m 0
 210 288 181 320 140 320 c 0
 100 320 64 288 59 247 c 0
 54 206 82 174 122 174 c 0
 163 174 200 206 205 247 c 0
442 589 m 0
 447 630 418 662 377 662 c 0
 337 662 301 630 296 589 c 0
 291 548 319 516 359 516 c 0
 400 516 437 548 442 589 c 0
EndSplineSet
EndChar

StartChar: breve
Encoding: 198 728 110
Width: 444
Flags: MW
HStem: 345 146<336 358.5>
LayerCount: 2
Fore
SplineSet
421 418 m 0
 426 459 397 491 356 491 c 0
 316 491 280 459 275 418 c 0
 270 377 298 345 338 345 c 0
 379 345 416 377 421 418 c 0
EndSplineSet
EndChar

StartChar: dotaccent
Encoding: 199 729 111
Width: 444
Flags: W
HStem: 345 146<336 358.5> 346 146<140 162.5>
LayerCount: 2
Fore
SplineSet
421 418 m 0x40
 426 459 397 491 356 491 c 0
 316 491 280 459 275 418 c 0
 270 377 298 345 338 345 c 0
 379 345 416 377 421 418 c 0x40
225 419 m 0
 230 460 201 492 160 492 c 0
 120 492 84 460 79 419 c 0
 74 378 102 346 142 346 c 0x80
 183 346 220 378 225 419 c 0
EndSplineSet
EndChar

StartChar: dieresis
Encoding: 200 168 112
Width: 444
Flags: MW
HStem: 174 146<120 142.5> 345 146<336 358.5>
LayerCount: 2
Fore
SplineSet
205 247 m 0
 210 288 181 320 140 320 c 0
 100 320 64 288 59 247 c 0
 54 206 82 174 122 174 c 0
 163 174 200 206 205 247 c 0
421 418 m 0
 426 459 397 491 356 491 c 0
 316 491 280 459 275 418 c 0
 270 377 298 345 338 345 c 0
 379 345 416 377 421 418 c 0
EndSplineSet
EndChar

StartChar: ring
Encoding: 202 730 113
Width: 444
Flags: W
HStem: 174 146<120 142.5> 345 146<336 358.5> 346 146<140 162.5>
LayerCount: 2
Fore
SplineSet
225 419 m 0xc0
 230 460 201 492 160 492 c 0
 120 492 84 460 79 419 c 0
 74 378 102 346 142 346 c 0
 183 346 220 378 225 419 c 0xc0
205 247 m 0
 210 288 181 320 140 320 c 0
 100 320 64 288 59 247 c 0
 54 206 82 174 122 174 c 0
 163 174 200 206 205 247 c 0
421 418 m 0
 426 459 397 491 356 491 c 0
 316 491 280 459 275 418 c 0
 270 377 298 345 338 345 c 0xa0
 379 345 416 377 421 418 c 0
EndSplineSet
EndChar

StartChar: cedilla
Encoding: 203 184 114
Width: 444
Flags: MW
HStem: 345 146<336 358.5> 516 146<357 379.5>
LayerCount: 2
Fore
SplineSet
442 589 m 0
 447 630 418 662 377 662 c 0
 337 662 301 630 296 589 c 0
 291 548 319 516 359 516 c 0
 400 516 437 548 442 589 c 0
421 418 m 0
 426 459 397 491 356 491 c 0
 316 491 280 459 275 418 c 0
 270 377 298 345 338 345 c 0
 379 345 416 377 421 418 c 0
EndSplineSet
EndChar

StartChar: hungarumlaut
Encoding: 205 733 115
Width: 444
Flags: MW
HStem: 174 146<120 142.5> 345 146<336 358.5> 516 146<357 379.5>
LayerCount: 2
Fore
SplineSet
421 418 m 0
 426 459 397 491 356 491 c 0
 316 491 280 459 275 418 c 0
 270 377 298 345 338 345 c 0
 379 345 416 377 421 418 c 0
205 247 m 0
 210 288 181 320 140 320 c 0
 100 320 64 288 59 247 c 0
 54 206 82 174 122 174 c 0
 163 174 200 206 205 247 c 0
442 589 m 0
 447 630 418 662 377 662 c 0
 337 662 301 630 296 589 c 0
 291 548 319 516 359 516 c 0
 400 516 437 548 442 589 c 0
EndSplineSet
EndChar

StartChar: ogonek
Encoding: 206 731 116
Width: 444
Flags: MW
HStem: 173 146<316 338.5>
LayerCount: 2
Fore
SplineSet
401 246 m 0
 406 287 377 319 336 319 c 0
 296 319 260 287 255 246 c 0
 250 205 278 173 318 173 c 0
 359 173 396 205 401 246 c 0
EndSplineSet
EndChar

StartChar: caron
Encoding: 207 711 117
Width: 444
Flags: MW
HStem: 173 146<316 338.5> 517 146<161 183.5>
LayerCount: 2
Fore
SplineSet
246 590 m 0
 251 631 222 663 181 663 c 0
 141 663 105 631 100 590 c 0
 95 549 123 517 163 517 c 0
 204 517 241 549 246 590 c 0
401 246 m 0
 406 287 377 319 336 319 c 0
 296 319 260 287 255 246 c 0
 250 205 278 173 318 173 c 0
 359 173 396 205 401 246 c 0
EndSplineSet
EndChar

StartChar: dotlessi
Encoding: 245 305 118
Width: 444
Flags: MW
HStem: 173 146<316 338.5> 346 146<140 162.5>
LayerCount: 2
Fore
SplineSet
225 419 m 0
 230 460 201 492 160 492 c 0
 120 492 84 460 79 419 c 0
 74 378 102 346 142 346 c 0
 183 346 220 378 225 419 c 0
401 246 m 0
 406 287 377 319 336 319 c 0
 296 319 260 287 255 246 c 0
 250 205 278 173 318 173 c 0
 359 173 396 205 401 246 c 0
EndSplineSet
EndChar

StartChar: exclam
Encoding: 33 33 119
Width: 444
Flags: MW
HStem: 173 146<316 338.5> 346 146<140 162.5> 517 146<161 183.5>
LayerCount: 2
Fore
SplineSet
401 246 m 0
 406 287 377 319 336 319 c 0
 296 319 260 287 255 246 c 0
 250 205 278 173 318 173 c 0
 359 173 396 205 401 246 c 0
246 590 m 0
 251 631 222 663 181 663 c 0
 141 663 105 631 100 590 c 0
 95 549 123 517 163 517 c 0
 204 517 241 549 246 590 c 0
225 419 m 0
 230 460 201 492 160 492 c 0
 120 492 84 460 79 419 c 0
 74 378 102 346 142 346 c 0
 183 346 220 378 225 419 c 0
EndSplineSet
EndChar

StartChar: quotedbl
Encoding: 34 34 120
Width: 444
Flags: W
HStem: 173 146<316 338.5> 174 146<120 142.5>
LayerCount: 2
Fore
SplineSet
205 247 m 0x80
 210 288 181 320 140 320 c 0
 100 320 64 288 59 247 c 0
 54 206 82 174 122 174 c 0
 163 174 200 206 205 247 c 0x80
401 246 m 0
 406 287 377 319 336 319 c 0
 296 319 260 287 255 246 c 0
 250 205 278 173 318 173 c 0x40
 359 173 396 205 401 246 c 0
EndSplineSet
EndChar

StartChar: dollar
Encoding: 36 36 121
Width: 444
Flags: W
HStem: 173 146<316 338.5> 174 146<120 142.5> 346 146<140 162.5>
LayerCount: 2
Fore
SplineSet
401 246 m 0x60
 406 287 377 319 336 319 c 0
 296 319 260 287 255 246 c 0
 250 205 278 173 318 173 c 0
 359 173 396 205 401 246 c 0x60
205 247 m 0
 210 288 181 320 140 320 c 0
 100 320 64 288 59 247 c 0
 54 206 82 174 122 174 c 0
 163 174 200 206 205 247 c 0
225 419 m 0
 230 460 201 492 160 492 c 0
 120 492 84 460 79 419 c 0
 74 378 102 346 142 346 c 0xa0
 183 346 220 378 225 419 c 0
EndSplineSet
EndChar

StartChar: percent
Encoding: 37 37 122
Width: 444
Flags: MW
HStem: 173 146<316 338.5> 516 146<357 379.5>
LayerCount: 2
Fore
SplineSet
442 589 m 0
 447 630 418 662 377 662 c 0
 337 662 301 630 296 589 c 0
 291 548 319 516 359 516 c 0
 400 516 437 548 442 589 c 0
401 246 m 0
 406 287 377 319 336 319 c 0
 296 319 260 287 255 246 c 0
 250 205 278 173 318 173 c 0
 359 173 396 205 401 246 c 0
EndSplineSet
EndChar

StartChar: ampersand
Encoding: 38 38 123
Width: 444
Flags: W
HStem: 173 146<316 338.5> 516 146<357 379.5> 517 146<161 183.5>
LayerCount: 2
Fore
SplineSet
401 246 m 0xc0
 406 287 377 319 336 319 c 0
 296 319 260 287 255 246 c 0
 250 205 278 173 318 173 c 0
 359 173 396 205 401 246 c 0xc0
246 590 m 0
 251 631 222 663 181 663 c 0
 141 663 105 631 100 590 c 0
 95 549 123 517 163 517 c 0xa0
 204 517 241 549 246 590 c 0
442 589 m 0
 447 630 418 662 377 662 c 0
 337 662 301 630 296 589 c 0
 291 548 319 516 359 516 c 0
 400 516 437 548 442 589 c 0
EndSplineSet
EndChar

StartChar: quoteright
Encoding: 39 8217 124
Width: 444
Flags: MW
HStem: 173 146<316 338.5> 346 146<140 162.5> 516 146<357 379.5>
LayerCount: 2
Fore
SplineSet
401 246 m 0
 406 287 377 319 336 319 c 0
 296 319 260 287 255 246 c 0
 250 205 278 173 318 173 c 0
 359 173 396 205 401 246 c 0
442 589 m 0
 447 630 418 662 377 662 c 0
 337 662 301 630 296 589 c 0
 291 548 319 516 359 516 c 0
 400 516 437 548 442 589 c 0
225 419 m 0
 230 460 201 492 160 492 c 0
 120 492 84 460 79 419 c 0
 74 378 102 346 142 346 c 0
 183 346 220 378 225 419 c 0
EndSplineSet
EndChar

StartChar: parenleft
Encoding: 40 40 125
Width: 444
Flags: W
HStem: 173 146<316 338.5> 346 146<140 162.5> 516 146<357 379.5> 517 146<161 183.5>
LayerCount: 2
Fore
SplineSet
401 246 m 0xe0
 406 287 377 319 336 319 c 0
 296 319 260 287 255 246 c 0
 250 205 278 173 318 173 c 0
 359 173 396 205 401 246 c 0xe0
225 419 m 0
 230 460 201 492 160 492 c 0
 120 492 84 460 79 419 c 0
 74 378 102 346 142 346 c 0xd0
 183 346 220 378 225 419 c 0
246 590 m 0
 251 631 222 663 181 663 c 0
 141 663 105 631 100 590 c 0
 95 549 123 517 163 517 c 0
 204 517 241 549 246 590 c 0
442 589 m 0
 447 630 418 662 377 662 c 0
 337 662 301 630 296 589 c 0
 291 548 319 516 359 516 c 0
 400 516 437 548 442 589 c 0
EndSplineSet
EndChar

StartChar: parenright
Encoding: 41 41 126
Width: 444
Flags: W
HStem: 173 146<316 338.5> 174 146<120 142.5> 516 146<357 379.5>
LayerCount: 2
Fore
SplineSet
401 246 m 0x60
 406 287 377 319 336 319 c 0
 296 319 260 287 255 246 c 0
 250 205 278 173 318 173 c 0
 359 173 396 205 401 246 c 0x60
205 247 m 0
 210 288 181 320 140 320 c 0
 100 320 64 288 59 247 c 0
 54 206 82 174 122 174 c 0
 163 174 200 206 205 247 c 0
442 589 m 0
 447 630 418 662 377 662 c 0
 337 662 301 630 296 589 c 0
 291 548 319 516 359 516 c 0xa0
 400 516 437 548 442 589 c 0
EndSplineSet
EndChar

StartChar: asterisk
Encoding: 42 42 127
Width: 444
Flags: W
HStem: 173 146<316 338.5> 174 146<120 142.5> 346 146<140 162.5> 516 146<357 379.5>
LayerCount: 2
Fore
SplineSet
401 246 m 0x70
 406 287 377 319 336 319 c 0
 296 319 260 287 255 246 c 0
 250 205 278 173 318 173 c 0
 359 173 396 205 401 246 c 0x70
225 419 m 0
 230 460 201 492 160 492 c 0
 120 492 84 460 79 419 c 0
 74 378 102 346 142 346 c 0
 183 346 220 378 225 419 c 0
205 247 m 0
 210 288 181 320 140 320 c 0
 100 320 64 288 59 247 c 0
 54 206 82 174 122 174 c 0
 163 174 200 206 205 247 c 0
442 589 m 0
 447 630 418 662 377 662 c 0
 337 662 301 630 296 589 c 0
 291 548 319 516 359 516 c 0xb0
 400 516 437 548 442 589 c 0
EndSplineSet
EndChar

StartChar: plus
Encoding: 43 43 128
Width: 444
Flags: W
HStem: 173 146<316 338.5> 174 146<120 142.5> 346 146<140 162.5> 516 146<357 379.5> 517 146<161 183.5>
LayerCount: 2
Fore
SplineSet
442 589 m 0x68
 447 630 418 662 377 662 c 0
 337 662 301 630 296 589 c 0
 291 548 319 516 359 516 c 0
 400 516 437 548 442 589 c 0x68
401 246 m 0
 406 287 377 319 336 319 c 0
 296 319 260 287 255 246 c 0
 250 205 278 173 318 173 c 0
 359 173 396 205 401 246 c 0
225 419 m 0
 230 460 201 492 160 492 c 0
 120 492 84 460 79 419 c 0
 74 378 102 346 142 346 c 0
 183 346 220 378 225 419 c 0
246 590 m 0
 251 631 222 663 181 663 c 0
 141 663 105 631 100 590 c 0
 95 549 123 517 163 517 c 0xb0
 204 517 241 549 246 590 c 0
205 247 m 0
 210 288 181 320 140 320 c 0
 100 320 64 288 59 247 c 0
 54 206 82 174 122 174 c 0
 163 174 200 206 205 247 c 0
EndSplineSet
EndChar

StartChar: comma
Encoding: 44 44 129
Width: 444
Flags: MW
HStem: 173 146<316 338.5> 345 146<336 358.5>
LayerCount: 2
Fore
SplineSet
421 418 m 0
 426 459 397 491 356 491 c 0
 316 491 280 459 275 418 c 0
 270 377 298 345 338 345 c 0
 379 345 416 377 421 418 c 0
401 246 m 0
 406 287 377 319 336 319 c 0
 296 319 260 287 255 246 c 0
 250 205 278 173 318 173 c 0
 359 173 396 205 401 246 c 0
EndSplineSet
EndChar

StartChar: hyphen
Encoding: 45 45 130
Width: 444
Flags: MW
HStem: 173 146<316 338.5> 345 146<336 358.5> 517 146<161 183.5>
LayerCount: 2
Fore
SplineSet
401 246 m 0
 406 287 377 319 336 319 c 0
 296 319 260 287 255 246 c 0
 250 205 278 173 318 173 c 0
 359 173 396 205 401 246 c 0
246 590 m 0
 251 631 222 663 181 663 c 0
 141 663 105 631 100 590 c 0
 95 549 123 517 163 517 c 0
 204 517 241 549 246 590 c 0
421 418 m 0
 426 459 397 491 356 491 c 0
 316 491 280 459 275 418 c 0
 270 377 298 345 338 345 c 0
 379 345 416 377 421 418 c 0
EndSplineSet
EndChar

StartChar: period
Encoding: 46 46 131
Width: 444
Flags: W
HStem: 173 146<316 338.5> 345 146<336 358.5> 346 146<140 162.5>
LayerCount: 2
Fore
SplineSet
401 246 m 0xa0
 406 287 377 319 336 319 c 0
 296 319 260 287 255 246 c 0
 250 205 278 173 318 173 c 0
 359 173 396 205 401 246 c 0xa0
421 418 m 0
 426 459 397 491 356 491 c 0
 316 491 280 459 275 418 c 0
 270 377 298 345 338 345 c 0xc0
 379 345 416 377 421 418 c 0
225 419 m 0
 230 460 201 492 160 492 c 0
 120 492 84 460 79 419 c 0
 74 378 102 346 142 346 c 0
 183 346 220 378 225 419 c 0
EndSplineSet
EndChar

StartChar: slash
Encoding: 47 47 132
Width: 444
Flags: W
HStem: 173 146<316 338.5> 345 146<336 358.5> 346 146<140 162.5> 517 146<161 183.5>
LayerCount: 2
Fore
SplineSet
401 246 m 0xd0
 406 287 377 319 336 319 c 0
 296 319 260 287 255 246 c 0
 250 205 278 173 318 173 c 0
 359 173 396 205 401 246 c 0xd0
225 419 m 0
 230 460 201 492 160 492 c 0
 120 492 84 460 79 419 c 0
 74 378 102 346 142 346 c 0
 183 346 220 378 225 419 c 0
246 590 m 0
 251 631 222 663 181 663 c 0
 141 663 105 631 100 590 c 0
 95 549 123 517 163 517 c 0xb0
 204 517 241 549 246 590 c 0
421 418 m 0
 426 459 397 491 356 491 c 0
 316 491 280 459 275 418 c 0
 270 377 298 345 338 345 c 0
 379 345 416 377 421 418 c 0
EndSplineSet
EndChar

StartChar: zero
Encoding: 48 48 133
Width: 444
Flags: W
HStem: 173 146<316 338.5> 174 146<120 142.5> 345 146<336 358.5>
LayerCount: 2
Fore
SplineSet
401 246 m 0x60
 406 287 377 319 336 319 c 0
 296 319 260 287 255 246 c 0
 250 205 278 173 318 173 c 0
 359 173 396 205 401 246 c 0x60
205 247 m 0
 210 288 181 320 140 320 c 0
 100 320 64 288 59 247 c 0
 54 206 82 174 122 174 c 0
 163 174 200 206 205 247 c 0
421 418 m 0
 426 459 397 491 356 491 c 0
 316 491 280 459 275 418 c 0
 270 377 298 345 338 345 c 0xa0
 379 345 416 377 421 418 c 0
EndSplineSet
EndChar

StartChar: one
Encoding: 49 49 134
Width: 444
Flags: W
HStem: 173 146<316 338.5> 174 146<120 142.5> 345 146<336 358.5> 346 146<140 162.5>
LayerCount: 2
Fore
SplineSet
401 246 m 0x60
 406 287 377 319 336 319 c 0
 296 319 260 287 255 246 c 0
 250 205 278 173 318 173 c 0
 359 173 396 205 401 246 c 0x60
225 419 m 0
 230 460 201 492 160 492 c 0
 120 492 84 460 79 419 c 0
 74 378 102 346 142 346 c 0
 183 346 220 378 225 419 c 0
205 247 m 0
 210 288 181 320 140 320 c 0
 100 320 64 288 59 247 c 0
 54 206 82 174 122 174 c 0x90
 163 174 200 206 205 247 c 0
421 418 m 0
 426 459 397 491 356 491 c 0
 316 491 280 459 275 418 c 0
 270 377 298 345 338 345 c 0
 379 345 416 377 421 418 c 0
EndSplineSet
EndChar

StartChar: two
Encoding: 50 50 135
Width: 444
Flags: W
HStem: 173 146<316 338.5> 174 146<120 142.5> 345 146<336 358.5> 346 146<140 162.5> 517 146<161 183.5>
LayerCount: 2
Fore
SplineSet
421 418 m 0x58
 426 459 397 491 356 491 c 0
 316 491 280 459 275 418 c 0
 270 377 298 345 338 345 c 0
 379 345 416 377 421 418 c 0x58
401 246 m 0
 406 287 377 319 336 319 c 0
 296 319 260 287 255 246 c 0
 250 205 278 173 318 173 c 0
 359 173 396 205 401 246 c 0
225 419 m 0
 230 460 201 492 160 492 c 0
 120 492 84 460 79 419 c 0
 74 378 102 346 142 346 c 0
 183 346 220 378 225 419 c 0
246 590 m 0
 251 631 222 663 181 663 c 0
 141 663 105 631 100 590 c 0
 95 549 123 517 163 517 c 0xa8
 204 517 241 549 246 590 c 0
205 247 m 0
 210 288 181 320 140 320 c 0
 100 320 64 288 59 247 c 0
 54 206 82 174 122 174 c 0
 163 174 200 206 205 247 c 0
EndSplineSet
EndChar

StartChar: three
Encoding: 51 51 136
Width: 444
Flags: MW
HStem: 173 146<316 338.5> 345 146<336 358.5> 516 146<357 379.5>
LayerCount: 2
Fore
SplineSet
401 246 m 0
 406 287 377 319 336 319 c 0
 296 319 260 287 255 246 c 0
 250 205 278 173 318 173 c 0
 359 173 396 205 401 246 c 0
442 589 m 0
 447 630 418 662 377 662 c 0
 337 662 301 630 296 589 c 0
 291 548 319 516 359 516 c 0
 400 516 437 548 442 589 c 0
421 418 m 0
 426 459 397 491 356 491 c 0
 316 491 280 459 275 418 c 0
 270 377 298 345 338 345 c 0
 379 345 416 377 421 418 c 0
EndSplineSet
EndChar

StartChar: four
Encoding: 52 52 137
Width: 444
Flags: W
HStem: 173 146<316 338.5> 345 146<336 358.5> 516 146<357 379.5> 517 146<161 183.5>
LayerCount: 2
Fore
SplineSet
421 418 m 0xe0
 426 459 397 491 356 491 c 0
 316 491 280 459 275 418 c 0
 270 377 298 345 338 345 c 0
 379 345 416 377 421 418 c 0xe0
401 246 m 0
 406 287 377 319 336 319 c 0
 296 319 260 287 255 246 c 0
 250 205 278 173 318 173 c 0xd0
 359 173 396 205 401 246 c 0
246 590 m 0
 251 631 222 663 181 663 c 0
 141 663 105 631 100 590 c 0
 95 549 123 517 163 517 c 0
 204 517 241 549 246 590 c 0
442 589 m 0
 447 630 418 662 377 662 c 0
 337 662 301 630 296 589 c 0
 291 548 319 516 359 516 c 0
 400 516 437 548 442 589 c 0
EndSplineSet
EndChar

StartChar: five
Encoding: 53 53 138
Width: 444
Flags: W
HStem: 173 146<316 338.5> 345 146<336 358.5> 346 146<140 162.5> 516 146<357 379.5> 517 146<161 183.5>
LayerCount: 2
Fore
SplineSet
421 418 m 0xd0
 426 459 397 491 356 491 c 0
 316 491 280 459 275 418 c 0
 270 377 298 345 338 345 c 0
 379 345 416 377 421 418 c 0xd0
401 246 m 0
 406 287 377 319 336 319 c 0
 296 319 260 287 255 246 c 0
 250 205 278 173 318 173 c 0xa8
 359 173 396 205 401 246 c 0
225 419 m 0
 230 460 201 492 160 492 c 0
 120 492 84 460 79 419 c 0
 74 378 102 346 142 346 c 0
 183 346 220 378 225 419 c 0
246 590 m 0
 251 631 222 663 181 663 c 0
 141 663 105 631 100 590 c 0
 95 549 123 517 163 517 c 0
 204 517 241 549 246 590 c 0
442 589 m 0
 447 630 418 662 377 662 c 0
 337 662 301 630 296 589 c 0
 291 548 319 516 359 516 c 0xd0
 400 516 437 548 442 589 c 0
EndSplineSet
EndChar

StartChar: six
Encoding: 54 54 139
Width: 444
Flags: W
HStem: 173 146<316 338.5> 174 146<120 142.5> 345 146<336 358.5> 516 146<357 379.5>
LayerCount: 2
Fore
SplineSet
421 418 m 0x70
 426 459 397 491 356 491 c 0
 316 491 280 459 275 418 c 0
 270 377 298 345 338 345 c 0
 379 345 416 377 421 418 c 0x70
401 246 m 0
 406 287 377 319 336 319 c 0
 296 319 260 287 255 246 c 0
 250 205 278 173 318 173 c 0
 359 173 396 205 401 246 c 0
205 247 m 0
 210 288 181 320 140 320 c 0
 100 320 64 288 59 247 c 0
 54 206 82 174 122 174 c 0xb0
 163 174 200 206 205 247 c 0
442 589 m 0
 447 630 418 662 377 662 c 0
 337 662 301 630 296 589 c 0
 291 548 319 516 359 516 c 0
 400 516 437 548 442 589 c 0
EndSplineSet
EndChar

StartChar: seven
Encoding: 55 55 140
Width: 444
Flags: W
HStem: 173 146<316 338.5> 174 146<120 142.5> 345 146<336 358.5> 346 146<140 162.5> 516 146<357 379.5>
LayerCount: 2
Fore
SplineSet
421 418 m 0x58
 426 459 397 491 356 491 c 0
 316 491 280 459 275 418 c 0
 270 377 298 345 338 345 c 0
 379 345 416 377 421 418 c 0x58
401 246 m 0
 406 287 377 319 336 319 c 0
 296 319 260 287 255 246 c 0
 250 205 278 173 318 173 c 0
 359 173 396 205 401 246 c 0
225 419 m 0
 230 460 201 492 160 492 c 0
 120 492 84 460 79 419 c 0
 74 378 102 346 142 346 c 0
 183 346 220 378 225 419 c 0
205 247 m 0
 210 288 181 320 140 320 c 0
 100 320 64 288 59 247 c 0
 54 206 82 174 122 174 c 0xa8
 163 174 200 206 205 247 c 0
442 589 m 0
 447 630 418 662 377 662 c 0
 337 662 301 630 296 589 c 0
 291 548 319 516 359 516 c 0
 400 516 437 548 442 589 c 0
EndSplineSet
EndChar

StartChar: eight
Encoding: 56 56 141
Width: 444
Flags: W
HStem: 173 146<316 338.5> 174 146<120 142.5> 345 146<336 358.5> 346 146<140 162.5> 516 146<357 379.5> 517 146<161 183.5>
LayerCount: 2
Fore
SplineSet
442 589 m 0x64
 447 630 418 662 377 662 c 0
 337 662 301 630 296 589 c 0
 291 548 319 516 359 516 c 0
 400 516 437 548 442 589 c 0x64
401 246 m 0
 406 287 377 319 336 319 c 0
 296 319 260 287 255 246 c 0
 250 205 278 173 318 173 c 0
 359 173 396 205 401 246 c 0
225 419 m 0
 230 460 201 492 160 492 c 0
 120 492 84 460 79 419 c 0
 74 378 102 346 142 346 c 0
 183 346 220 378 225 419 c 0
421 418 m 0
 426 459 397 491 356 491 c 0
 316 491 280 459 275 418 c 0
 270 377 298 345 338 345 c 0x98
 379 345 416 377 421 418 c 0
246 590 m 0
 251 631 222 663 181 663 c 0
 141 663 105 631 100 590 c 0
 95 549 123 517 163 517 c 0
 204 517 241 549 246 590 c 0
205 247 m 0
 210 288 181 320 140 320 c 0
 100 320 64 288 59 247 c 0
 54 206 82 174 122 174 c 0
 163 174 200 206 205 247 c 0
EndSplineSet
EndChar

StartChar: fraction
Encoding: 164 8260 142
Width: 444
Flags: MW
HStem: 4 146<93 115.5>
LayerCount: 2
Fore
SplineSet
178 77 m 0
 183 118 154 150 113 150 c 0
 73 150 36 118 31 77 c 0
 26 36 55 4 95 4 c 0
 136 4 173 36 178 77 c 0
EndSplineSet
EndChar

StartChar: fi
Encoding: 174 64257 143
Width: 444
Flags: MW
HStem: 4 146<93 115.5> 346 146<140 162.5>
LayerCount: 2
Fore
SplineSet
225 419 m 0
 230 460 201 492 160 492 c 0
 120 492 84 460 79 419 c 0
 74 378 102 346 142 346 c 0
 183 346 220 378 225 419 c 0
178 77 m 0
 183 118 154 150 113 150 c 0
 73 150 36 118 31 77 c 0
 26 36 55 4 95 4 c 0
 136 4 173 36 178 77 c 0
EndSplineSet
EndChar

StartChar: fl
Encoding: 175 64258 144
Width: 444
Flags: MW
HStem: 4 146<93 115.5> 346 146<140 162.5> 517 146<161 183.5>
LayerCount: 2
Fore
SplineSet
225 419 m 0
 230 460 201 492 160 492 c 0
 120 492 84 460 79 419 c 0
 74 378 102 346 142 346 c 0
 183 346 220 378 225 419 c 0
246 590 m 0
 251 631 222 663 181 663 c 0
 141 663 105 631 100 590 c 0
 95 549 123 517 163 517 c 0
 204 517 241 549 246 590 c 0
178 77 m 0
 183 118 154 150 113 150 c 0
 73 150 36 118 31 77 c 0
 26 36 55 4 95 4 c 0
 136 4 173 36 178 77 c 0
EndSplineSet
EndChar

StartChar: Lslash
Encoding: 232 321 145
Width: 444
Flags: MW
HStem: 4 146<93 115.5> 174 146<120 142.5>
LayerCount: 2
Fore
SplineSet
205 247 m 0
 210 288 181 320 140 320 c 0
 100 320 64 288 59 247 c 0
 54 206 82 174 122 174 c 0
 163 174 200 206 205 247 c 0
178 77 m 0
 183 118 154 150 113 150 c 0
 73 150 36 118 31 77 c 0
 26 36 55 4 95 4 c 0
 136 4 173 36 178 77 c 0
EndSplineSet
EndChar

StartChar: lslash
Encoding: 248 322 146
Width: 444
Flags: MW
HStem: 4 146<93 115.5> 174 146<120 142.5> 517 146<161 183.5>
LayerCount: 2
Fore
SplineSet
205 247 m 0
 210 288 181 320 140 320 c 0
 100 320 64 288 59 247 c 0
 54 206 82 174 122 174 c 0
 163 174 200 206 205 247 c 0
246 590 m 0
 251 631 222 663 181 663 c 0
 141 663 105 631 100 590 c 0
 95 549 123 517 163 517 c 0
 204 517 241 549 246 590 c 0
178 77 m 0
 183 118 154 150 113 150 c 0
 73 150 36 118 31 77 c 0
 26 36 55 4 95 4 c 0
 136 4 173 36 178 77 c 0
EndSplineSet
EndChar

StartChar: Zcaron
Encoding: 308 381 147
Width: 444
Flags: MW
HStem: 4 146<93 115.5> 174 146<120 142.5> 346 146<140 162.5>
LayerCount: 2
Fore
SplineSet
225 419 m 0
 230 460 201 492 160 492 c 0
 120 492 84 460 79 419 c 0
 74 378 102 346 142 346 c 0
 183 346 220 378 225 419 c 0
205 247 m 0
 210 288 181 320 140 320 c 0
 100 320 64 288 59 247 c 0
 54 206 82 174 122 174 c 0
 163 174 200 206 205 247 c 0
178 77 m 0
 183 118 154 150 113 150 c 0
 73 150 36 118 31 77 c 0
 26 36 55 4 95 4 c 0
 136 4 173 36 178 77 c 0
EndSplineSet
EndChar

StartChar: zcaron
Encoding: 309 382 148
Width: 444
Flags: MW
HStem: 4 146<93 115.5> 516 146<357 379.5>
LayerCount: 2
Fore
SplineSet
442 589 m 0
 447 630 418 662 377 662 c 0
 337 662 301 630 296 589 c 0
 291 548 319 516 359 516 c 0
 400 516 437 548 442 589 c 0
178 77 m 0
 183 118 154 150 113 150 c 0
 73 150 36 118 31 77 c 0
 26 36 55 4 95 4 c 0
 136 4 173 36 178 77 c 0
EndSplineSet
EndChar

StartChar: nine
Encoding: 57 57 149
Width: 444
Flags: W
HStem: 4 146<93 115.5> 516 146<357 379.5> 517 146<161 183.5>
LayerCount: 2
Fore
SplineSet
442 589 m 0xa0
 447 630 418 662 377 662 c 0
 337 662 301 630 296 589 c 0
 291 548 319 516 359 516 c 0
 400 516 437 548 442 589 c 0xa0
246 590 m 0
 251 631 222 663 181 663 c 0
 141 663 105 631 100 590 c 0
 95 549 123 517 163 517 c 0
 204 517 241 549 246 590 c 0
178 77 m 0
 183 118 154 150 113 150 c 0
 73 150 36 118 31 77 c 0
 26 36 55 4 95 4 c 0xc0
 136 4 173 36 178 77 c 0
EndSplineSet
EndChar

StartChar: colon
Encoding: 58 58 150
Width: 444
Flags: MW
HStem: 4 146<93 115.5> 346 146<140 162.5> 516 146<357 379.5>
LayerCount: 2
Fore
SplineSet
225 419 m 0
 230 460 201 492 160 492 c 0
 120 492 84 460 79 419 c 0
 74 378 102 346 142 346 c 0
 183 346 220 378 225 419 c 0
442 589 m 0
 447 630 418 662 377 662 c 0
 337 662 301 630 296 589 c 0
 291 548 319 516 359 516 c 0
 400 516 437 548 442 589 c 0
178 77 m 0
 183 118 154 150 113 150 c 0
 73 150 36 118 31 77 c 0
 26 36 55 4 95 4 c 0
 136 4 173 36 178 77 c 0
EndSplineSet
EndChar

StartChar: semicolon
Encoding: 59 59 151
Width: 444
Flags: W
HStem: 4 146<93 115.5> 346 146<140 162.5> 516 146<357 379.5> 517 146<161 183.5>
LayerCount: 2
Fore
SplineSet
246 590 m 0xe0
 251 631 222 663 181 663 c 0
 141 663 105 631 100 590 c 0
 95 549 123 517 163 517 c 0
 204 517 241 549 246 590 c 0xe0
225 419 m 0
 230 460 201 492 160 492 c 0
 120 492 84 460 79 419 c 0
 74 378 102 346 142 346 c 0
 183 346 220 378 225 419 c 0
442 589 m 0
 447 630 418 662 377 662 c 0
 337 662 301 630 296 589 c 0
 291 548 319 516 359 516 c 0
 400 516 437 548 442 589 c 0
178 77 m 0
 183 118 154 150 113 150 c 0
 73 150 36 118 31 77 c 0
 26 36 55 4 95 4 c 0xd0
 136 4 173 36 178 77 c 0
EndSplineSet
EndChar

StartChar: less
Encoding: 60 60 152
Width: 444
Flags: MW
HStem: 4 146<93 115.5> 174 146<120 142.5> 516 146<357 379.5>
LayerCount: 2
Fore
SplineSet
442 589 m 0
 447 630 418 662 377 662 c 0
 337 662 301 630 296 589 c 0
 291 548 319 516 359 516 c 0
 400 516 437 548 442 589 c 0
205 247 m 0
 210 288 181 320 140 320 c 0
 100 320 64 288 59 247 c 0
 54 206 82 174 122 174 c 0
 163 174 200 206 205 247 c 0
178 77 m 0
 183 118 154 150 113 150 c 0
 73 150 36 118 31 77 c 0
 26 36 55 4 95 4 c 0
 136 4 173 36 178 77 c 0
EndSplineSet
EndChar

StartChar: equal
Encoding: 61 61 153
Width: 444
Flags: W
HStem: 4 146<93 115.5> 174 146<120 142.5> 516 146<357 379.5> 517 146<161 183.5>
LayerCount: 2
Fore
SplineSet
246 590 m 0xe0
 251 631 222 663 181 663 c 0
 141 663 105 631 100 590 c 0
 95 549 123 517 163 517 c 0
 204 517 241 549 246 590 c 0xe0
442 589 m 0
 447 630 418 662 377 662 c 0
 337 662 301 630 296 589 c 0
 291 548 319 516 359 516 c 0
 400 516 437 548 442 589 c 0
205 247 m 0
 210 288 181 320 140 320 c 0
 100 320 64 288 59 247 c 0
 54 206 82 174 122 174 c 0
 163 174 200 206 205 247 c 0
178 77 m 0
 183 118 154 150 113 150 c 0
 73 150 36 118 31 77 c 0
 26 36 55 4 95 4 c 0xd0
 136 4 173 36 178 77 c 0
EndSplineSet
EndChar

StartChar: greater
Encoding: 62 62 154
Width: 444
Flags: MW
HStem: 4 146<93 115.5> 174 146<120 142.5> 346 146<140 162.5> 516 146<357 379.5>
LayerCount: 2
Fore
SplineSet
205 247 m 0
 210 288 181 320 140 320 c 0
 100 320 64 288 59 247 c 0
 54 206 82 174 122 174 c 0
 163 174 200 206 205 247 c 0
225 419 m 0
 230 460 201 492 160 492 c 0
 120 492 84 460 79 419 c 0
 74 378 102 346 142 346 c 0
 183 346 220 378 225 419 c 0
442 589 m 0
 447 630 418 662 377 662 c 0
 337 662 301 630 296 589 c 0
 291 548 319 516 359 516 c 0
 400 516 437 548 442 589 c 0
178 77 m 0
 183 118 154 150 113 150 c 0
 73 150 36 118 31 77 c 0
 26 36 55 4 95 4 c 0
 136 4 173 36 178 77 c 0
EndSplineSet
EndChar

StartChar: question
Encoding: 63 63 155
Width: 444
Flags: MW
HStem: 4 146<93 115.5> 345 146<336 358.5>
LayerCount: 2
Fore
SplineSet
421 418 m 0
 426 459 397 491 356 491 c 0
 316 491 280 459 275 418 c 0
 270 377 298 345 338 345 c 0
 379 345 416 377 421 418 c 0
178 77 m 0
 183 118 154 150 113 150 c 0
 73 150 36 118 31 77 c 0
 26 36 55 4 95 4 c 0
 136 4 173 36 178 77 c 0
EndSplineSet
EndChar

StartChar: at
Encoding: 64 64 156
Width: 444
Flags: MW
HStem: 4 146<93 115.5> 345 146<336 358.5> 517 146<161 183.5>
LayerCount: 2
Fore
SplineSet
421 418 m 0
 426 459 397 491 356 491 c 0
 316 491 280 459 275 418 c 0
 270 377 298 345 338 345 c 0
 379 345 416 377 421 418 c 0
246 590 m 0
 251 631 222 663 181 663 c 0
 141 663 105 631 100 590 c 0
 95 549 123 517 163 517 c 0
 204 517 241 549 246 590 c 0
178 77 m 0
 183 118 154 150 113 150 c 0
 73 150 36 118 31 77 c 0
 26 36 55 4 95 4 c 0
 136 4 173 36 178 77 c 0
EndSplineSet
EndChar

StartChar: bracketleft
Encoding: 91 91 157
Width: 444
Flags: W
HStem: 4 146<93 115.5> 345 146<336 358.5> 346 146<140 162.5>
LayerCount: 2
Fore
SplineSet
225 419 m 0xc0
 230 460 201 492 160 492 c 0
 120 492 84 460 79 419 c 0
 74 378 102 346 142 346 c 0
 183 346 220 378 225 419 c 0xc0
421 418 m 0
 426 459 397 491 356 491 c 0
 316 491 280 459 275 418 c 0
 270 377 298 345 338 345 c 0
 379 345 416 377 421 418 c 0
178 77 m 0
 183 118 154 150 113 150 c 0
 73 150 36 118 31 77 c 0
 26 36 55 4 95 4 c 0xa0
 136 4 173 36 178 77 c 0
EndSplineSet
EndChar

StartChar: backslash
Encoding: 92 92 158
Width: 444
Flags: W
HStem: 4 146<93 115.5> 345 146<336 358.5> 346 146<140 162.5> 517 146<161 183.5>
LayerCount: 2
Fore
SplineSet
246 590 m 0xd0
 251 631 222 663 181 663 c 0
 141 663 105 631 100 590 c 0
 95 549 123 517 163 517 c 0
 204 517 241 549 246 590 c 0xd0
225 419 m 0
 230 460 201 492 160 492 c 0
 120 492 84 460 79 419 c 0
 74 378 102 346 142 346 c 0
 183 346 220 378 225 419 c 0
421 418 m 0
 426 459 397 491 356 491 c 0
 316 491 280 459 275 418 c 0
 270 377 298 345 338 345 c 0xb0
 379 345 416 377 421 418 c 0
178 77 m 0
 183 118 154 150 113 150 c 0
 73 150 36 118 31 77 c 0
 26 36 55 4 95 4 c 0
 136 4 173 36 178 77 c 0
EndSplineSet
EndChar

StartChar: bracketright
Encoding: 93 93 159
Width: 444
Flags: MW
HStem: 4 146<93 115.5> 174 146<120 142.5> 345 146<336 358.5>
LayerCount: 2
Fore
SplineSet
421 418 m 0
 426 459 397 491 356 491 c 0
 316 491 280 459 275 418 c 0
 270 377 298 345 338 345 c 0
 379 345 416 377 421 418 c 0
205 247 m 0
 210 288 181 320 140 320 c 0
 100 320 64 288 59 247 c 0
 54 206 82 174 122 174 c 0
 163 174 200 206 205 247 c 0
178 77 m 0
 183 118 154 150 113 150 c 0
 73 150 36 118 31 77 c 0
 26 36 55 4 95 4 c 0
 136 4 173 36 178 77 c 0
EndSplineSet
EndChar

StartChar: asciicircum
Encoding: 94 94 160
Width: 444
Flags: MW
HStem: 4 146<93 115.5> 174 146<120 142.5> 345 146<336 358.5> 517 146<161 183.5>
LayerCount: 2
Fore
SplineSet
246 590 m 0
 251 631 222 663 181 663 c 0
 141 663 105 631 100 590 c 0
 95 549 123 517 163 517 c 0
 204 517 241 549 246 590 c 0
421 418 m 0
 426 459 397 491 356 491 c 0
 316 491 280 459 275 418 c 0
 270 377 298 345 338 345 c 0
 379 345 416 377 421 418 c 0
205 247 m 0
 210 288 181 320 140 320 c 0
 100 320 64 288 59 247 c 0
 54 206 82 174 122 174 c 0
 163 174 200 206 205 247 c 0
178 77 m 0
 183 118 154 150 113 150 c 0
 73 150 36 118 31 77 c 0
 26 36 55 4 95 4 c 0
 136 4 173 36 178 77 c 0
EndSplineSet
EndChar

StartChar: underscore
Encoding: 95 95 161
Width: 444
Flags: W
HStem: 4 146<93 115.5> 174 146<120 142.5> 345 146<336 358.5> 346 146<140 162.5>
LayerCount: 2
Fore
SplineSet
205 247 m 0xe0
 210 288 181 320 140 320 c 0
 100 320 64 288 59 247 c 0
 54 206 82 174 122 174 c 0
 163 174 200 206 205 247 c 0xe0
225 419 m 0
 230 460 201 492 160 492 c 0
 120 492 84 460 79 419 c 0
 74 378 102 346 142 346 c 0
 183 346 220 378 225 419 c 0
421 418 m 0
 426 459 397 491 356 491 c 0
 316 491 280 459 275 418 c 0
 270 377 298 345 338 345 c 0xd0
 379 345 416 377 421 418 c 0
178 77 m 0
 183 118 154 150 113 150 c 0
 73 150 36 118 31 77 c 0
 26 36 55 4 95 4 c 0
 136 4 173 36 178 77 c 0
EndSplineSet
EndChar

StartChar: quotesingle
Encoding: 169 39 162
Width: 444
Flags: W
HStem: 4 146<93 115.5> 173 146<316 338.5> 174 146<120 142.5> 346 146<140 162.5> 516 146<357 379.5> 517 146<161 183.5>
LayerCount: 2
Fore
SplineSet
205 247 m 0xd8
 210 288 181 320 140 320 c 0
 100 320 64 288 59 247 c 0
 54 206 82 174 122 174 c 0
 163 174 200 206 205 247 c 0xd8
246 590 m 0
 251 631 222 663 181 663 c 0
 141 663 105 631 100 590 c 0
 95 549 123 517 163 517 c 0
 204 517 241 549 246 590 c 0
401 246 m 0
 406 287 377 319 336 319 c 0
 296 319 260 287 255 246 c 0
 250 205 278 173 318 173 c 0
 359 173 396 205 401 246 c 0
225 419 m 0
 230 460 201 492 160 492 c 0
 120 492 84 460 79 419 c 0
 74 378 102 346 142 346 c 0
 183 346 220 378 225 419 c 0
442 589 m 0
 447 630 418 662 377 662 c 0
 337 662 301 630 296 589 c 0
 291 548 319 516 359 516 c 0xb4
 400 516 437 548 442 589 c 0
178 77 m 0
 183 118 154 150 113 150 c 0
 73 150 36 118 31 77 c 0
 26 36 55 4 95 4 c 0
 136 4 173 36 178 77 c 0
EndSplineSet
EndChar

StartChar: braceleft
Encoding: 123 123 163
Width: 444
Flags: MW
HStem: 4 146<93 115.5> 345 146<336 358.5> 516 146<357 379.5>
LayerCount: 2
Fore
SplineSet
421 418 m 0
 426 459 397 491 356 491 c 0
 316 491 280 459 275 418 c 0
 270 377 298 345 338 345 c 0
 379 345 416 377 421 418 c 0
442 589 m 0
 447 630 418 662 377 662 c 0
 337 662 301 630 296 589 c 0
 291 548 319 516 359 516 c 0
 400 516 437 548 442 589 c 0
178 77 m 0
 183 118 154 150 113 150 c 0
 73 150 36 118 31 77 c 0
 26 36 55 4 95 4 c 0
 136 4 173 36 178 77 c 0
EndSplineSet
EndChar

StartChar: bar
Encoding: 124 124 164
Width: 444
Flags: W
HStem: 4 146<93 115.5> 345 146<336 358.5> 516 146<357 379.5> 517 146<161 183.5>
LayerCount: 2
Fore
SplineSet
246 590 m 0xe0
 251 631 222 663 181 663 c 0
 141 663 105 631 100 590 c 0
 95 549 123 517 163 517 c 0
 204 517 241 549 246 590 c 0xe0
421 418 m 0
 426 459 397 491 356 491 c 0
 316 491 280 459 275 418 c 0
 270 377 298 345 338 345 c 0
 379 345 416 377 421 418 c 0
442 589 m 0
 447 630 418 662 377 662 c 0
 337 662 301 630 296 589 c 0
 291 548 319 516 359 516 c 0
 400 516 437 548 442 589 c 0
178 77 m 0
 183 118 154 150 113 150 c 0
 73 150 36 118 31 77 c 0
 26 36 55 4 95 4 c 0xd0
 136 4 173 36 178 77 c 0
EndSplineSet
EndChar

StartChar: braceright
Encoding: 125 125 165
Width: 444
Flags: W
HStem: 4 146<93 115.5> 345 146<336 358.5> 346 146<140 162.5> 516 146<357 379.5>
LayerCount: 2
Fore
SplineSet
442 589 m 0xd0
 447 630 418 662 377 662 c 0
 337 662 301 630 296 589 c 0
 291 548 319 516 359 516 c 0
 400 516 437 548 442 589 c 0xd0
225 419 m 0
 230 460 201 492 160 492 c 0
 120 492 84 460 79 419 c 0
 74 378 102 346 142 346 c 0
 183 346 220 378 225 419 c 0
421 418 m 0
 426 459 397 491 356 491 c 0
 316 491 280 459 275 418 c 0
 270 377 298 345 338 345 c 0xb0
 379 345 416 377 421 418 c 0
178 77 m 0
 183 118 154 150 113 150 c 0
 73 150 36 118 31 77 c 0
 26 36 55 4 95 4 c 0
 136 4 173 36 178 77 c 0
EndSplineSet
EndChar

StartChar: asciitilde
Encoding: 126 126 166
Width: 444
Flags: W
HStem: 4 146<93 115.5> 345 146<336 358.5> 346 146<140 162.5> 516 146<357 379.5> 517 146<161 183.5>
LayerCount: 2
Fore
SplineSet
246 590 m 0xb0
 251 631 222 663 181 663 c 0
 141 663 105 631 100 590 c 0
 95 549 123 517 163 517 c 0
 204 517 241 549 246 590 c 0xb0
421 418 m 0
 426 459 397 491 356 491 c 0
 316 491 280 459 275 418 c 0
 270 377 298 345 338 345 c 0
 379 345 416 377 421 418 c 0
225 419 m 0
 230 460 201 492 160 492 c 0
 120 492 84 460 79 419 c 0
 74 378 102 346 142 346 c 0
 183 346 220 378 225 419 c 0
442 589 m 0
 447 630 418 662 377 662 c 0
 337 662 301 630 296 589 c 0
 291 548 319 516 359 516 c 0xc8
 400 516 437 548 442 589 c 0
178 77 m 0
 183 118 154 150 113 150 c 0
 73 150 36 118 31 77 c 0
 26 36 55 4 95 4 c 0
 136 4 173 36 178 77 c 0
EndSplineSet
EndChar

StartChar: quotesinglbase
Encoding: 184 8218 167
Width: 444
Flags: MW
HStem: 4 146<93 115.5> 174 146<120 142.5> 345 146<336 358.5> 516 146<357 379.5>
LayerCount: 2
Fore
SplineSet
205 247 m 0
 210 288 181 320 140 320 c 0
 100 320 64 288 59 247 c 0
 54 206 82 174 122 174 c 0
 163 174 200 206 205 247 c 0
421 418 m 0
 426 459 397 491 356 491 c 0
 316 491 280 459 275 418 c 0
 270 377 298 345 338 345 c 0
 379 345 416 377 421 418 c 0
442 589 m 0
 447 630 418 662 377 662 c 0
 337 662 301 630 296 589 c 0
 291 548 319 516 359 516 c 0
 400 516 437 548 442 589 c 0
178 77 m 0
 183 118 154 150 113 150 c 0
 73 150 36 118 31 77 c 0
 26 36 55 4 95 4 c 0
 136 4 173 36 178 77 c 0
EndSplineSet
EndChar

StartChar: florin
Encoding: 166 402 168
Width: 444
Flags: W
HStem: 4 146<93 115.5> 174 146<120 142.5> 345 146<336 358.5> 516 146<357 379.5> 517 146<161 183.5>
LayerCount: 2
Fore
SplineSet
246 590 m 0xf0
 251 631 222 663 181 663 c 0
 141 663 105 631 100 590 c 0
 95 549 123 517 163 517 c 0
 204 517 241 549 246 590 c 0xf0
442 589 m 0
 447 630 418 662 377 662 c 0
 337 662 301 630 296 589 c 0
 291 548 319 516 359 516 c 0
 400 516 437 548 442 589 c 0
421 418 m 0
 426 459 397 491 356 491 c 0
 316 491 280 459 275 418 c 0
 270 377 298 345 338 345 c 0
 379 345 416 377 421 418 c 0
205 247 m 0
 210 288 181 320 140 320 c 0
 100 320 64 288 59 247 c 0
 54 206 82 174 122 174 c 0
 163 174 200 206 205 247 c 0
178 77 m 0
 183 118 154 150 113 150 c 0
 73 150 36 118 31 77 c 0
 26 36 55 4 95 4 c 0xe8
 136 4 173 36 178 77 c 0
EndSplineSet
EndChar

StartChar: quotedblbase
Encoding: 185 8222 169
Width: 444
Flags: W
HStem: 4 146<93 115.5> 174 146<120 142.5> 345 146<336 358.5> 346 146<140 162.5> 516 146<357 379.5>
LayerCount: 2
Fore
SplineSet
205 247 m 0xd8
 210 288 181 320 140 320 c 0
 100 320 64 288 59 247 c 0
 54 206 82 174 122 174 c 0
 163 174 200 206 205 247 c 0xd8
421 418 m 0
 426 459 397 491 356 491 c 0
 316 491 280 459 275 418 c 0
 270 377 298 345 338 345 c 0
 379 345 416 377 421 418 c 0
225 419 m 0
 230 460 201 492 160 492 c 0
 120 492 84 460 79 419 c 0
 74 378 102 346 142 346 c 0
 183 346 220 378 225 419 c 0
442 589 m 0
 447 630 418 662 377 662 c 0
 337 662 301 630 296 589 c 0
 291 548 319 516 359 516 c 0xe8
 400 516 437 548 442 589 c 0
178 77 m 0
 183 118 154 150 113 150 c 0
 73 150 36 118 31 77 c 0
 26 36 55 4 95 4 c 0
 136 4 173 36 178 77 c 0
EndSplineSet
EndChar

StartChar: ellipsis
Encoding: 188 8230 170
Width: 444
Flags: W
HStem: 4 146<93 115.5> 174 146<120 142.5> 345 146<336 358.5> 346 146<140 162.5> 516 146<357 379.5> 517 146<161 183.5>
LayerCount: 2
Fore
SplineSet
205 247 m 0xe8
 210 288 181 320 140 320 c 0
 100 320 64 288 59 247 c 0
 54 206 82 174 122 174 c 0
 163 174 200 206 205 247 c 0xe8
246 590 m 0
 251 631 222 663 181 663 c 0
 141 663 105 631 100 590 c 0
 95 549 123 517 163 517 c 0
 204 517 241 549 246 590 c 0
225 419 m 0
 230 460 201 492 160 492 c 0
 120 492 84 460 79 419 c 0
 74 378 102 346 142 346 c 0
 183 346 220 378 225 419 c 0
421 418 m 0
 426 459 397 491 356 491 c 0
 316 491 280 459 275 418 c 0
 270 377 298 345 338 345 c 0xd4
 379 345 416 377 421 418 c 0
442 589 m 0
 447 630 418 662 377 662 c 0
 337 662 301 630 296 589 c 0
 291 548 319 516 359 516 c 0
 400 516 437 548 442 589 c 0
178 77 m 0
 183 118 154 150 113 150 c 0
 73 150 36 118 31 77 c 0
 26 36 55 4 95 4 c 0
 136 4 173 36 178 77 c 0
EndSplineSet
EndChar

StartChar: dagger
Encoding: 178 8224 171
Width: 444
Flags: MW
HStem: 4 146<93 115.5> 173 146<316 338.5>
LayerCount: 2
Fore
SplineSet
401 246 m 0
 406 287 377 319 336 319 c 0
 296 319 260 287 255 246 c 0
 250 205 278 173 318 173 c 0
 359 173 396 205 401 246 c 0
178 77 m 0
 183 118 154 150 113 150 c 0
 73 150 36 118 31 77 c 0
 26 36 55 4 95 4 c 0
 136 4 173 36 178 77 c 0
EndSplineSet
EndChar

StartChar: daggerdbl
Encoding: 179 8225 172
Width: 444
Flags: MW
HStem: 4 146<93 115.5> 173 146<316 338.5> 517 146<161 183.5>
LayerCount: 2
Fore
SplineSet
401 246 m 0
 406 287 377 319 336 319 c 0
 296 319 260 287 255 246 c 0
 250 205 278 173 318 173 c 0
 359 173 396 205 401 246 c 0
246 590 m 0
 251 631 222 663 181 663 c 0
 141 663 105 631 100 590 c 0
 95 549 123 517 163 517 c 0
 204 517 241 549 246 590 c 0
178 77 m 0
 183 118 154 150 113 150 c 0
 73 150 36 118 31 77 c 0
 26 36 55 4 95 4 c 0
 136 4 173 36 178 77 c 0
EndSplineSet
EndChar

StartChar: perthousand
Encoding: 189 8240 173
Width: 444
Flags: MW
HStem: 4 146<93 115.5> 173 146<316 338.5> 346 146<140 162.5>
LayerCount: 2
Fore
SplineSet
401 246 m 0
 406 287 377 319 336 319 c 0
 296 319 260 287 255 246 c 0
 250 205 278 173 318 173 c 0
 359 173 396 205 401 246 c 0
225 419 m 0
 230 460 201 492 160 492 c 0
 120 492 84 460 79 419 c 0
 74 378 102 346 142 346 c 0
 183 346 220 378 225 419 c 0
178 77 m 0
 183 118 154 150 113 150 c 0
 73 150 36 118 31 77 c 0
 26 36 55 4 95 4 c 0
 136 4 173 36 178 77 c 0
EndSplineSet
EndChar

StartChar: Scaron
Encoding: 310 352 174
Width: 444
Flags: MW
HStem: 4 146<93 115.5> 173 146<316 338.5> 346 146<140 162.5> 517 146<161 183.5>
LayerCount: 2
Fore
SplineSet
246 590 m 0
 251 631 222 663 181 663 c 0
 141 663 105 631 100 590 c 0
 95 549 123 517 163 517 c 0
 204 517 241 549 246 590 c 0
225 419 m 0
 230 460 201 492 160 492 c 0
 120 492 84 460 79 419 c 0
 74 378 102 346 142 346 c 0
 183 346 220 378 225 419 c 0
401 246 m 0
 406 287 377 319 336 319 c 0
 296 319 260 287 255 246 c 0
 250 205 278 173 318 173 c 0
 359 173 396 205 401 246 c 0
178 77 m 0
 183 118 154 150 113 150 c 0
 73 150 36 118 31 77 c 0
 26 36 55 4 95 4 c 0
 136 4 173 36 178 77 c 0
EndSplineSet
EndChar

StartChar: guilsinglleft
Encoding: 172 8249 175
Width: 444
Flags: W
HStem: 4 146<93 115.5> 173 146<316 338.5> 174 146<120 142.5>
LayerCount: 2
Fore
SplineSet
401 246 m 0xa0
 406 287 377 319 336 319 c 0
 296 319 260 287 255 246 c 0
 250 205 278 173 318 173 c 0
 359 173 396 205 401 246 c 0xa0
205 247 m 0
 210 288 181 320 140 320 c 0
 100 320 64 288 59 247 c 0
 54 206 82 174 122 174 c 0
 163 174 200 206 205 247 c 0
178 77 m 0
 183 118 154 150 113 150 c 0
 73 150 36 118 31 77 c 0
 26 36 55 4 95 4 c 0xc0
 136 4 173 36 178 77 c 0
EndSplineSet
EndChar

StartChar: OE
Encoding: 234 338 176
Width: 444
Flags: W
HStem: 4 146<93 115.5> 173 146<316 338.5> 174 146<120 142.5> 517 146<161 183.5>
LayerCount: 2
Fore
SplineSet
246 590 m 0xb0
 251 631 222 663 181 663 c 0
 141 663 105 631 100 590 c 0
 95 549 123 517 163 517 c 0
 204 517 241 549 246 590 c 0xb0
401 246 m 0
 406 287 377 319 336 319 c 0
 296 319 260 287 255 246 c 0
 250 205 278 173 318 173 c 0
 359 173 396 205 401 246 c 0
205 247 m 0
 210 288 181 320 140 320 c 0
 100 320 64 288 59 247 c 0
 54 206 82 174 122 174 c 0xd0
 163 174 200 206 205 247 c 0
178 77 m 0
 183 118 154 150 113 150 c 0
 73 150 36 118 31 77 c 0
 26 36 55 4 95 4 c 0
 136 4 173 36 178 77 c 0
EndSplineSet
EndChar

StartChar: quoteleft
Encoding: 96 8216 177
Width: 444
Flags: W
HStem: 4 146<93 115.5> 173 146<316 338.5> 174 146<120 142.5> 346 146<140 162.5>
LayerCount: 2
Fore
SplineSet
205 247 m 0xd0
 210 288 181 320 140 320 c 0
 100 320 64 288 59 247 c 0
 54 206 82 174 122 174 c 0
 163 174 200 206 205 247 c 0xd0
225 419 m 0
 230 460 201 492 160 492 c 0
 120 492 84 460 79 419 c 0
 74 378 102 346 142 346 c 0
 183 346 220 378 225 419 c 0
401 246 m 0
 406 287 377 319 336 319 c 0
 296 319 260 287 255 246 c 0
 250 205 278 173 318 173 c 0
 359 173 396 205 401 246 c 0
178 77 m 0
 183 118 154 150 113 150 c 0
 73 150 36 118 31 77 c 0
 26 36 55 4 95 4 c 0xb0
 136 4 173 36 178 77 c 0
EndSplineSet
EndChar

StartChar: quotedblleft
Encoding: 170 8220 178
Width: 444
Flags: W
HStem: 4 146<93 115.5> 173 146<316 338.5> 174 146<120 142.5> 346 146<140 162.5> 517 146<161 183.5>
LayerCount: 2
Fore
SplineSet
246 590 m 0xb8
 251 631 222 663 181 663 c 0
 141 663 105 631 100 590 c 0
 95 549 123 517 163 517 c 0
 204 517 241 549 246 590 c 0xb8
401 246 m 0
 406 287 377 319 336 319 c 0
 296 319 260 287 255 246 c 0
 250 205 278 173 318 173 c 0
 359 173 396 205 401 246 c 0
225 419 m 0
 230 460 201 492 160 492 c 0
 120 492 84 460 79 419 c 0
 74 378 102 346 142 346 c 0
 183 346 220 378 225 419 c 0
205 247 m 0
 210 288 181 320 140 320 c 0
 100 320 64 288 59 247 c 0
 54 206 82 174 122 174 c 0xd8
 163 174 200 206 205 247 c 0
178 77 m 0
 183 118 154 150 113 150 c 0
 73 150 36 118 31 77 c 0
 26 36 55 4 95 4 c 0
 136 4 173 36 178 77 c 0
EndSplineSet
EndChar

StartChar: quotedblright
Encoding: 186 8221 179
Width: 444
Flags: MW
HStem: 4 146<93 115.5> 173 146<316 338.5> 516 146<357 379.5>
LayerCount: 2
Fore
SplineSet
401 246 m 0
 406 287 377 319 336 319 c 0
 296 319 260 287 255 246 c 0
 250 205 278 173 318 173 c 0
 359 173 396 205 401 246 c 0
442 589 m 0
 447 630 418 662 377 662 c 0
 337 662 301 630 296 589 c 0
 291 548 319 516 359 516 c 0
 400 516 437 548 442 589 c 0
178 77 m 0
 183 118 154 150 113 150 c 0
 73 150 36 118 31 77 c 0
 26 36 55 4 95 4 c 0
 136 4 173 36 178 77 c 0
EndSplineSet
EndChar

StartChar: bullet
Encoding: 183 8226 180
Width: 444
Flags: W
HStem: 4 146<93 115.5> 173 146<316 338.5> 346 146<140 162.5> 516 146<357 379.5> 517 146<161 183.5>
LayerCount: 2
Fore
SplineSet
246 590 m 0xf0
 251 631 222 663 181 663 c 0
 141 663 105 631 100 590 c 0
 95 549 123 517 163 517 c 0
 204 517 241 549 246 590 c 0xf0
401 246 m 0
 406 287 377 319 336 319 c 0
 296 319 260 287 255 246 c 0
 250 205 278 173 318 173 c 0
 359 173 396 205 401 246 c 0
225 419 m 0
 230 460 201 492 160 492 c 0
 120 492 84 460 79 419 c 0
 74 378 102 346 142 346 c 0
 183 346 220 378 225 419 c 0
442 589 m 0
 447 630 418 662 377 662 c 0
 337 662 301 630 296 589 c 0
 291 548 319 516 359 516 c 0
 400 516 437 548 442 589 c 0
178 77 m 0
 183 118 154 150 113 150 c 0
 73 150 36 118 31 77 c 0
 26 36 55 4 95 4 c 0xe8
 136 4 173 36 178 77 c 0
EndSplineSet
EndChar

StartChar: endash
Encoding: 177 8211 181
Width: 444
Flags: W
HStem: 4 146<93 115.5> 173 146<316 338.5> 174 146<120 142.5> 516 146<357 379.5>
LayerCount: 2
Fore
SplineSet
205 247 m 0xd0
 210 288 181 320 140 320 c 0
 100 320 64 288 59 247 c 0
 54 206 82 174 122 174 c 0
 163 174 200 206 205 247 c 0xd0
401 246 m 0
 406 287 377 319 336 319 c 0
 296 319 260 287 255 246 c 0
 250 205 278 173 318 173 c 0
 359 173 396 205 401 246 c 0
442 589 m 0
 447 630 418 662 377 662 c 0
 337 662 301 630 296 589 c 0
 291 548 319 516 359 516 c 0
 400 516 437 548 442 589 c 0
178 77 m 0
 183 118 154 150 113 150 c 0
 73 150 36 118 31 77 c 0
 26 36 55 4 95 4 c 0xb0
 136 4 173 36 178 77 c 0
EndSplineSet
EndChar

StartChar: emdash
Encoding: 208 8212 182
Width: 444
Flags: W
HStem: 4 146<93 115.5> 173 146<316 338.5> 174 146<120 142.5> 516 146<357 379.5> 517 146<161 183.5>
LayerCount: 2
Fore
SplineSet
246 590 m 0xb0
 251 631 222 663 181 663 c 0
 141 663 105 631 100 590 c 0
 95 549 123 517 163 517 c 0
 204 517 241 549 246 590 c 0xb0
442 589 m 0
 447 630 418 662 377 662 c 0
 337 662 301 630 296 589 c 0
 291 548 319 516 359 516 c 0
 400 516 437 548 442 589 c 0
401 246 m 0
 406 287 377 319 336 319 c 0
 296 319 260 287 255 246 c 0
 250 205 278 173 318 173 c 0xd0
 359 173 396 205 401 246 c 0
205 247 m 0
 210 288 181 320 140 320 c 0
 100 320 64 288 59 247 c 0
 54 206 82 174 122 174 c 0
 163 174 200 206 205 247 c 0
178 77 m 0
 183 118 154 150 113 150 c 0
 73 150 36 118 31 77 c 0
 26 36 55 4 95 4 c 0xc8
 136 4 173 36 178 77 c 0
EndSplineSet
EndChar

StartChar: trademark
Encoding: 311 8482 183
Width: 444
Flags: W
HStem: 4 146<93 115.5> 173 146<316 338.5> 174 146<120 142.5> 346 146<140 162.5> 516 146<357 379.5>
LayerCount: 2
Fore
SplineSet
205 247 m 0xd8
 210 288 181 320 140 320 c 0
 100 320 64 288 59 247 c 0
 54 206 82 174 122 174 c 0
 163 174 200 206 205 247 c 0xd8
401 246 m 0
 406 287 377 319 336 319 c 0
 296 319 260 287 255 246 c 0
 250 205 278 173 318 173 c 0
 359 173 396 205 401 246 c 0
225 419 m 0
 230 460 201 492 160 492 c 0
 120 492 84 460 79 419 c 0
 74 378 102 346 142 346 c 0
 183 346 220 378 225 419 c 0
442 589 m 0
 447 630 418 662 377 662 c 0
 337 662 301 630 296 589 c 0
 291 548 319 516 359 516 c 0
 400 516 437 548 442 589 c 0
178 77 m 0
 183 118 154 150 113 150 c 0
 73 150 36 118 31 77 c 0
 26 36 55 4 95 4 c 0xb8
 136 4 173 36 178 77 c 0
EndSplineSet
EndChar

StartChar: scaron
Encoding: 312 353 184
Width: 444
Flags: MW
HStem: 4 146<93 115.5> 173 146<316 338.5> 345 146<336 358.5>
LayerCount: 2
Fore
SplineSet
401 246 m 0
 406 287 377 319 336 319 c 0
 296 319 260 287 255 246 c 0
 250 205 278 173 318 173 c 0
 359 173 396 205 401 246 c 0
421 418 m 0
 426 459 397 491 356 491 c 0
 316 491 280 459 275 418 c 0
 270 377 298 345 338 345 c 0
 379 345 416 377 421 418 c 0
178 77 m 0
 183 118 154 150 113 150 c 0
 73 150 36 118 31 77 c 0
 26 36 55 4 95 4 c 0
 136 4 173 36 178 77 c 0
EndSplineSet
EndChar

StartChar: guilsinglright
Encoding: 173 8250 185
Width: 444
Flags: MW
HStem: 4 146<93 115.5> 173 146<316 338.5> 345 146<336 358.5> 517 146<161 183.5>
LayerCount: 2
Fore
SplineSet
246 590 m 0
 251 631 222 663 181 663 c 0
 141 663 105 631 100 590 c 0
 95 549 123 517 163 517 c 0
 204 517 241 549 246 590 c 0
401 246 m 0
 406 287 377 319 336 319 c 0
 296 319 260 287 255 246 c 0
 250 205 278 173 318 173 c 0
 359 173 396 205 401 246 c 0
421 418 m 0
 426 459 397 491 356 491 c 0
 316 491 280 459 275 418 c 0
 270 377 298 345 338 345 c 0
 379 345 416 377 421 418 c 0
178 77 m 0
 183 118 154 150 113 150 c 0
 73 150 36 118 31 77 c 0
 26 36 55 4 95 4 c 0
 136 4 173 36 178 77 c 0
EndSplineSet
EndChar

StartChar: oe
Encoding: 250 339 186
Width: 444
Flags: W
HStem: 4 146<93 115.5> 173 146<316 338.5> 345 146<336 358.5> 346 146<140 162.5>
LayerCount: 2
Fore
SplineSet
421 418 m 0xd0
 426 459 397 491 356 491 c 0
 316 491 280 459 275 418 c 0
 270 377 298 345 338 345 c 0
 379 345 416 377 421 418 c 0xd0
225 419 m 0
 230 460 201 492 160 492 c 0
 120 492 84 460 79 419 c 0
 74 378 102 346 142 346 c 0
 183 346 220 378 225 419 c 0
401 246 m 0
 406 287 377 319 336 319 c 0
 296 319 260 287 255 246 c 0
 250 205 278 173 318 173 c 0
 359 173 396 205 401 246 c 0
178 77 m 0
 183 118 154 150 113 150 c 0
 73 150 36 118 31 77 c 0
 26 36 55 4 95 4 c 0xe0
 136 4 173 36 178 77 c 0
EndSplineSet
EndChar

StartChar: Ydieresis
Encoding: 313 376 187
Width: 444
Flags: W
HStem: 4 146<93 115.5> 173 146<316 338.5> 345 146<336 358.5> 346 146<140 162.5> 517 146<161 183.5>
LayerCount: 2
Fore
SplineSet
246 590 m 0xe8
 251 631 222 663 181 663 c 0
 141 663 105 631 100 590 c 0
 95 549 123 517 163 517 c 0
 204 517 241 549 246 590 c 0xe8
401 246 m 0
 406 287 377 319 336 319 c 0
 296 319 260 287 255 246 c 0
 250 205 278 173 318 173 c 0
 359 173 396 205 401 246 c 0
225 419 m 0
 230 460 201 492 160 492 c 0
 120 492 84 460 79 419 c 0
 74 378 102 346 142 346 c 0xd8
 183 346 220 378 225 419 c 0
421 418 m 0
 426 459 397 491 356 491 c 0
 316 491 280 459 275 418 c 0
 270 377 298 345 338 345 c 0
 379 345 416 377 421 418 c 0
178 77 m 0
 183 118 154 150 113 150 c 0
 73 150 36 118 31 77 c 0
 26 36 55 4 95 4 c 0
 136 4 173 36 178 77 c 0
EndSplineSet
EndChar

StartChar: exclamdown
Encoding: 161 161 188
Width: 444
Flags: W
HStem: 4 146<93 115.5> 173 146<316 338.5> 174 146<120 142.5> 345 146<336 358.5>
LayerCount: 2
Fore
SplineSet
205 247 m 0xd0
 210 288 181 320 140 320 c 0
 100 320 64 288 59 247 c 0
 54 206 82 174 122 174 c 0
 163 174 200 206 205 247 c 0xd0
401 246 m 0
 406 287 377 319 336 319 c 0
 296 319 260 287 255 246 c 0
 250 205 278 173 318 173 c 0
 359 173 396 205 401 246 c 0
421 418 m 0
 426 459 397 491 356 491 c 0
 316 491 280 459 275 418 c 0
 270 377 298 345 338 345 c 0
 379 345 416 377 421 418 c 0
178 77 m 0
 183 118 154 150 113 150 c 0
 73 150 36 118 31 77 c 0
 26 36 55 4 95 4 c 0xb0
 136 4 173 36 178 77 c 0
EndSplineSet
EndChar

StartChar: cent
Encoding: 162 162 189
Width: 444
Flags: W
HStem: 4 146<93 115.5> 173 146<316 338.5> 174 146<120 142.5> 345 146<336 358.5> 517 146<161 183.5>
LayerCount: 2
Fore
SplineSet
246 590 m 0xb8
 251 631 222 663 181 663 c 0
 141 663 105 631 100 590 c 0
 95 549 123 517 163 517 c 0
 204 517 241 549 246 590 c 0xb8
421 418 m 0
 426 459 397 491 356 491 c 0
 316 491 280 459 275 418 c 0
 270 377 298 345 338 345 c 0
 379 345 416 377 421 418 c 0
401 246 m 0
 406 287 377 319 336 319 c 0
 296 319 260 287 255 246 c 0
 250 205 278 173 318 173 c 0x58
 359 173 396 205 401 246 c 0
205 247 m 0
 210 288 181 320 140 320 c 0
 100 320 64 288 59 247 c 0
 54 206 82 174 122 174 c 0
 163 174 200 206 205 247 c 0
178 77 m 0
 183 118 154 150 113 150 c 0
 73 150 36 118 31 77 c 0
 26 36 55 4 95 4 c 0
 136 4 173 36 178 77 c 0
EndSplineSet
EndChar

StartChar: sterling
Encoding: 163 163 190
Width: 444
Flags: W
HStem: 4 146<93 115.5> 173 146<316 338.5> 174 146<120 142.5> 345 146<336 358.5> 346 146<140 162.5>
LayerCount: 2
Fore
SplineSet
205 247 m 0xd0
 210 288 181 320 140 320 c 0
 100 320 64 288 59 247 c 0
 54 206 82 174 122 174 c 0
 163 174 200 206 205 247 c 0xd0
401 246 m 0
 406 287 377 319 336 319 c 0
 296 319 260 287 255 246 c 0
 250 205 278 173 318 173 c 0
 359 173 396 205 401 246 c 0
225 419 m 0
 230 460 201 492 160 492 c 0
 120 492 84 460 79 419 c 0
 74 378 102 346 142 346 c 0xc8
 183 346 220 378 225 419 c 0
421 418 m 0
 426 459 397 491 356 491 c 0
 316 491 280 459 275 418 c 0
 270 377 298 345 338 345 c 0
 379 345 416 377 421 418 c 0
178 77 m 0
 183 118 154 150 113 150 c 0
 73 150 36 118 31 77 c 0
 26 36 55 4 95 4 c 0xb0
 136 4 173 36 178 77 c 0
EndSplineSet
EndChar

StartChar: currency
Encoding: 168 164 191
Width: 444
Flags: W
HStem: 4 146<93 115.5> 173 146<316 338.5> 174 146<120 142.5> 345 146<336 358.5> 346 146<140 162.5> 517 146<161 183.5>
LayerCount: 2
Fore
SplineSet
205 247 m 0xd4
 210 288 181 320 140 320 c 0
 100 320 64 288 59 247 c 0
 54 206 82 174 122 174 c 0
 163 174 200 206 205 247 c 0xd4
246 590 m 0
 251 631 222 663 181 663 c 0
 141 663 105 631 100 590 c 0
 95 549 123 517 163 517 c 0
 204 517 241 549 246 590 c 0
225 419 m 0
 230 460 201 492 160 492 c 0
 120 492 84 460 79 419 c 0
 74 378 102 346 142 346 c 0
 183 346 220 378 225 419 c 0
421 418 m 0
 426 459 397 491 356 491 c 0
 316 491 280 459 275 418 c 0
 270 377 298 345 338 345 c 0xac
 379 345 416 377 421 418 c 0
401 246 m 0
 406 287 377 319 336 319 c 0
 296 319 260 287 255 246 c 0
 250 205 278 173 318 173 c 0
 359 173 396 205 401 246 c 0
178 77 m 0
 183 118 154 150 113 150 c 0
 73 150 36 118 31 77 c 0
 26 36 55 4 95 4 c 0
 136 4 173 36 178 77 c 0
EndSplineSet
EndChar

StartChar: yen
Encoding: 165 165 192
Width: 444
Flags: MW
HStem: 4 146<93 115.5> 173 146<316 338.5> 345 146<336 358.5> 516 146<357 379.5>
LayerCount: 2
Fore
SplineSet
442 589 m 0
 447 630 418 662 377 662 c 0
 337 662 301 630 296 589 c 0
 291 548 319 516 359 516 c 0
 400 516 437 548 442 589 c 0
401 246 m 0
 406 287 377 319 336 319 c 0
 296 319 260 287 255 246 c 0
 250 205 278 173 318 173 c 0
 359 173 396 205 401 246 c 0
421 418 m 0
 426 459 397 491 356 491 c 0
 316 491 280 459 275 418 c 0
 270 377 298 345 338 345 c 0
 379 345 416 377 421 418 c 0
178 77 m 0
 183 118 154 150 113 150 c 0
 73 150 36 118 31 77 c 0
 26 36 55 4 95 4 c 0
 136 4 173 36 178 77 c 0
EndSplineSet
EndChar

StartChar: brokenbar
Encoding: 314 166 193
Width: 444
Flags: W
HStem: 4 146<93 115.5> 173 146<316 338.5> 345 146<336 358.5> 516 146<357 379.5> 517 146<161 183.5>
LayerCount: 2
Fore
SplineSet
246 590 m 0xf0
 251 631 222 663 181 663 c 0
 141 663 105 631 100 590 c 0
 95 549 123 517 163 517 c 0
 204 517 241 549 246 590 c 0xf0
421 418 m 0
 426 459 397 491 356 491 c 0
 316 491 280 459 275 418 c 0
 270 377 298 345 338 345 c 0
 379 345 416 377 421 418 c 0
401 246 m 0
 406 287 377 319 336 319 c 0
 296 319 260 287 255 246 c 0
 250 205 278 173 318 173 c 0
 359 173 396 205 401 246 c 0
442 589 m 0
 447 630 418 662 377 662 c 0
 337 662 301 630 296 589 c 0
 291 548 319 516 359 516 c 0
 400 516 437 548 442 589 c 0
178 77 m 0
 183 118 154 150 113 150 c 0
 73 150 36 118 31 77 c 0
 26 36 55 4 95 4 c 0xe8
 136 4 173 36 178 77 c 0
EndSplineSet
EndChar

StartChar: section
Encoding: 167 167 194
Width: 444
Flags: W
HStem: 4 146<93 115.5> 173 146<316 338.5> 345 146<336 358.5> 346 146<140 162.5> 516 146<357 379.5>
LayerCount: 2
Fore
SplineSet
442 589 m 0xe8
 447 630 418 662 377 662 c 0
 337 662 301 630 296 589 c 0
 291 548 319 516 359 516 c 0
 400 516 437 548 442 589 c 0xe8
401 246 m 0
 406 287 377 319 336 319 c 0
 296 319 260 287 255 246 c 0
 250 205 278 173 318 173 c 0
 359 173 396 205 401 246 c 0
225 419 m 0
 230 460 201 492 160 492 c 0
 120 492 84 460 79 419 c 0
 74 378 102 346 142 346 c 0xd8
 183 346 220 378 225 419 c 0
421 418 m 0
 426 459 397 491 356 491 c 0
 316 491 280 459 275 418 c 0
 270 377 298 345 338 345 c 0
 379 345 416 377 421 418 c 0
178 77 m 0
 183 118 154 150 113 150 c 0
 73 150 36 118 31 77 c 0
 26 36 55 4 95 4 c 0
 136 4 173 36 178 77 c 0
EndSplineSet
EndChar

StartChar: copyright
Encoding: 315 169 195
Width: 444
Flags: W
HStem: 4 146<93 115.5> 173 146<316 338.5> 345 146<336 358.5> 346 146<140 162.5> 516 146<357 379.5> 517 146<161 183.5>
LayerCount: 2
Fore
SplineSet
442 589 m 0xe8
 447 630 418 662 377 662 c 0
 337 662 301 630 296 589 c 0
 291 548 319 516 359 516 c 0
 400 516 437 548 442 589 c 0xe8
246 590 m 0
 251 631 222 663 181 663 c 0
 141 663 105 631 100 590 c 0
 95 549 123 517 163 517 c 0
 204 517 241 549 246 590 c 0
225 419 m 0
 230 460 201 492 160 492 c 0
 120 492 84 460 79 419 c 0
 74 378 102 346 142 346 c 0
 183 346 220 378 225 419 c 0
421 418 m 0
 426 459 397 491 356 491 c 0
 316 491 280 459 275 418 c 0
 270 377 298 345 338 345 c 0xd4
 379 345 416 377 421 418 c 0
401 246 m 0
 406 287 377 319 336 319 c 0
 296 319 260 287 255 246 c 0
 250 205 278 173 318 173 c 0
 359 173 396 205 401 246 c 0
178 77 m 0
 183 118 154 150 113 150 c 0
 73 150 36 118 31 77 c 0
 26 36 55 4 95 4 c 0xe8
 136 4 173 36 178 77 c 0
EndSplineSet
EndChar

StartChar: ordfeminine
Encoding: 227 170 196
Width: 444
Flags: W
HStem: 4 146<93 115.5> 173 146<316 338.5> 174 146<120 142.5> 345 146<336 358.5> 516 146<357 379.5>
LayerCount: 2
Fore
SplineSet
205 247 m 0xd8
 210 288 181 320 140 320 c 0
 100 320 64 288 59 247 c 0
 54 206 82 174 122 174 c 0
 163 174 200 206 205 247 c 0xd8
421 418 m 0
 426 459 397 491 356 491 c 0
 316 491 280 459 275 418 c 0
 270 377 298 345 338 345 c 0
 379 345 416 377 421 418 c 0
401 246 m 0
 406 287 377 319 336 319 c 0
 296 319 260 287 255 246 c 0
 250 205 278 173 318 173 c 0
 359 173 396 205 401 246 c 0
442 589 m 0
 447 630 418 662 377 662 c 0
 337 662 301 630 296 589 c 0
 291 548 319 516 359 516 c 0
 400 516 437 548 442 589 c 0
178 77 m 0
 183 118 154 150 113 150 c 0
 73 150 36 118 31 77 c 0
 26 36 55 4 95 4 c 0xb8
 136 4 173 36 178 77 c 0
EndSplineSet
EndChar

StartChar: guillemotleft
Encoding: 171 171 197
Width: 444
Flags: W
HStem: 4 146<93 115.5> 173 146<316 338.5> 174 146<120 142.5> 345 146<336 358.5> 516 146<357 379.5> 517 146<161 183.5>
LayerCount: 2
Fore
SplineSet
205 247 m 0xd8
 210 288 181 320 140 320 c 0
 100 320 64 288 59 247 c 0
 54 206 82 174 122 174 c 0
 163 174 200 206 205 247 c 0xd8
246 590 m 0
 251 631 222 663 181 663 c 0
 141 663 105 631 100 590 c 0
 95 549 123 517 163 517 c 0
 204 517 241 549 246 590 c 0
401 246 m 0
 406 287 377 319 336 319 c 0
 296 319 260 287 255 246 c 0
 250 205 278 173 318 173 c 0
 359 173 396 205 401 246 c 0
421 418 m 0
 426 459 397 491 356 491 c 0
 316 491 280 459 275 418 c 0
 270 377 298 345 338 345 c 0
 379 345 416 377 421 418 c 0
442 589 m 0
 447 630 418 662 377 662 c 0
 337 662 301 630 296 589 c 0
 291 548 319 516 359 516 c 0xb4
 400 516 437 548 442 589 c 0
178 77 m 0
 183 118 154 150 113 150 c 0
 73 150 36 118 31 77 c 0
 26 36 55 4 95 4 c 0
 136 4 173 36 178 77 c 0
EndSplineSet
EndChar

StartChar: logicalnot
Encoding: 316 172 198
Width: 444
Flags: W
HStem: 4 146<93 115.5> 173 146<316 338.5> 174 146<120 142.5> 345 146<336 358.5> 346 146<140 162.5> 516 146<357 379.5>
LayerCount: 2
Fore
SplineSet
442 589 m 0xd4
 447 630 418 662 377 662 c 0
 337 662 301 630 296 589 c 0
 291 548 319 516 359 516 c 0
 400 516 437 548 442 589 c 0xd4
205 247 m 0
 210 288 181 320 140 320 c 0
 100 320 64 288 59 247 c 0
 54 206 82 174 122 174 c 0
 163 174 200 206 205 247 c 0
225 419 m 0
 230 460 201 492 160 492 c 0
 120 492 84 460 79 419 c 0
 74 378 102 346 142 346 c 0
 183 346 220 378 225 419 c 0
421 418 m 0
 426 459 397 491 356 491 c 0
 316 491 280 459 275 418 c 0
 270 377 298 345 338 345 c 0xac
 379 345 416 377 421 418 c 0
401 246 m 0
 406 287 377 319 336 319 c 0
 296 319 260 287 255 246 c 0
 250 205 278 173 318 173 c 0
 359 173 396 205 401 246 c 0
178 77 m 0
 183 118 154 150 113 150 c 0
 73 150 36 118 31 77 c 0
 26 36 55 4 95 4 c 0
 136 4 173 36 178 77 c 0
EndSplineSet
EndChar

StartChar: registered
Encoding: 317 174 199
Width: 444
Flags: W
HStem: 4 146<93 115.5> 173 146<316 338.5> 174 146<120 142.5> 345 146<336 358.5> 346 146<140 162.5> 516 146<357 379.5> 517 146<161 183.5>
LayerCount: 2
Fore
SplineSet
205 247 m 0xd4
 210 288 181 320 140 320 c 0
 100 320 64 288 59 247 c 0
 54 206 82 174 122 174 c 0
 163 174 200 206 205 247 c 0xd4
246 590 m 0
 251 631 222 663 181 663 c 0
 141 663 105 631 100 590 c 0
 95 549 123 517 163 517 c 0
 204 517 241 549 246 590 c 0
225 419 m 0
 230 460 201 492 160 492 c 0
 120 492 84 460 79 419 c 0
 74 378 102 346 142 346 c 0
 183 346 220 378 225 419 c 0
421 418 m 0
 426 459 397 491 356 491 c 0
 316 491 280 459 275 418 c 0
 270 377 298 345 338 345 c 0
 379 345 416 377 421 418 c 0
442 589 m 0
 447 630 418 662 377 662 c 0
 337 662 301 630 296 589 c 0
 291 548 319 516 359 516 c 0xaa
 400 516 437 548 442 589 c 0
401 246 m 0
 406 287 377 319 336 319 c 0
 296 319 260 287 255 246 c 0
 250 205 278 173 318 173 c 0
 359 173 396 205 401 246 c 0
178 77 m 0
 183 118 154 150 113 150 c 0
 73 150 36 118 31 77 c 0
 26 36 55 4 95 4 c 0
 136 4 173 36 178 77 c 0
EndSplineSet
EndChar

StartChar: degree
Encoding: 318 176 200
Width: 444
Flags: MW
HStem: 3 146<288 310.5>
LayerCount: 2
Fore
SplineSet
373 76 m 0
 378 117 349 149 308 149 c 0
 268 149 232 117 227 76 c 0
 222 35 250 3 290 3 c 0
 331 3 368 35 373 76 c 0
EndSplineSet
EndChar

StartChar: plusminus
Encoding: 319 177 201
Width: 444
Flags: MW
HStem: 3 146<288 310.5> 517 146<161 183.5>
LayerCount: 2
Fore
SplineSet
246 590 m 0
 251 631 222 663 181 663 c 0
 141 663 105 631 100 590 c 0
 95 549 123 517 163 517 c 0
 204 517 241 549 246 590 c 0
373 76 m 0
 378 117 349 149 308 149 c 0
 268 149 232 117 227 76 c 0
 222 35 250 3 290 3 c 0
 331 3 368 35 373 76 c 0
EndSplineSet
EndChar

StartChar: twosuperior
Encoding: 320 178 202
Width: 444
Flags: MW
HStem: 3 146<288 310.5> 346 146<140 162.5>
LayerCount: 2
Fore
SplineSet
373 76 m 0
 378 117 349 149 308 149 c 0
 268 149 232 117 227 76 c 0
 222 35 250 3 290 3 c 0
 331 3 368 35 373 76 c 0
225 419 m 0
 230 460 201 492 160 492 c 0
 120 492 84 460 79 419 c 0
 74 378 102 346 142 346 c 0
 183 346 220 378 225 419 c 0
EndSplineSet
EndChar

StartChar: threesuperior
Encoding: 321 179 203
Width: 444
Flags: MW
HStem: 3 146<288 310.5> 346 146<140 162.5> 517 146<161 183.5>
LayerCount: 2
Fore
SplineSet
225 419 m 0
 230 460 201 492 160 492 c 0
 120 492 84 460 79 419 c 0
 74 378 102 346 142 346 c 0
 183 346 220 378 225 419 c 0
246 590 m 0
 251 631 222 663 181 663 c 0
 141 663 105 631 100 590 c 0
 95 549 123 517 163 517 c 0
 204 517 241 549 246 590 c 0
373 76 m 0
 378 117 349 149 308 149 c 0
 268 149 232 117 227 76 c 0
 222 35 250 3 290 3 c 0
 331 3 368 35 373 76 c 0
EndSplineSet
EndChar

StartChar: mu
Encoding: 322 181 204
Width: 444
Flags: MW
HStem: 3 146<288 310.5> 174 146<120 142.5>
LayerCount: 2
Fore
SplineSet
205 247 m 0
 210 288 181 320 140 320 c 0
 100 320 64 288 59 247 c 0
 54 206 82 174 122 174 c 0
 163 174 200 206 205 247 c 0
373 76 m 0
 378 117 349 149 308 149 c 0
 268 149 232 117 227 76 c 0
 222 35 250 3 290 3 c 0
 331 3 368 35 373 76 c 0
EndSplineSet
EndChar

StartChar: paragraph
Encoding: 182 182 205
Width: 444
Flags: MW
HStem: 3 146<288 310.5> 174 146<120 142.5> 517 146<161 183.5>
LayerCount: 2
Fore
SplineSet
373 76 m 0
 378 117 349 149 308 149 c 0
 268 149 232 117 227 76 c 0
 222 35 250 3 290 3 c 0
 331 3 368 35 373 76 c 0
246 590 m 0
 251 631 222 663 181 663 c 0
 141 663 105 631 100 590 c 0
 95 549 123 517 163 517 c 0
 204 517 241 549 246 590 c 0
205 247 m 0
 210 288 181 320 140 320 c 0
 100 320 64 288 59 247 c 0
 54 206 82 174 122 174 c 0
 163 174 200 206 205 247 c 0
EndSplineSet
EndChar

StartChar: periodcentered
Encoding: 180 183 206
Width: 444
Flags: MW
HStem: 3 146<288 310.5> 174 146<120 142.5> 346 146<140 162.5>
LayerCount: 2
Fore
SplineSet
225 419 m 0
 230 460 201 492 160 492 c 0
 120 492 84 460 79 419 c 0
 74 378 102 346 142 346 c 0
 183 346 220 378 225 419 c 0
205 247 m 0
 210 288 181 320 140 320 c 0
 100 320 64 288 59 247 c 0
 54 206 82 174 122 174 c 0
 163 174 200 206 205 247 c 0
373 76 m 0
 378 117 349 149 308 149 c 0
 268 149 232 117 227 76 c 0
 222 35 250 3 290 3 c 0
 331 3 368 35 373 76 c 0
EndSplineSet
EndChar

StartChar: onesuperior
Encoding: 323 185 207
Width: 444
Flags: MW
HStem: 3 146<288 310.5> 174 146<120 142.5> 346 146<140 162.5> 517 146<161 183.5>
LayerCount: 2
Fore
SplineSet
373 76 m 0
 378 117 349 149 308 149 c 0
 268 149 232 117 227 76 c 0
 222 35 250 3 290 3 c 0
 331 3 368 35 373 76 c 0
225 419 m 0
 230 460 201 492 160 492 c 0
 120 492 84 460 79 419 c 0
 74 378 102 346 142 346 c 0
 183 346 220 378 225 419 c 0
246 590 m 0
 251 631 222 663 181 663 c 0
 141 663 105 631 100 590 c 0
 95 549 123 517 163 517 c 0
 204 517 241 549 246 590 c 0
205 247 m 0
 210 288 181 320 140 320 c 0
 100 320 64 288 59 247 c 0
 54 206 82 174 122 174 c 0
 163 174 200 206 205 247 c 0
EndSplineSet
EndChar

StartChar: ordmasculine
Encoding: 235 186 208
Width: 444
Flags: MW
HStem: 3 146<288 310.5> 516 146<357 379.5>
LayerCount: 2
Fore
SplineSet
442 589 m 0
 447 630 418 662 377 662 c 0
 337 662 301 630 296 589 c 0
 291 548 319 516 359 516 c 0
 400 516 437 548 442 589 c 0
373 76 m 0
 378 117 349 149 308 149 c 0
 268 149 232 117 227 76 c 0
 222 35 250 3 290 3 c 0
 331 3 368 35 373 76 c 0
EndSplineSet
EndChar

StartChar: guillemotright
Encoding: 187 187 209
Width: 444
Flags: W
HStem: 3 146<288 310.5> 516 146<357 379.5> 517 146<161 183.5>
LayerCount: 2
Fore
SplineSet
373 76 m 0xc0
 378 117 349 149 308 149 c 0
 268 149 232 117 227 76 c 0
 222 35 250 3 290 3 c 0
 331 3 368 35 373 76 c 0xc0
246 590 m 0
 251 631 222 663 181 663 c 0
 141 663 105 631 100 590 c 0
 95 549 123 517 163 517 c 0xa0
 204 517 241 549 246 590 c 0
442 589 m 0
 447 630 418 662 377 662 c 0
 337 662 301 630 296 589 c 0
 291 548 319 516 359 516 c 0
 400 516 437 548 442 589 c 0
EndSplineSet
EndChar

StartChar: onequarter
Encoding: 324 188 210
Width: 444
Flags: W
HStem: 3 146<288 310.5> 346 146<140 162.5> 516 146<357 379.5> 517 146<161 183.5>
LayerCount: 2
Fore
SplineSet
373 76 m 0xe0
 378 117 349 149 308 149 c 0
 268 149 232 117 227 76 c 0
 222 35 250 3 290 3 c 0
 331 3 368 35 373 76 c 0xe0
225 419 m 0
 230 460 201 492 160 492 c 0
 120 492 84 460 79 419 c 0
 74 378 102 346 142 346 c 0xd0
 183 346 220 378 225 419 c 0
246 590 m 0
 251 631 222 663 181 663 c 0
 141 663 105 631 100 590 c 0
 95 549 123 517 163 517 c 0
 204 517 241 549 246 590 c 0
442 589 m 0
 447 630 418 662 377 662 c 0
 337 662 301 630 296 589 c 0
 291 548 319 516 359 516 c 0
 400 516 437 548 442 589 c 0
EndSplineSet
EndChar

StartChar: onehalf
Encoding: 325 189 211
Width: 444
Flags: MW
HStem: 3 146<288 310.5> 174 146<120 142.5> 516 146<357 379.5>
LayerCount: 2
Fore
SplineSet
373 76 m 0
 378 117 349 149 308 149 c 0
 268 149 232 117 227 76 c 0
 222 35 250 3 290 3 c 0
 331 3 368 35 373 76 c 0
205 247 m 0
 210 288 181 320 140 320 c 0
 100 320 64 288 59 247 c 0
 54 206 82 174 122 174 c 0
 163 174 200 206 205 247 c 0
442 589 m 0
 447 630 418 662 377 662 c 0
 337 662 301 630 296 589 c 0
 291 548 319 516 359 516 c 0
 400 516 437 548 442 589 c 0
EndSplineSet
EndChar

StartChar: threequarters
Encoding: 326 190 212
Width: 444
Flags: W
HStem: 3 146<288 310.5> 174 146<120 142.5> 516 146<357 379.5> 517 146<161 183.5>
LayerCount: 2
Fore
SplineSet
442 589 m 0xd0
 447 630 418 662 377 662 c 0
 337 662 301 630 296 589 c 0
 291 548 319 516 359 516 c 0
 400 516 437 548 442 589 c 0xd0
373 76 m 0
 378 117 349 149 308 149 c 0
 268 149 232 117 227 76 c 0
 222 35 250 3 290 3 c 0
 331 3 368 35 373 76 c 0
246 590 m 0
 251 631 222 663 181 663 c 0
 141 663 105 631 100 590 c 0
 95 549 123 517 163 517 c 0
 204 517 241 549 246 590 c 0
205 247 m 0
 210 288 181 320 140 320 c 0
 100 320 64 288 59 247 c 0
 54 206 82 174 122 174 c 0xe0
 163 174 200 206 205 247 c 0
EndSplineSet
EndChar

StartChar: questiondown
Encoding: 191 191 213
Width: 444
Flags: MW
HStem: 3 146<288 310.5> 174 146<120 142.5> 346 146<140 162.5> 516 146<357 379.5>
LayerCount: 2
Fore
SplineSet
373 76 m 0
 378 117 349 149 308 149 c 0
 268 149 232 117 227 76 c 0
 222 35 250 3 290 3 c 0
 331 3 368 35 373 76 c 0
225 419 m 0
 230 460 201 492 160 492 c 0
 120 492 84 460 79 419 c 0
 74 378 102 346 142 346 c 0
 183 346 220 378 225 419 c 0
205 247 m 0
 210 288 181 320 140 320 c 0
 100 320 64 288 59 247 c 0
 54 206 82 174 122 174 c 0
 163 174 200 206 205 247 c 0
442 589 m 0
 447 630 418 662 377 662 c 0
 337 662 301 630 296 589 c 0
 291 548 319 516 359 516 c 0
 400 516 437 548 442 589 c 0
EndSplineSet
EndChar

StartChar: Agrave
Encoding: 327 192 214
Width: 444
Flags: W
HStem: 3 146<288 310.5> 174 146<120 142.5> 346 146<140 162.5> 516 146<357 379.5> 517 146<161 183.5>
LayerCount: 2
Fore
SplineSet
442 589 m 0xe8
 447 630 418 662 377 662 c 0
 337 662 301 630 296 589 c 0
 291 548 319 516 359 516 c 0
 400 516 437 548 442 589 c 0xe8
225 419 m 0
 230 460 201 492 160 492 c 0
 120 492 84 460 79 419 c 0
 74 378 102 346 142 346 c 0
 183 346 220 378 225 419 c 0
373 76 m 0
 378 117 349 149 308 149 c 0
 268 149 232 117 227 76 c 0
 222 35 250 3 290 3 c 0
 331 3 368 35 373 76 c 0
246 590 m 0
 251 631 222 663 181 663 c 0
 141 663 105 631 100 590 c 0
 95 549 123 517 163 517 c 0
 204 517 241 549 246 590 c 0
205 247 m 0
 210 288 181 320 140 320 c 0
 100 320 64 288 59 247 c 0
 54 206 82 174 122 174 c 0xf0
 163 174 200 206 205 247 c 0
EndSplineSet
EndChar

StartChar: Aacute
Encoding: 328 193 215
Width: 444
Flags: MW
HStem: 3 146<288 310.5> 345 146<336 358.5>
LayerCount: 2
Fore
SplineSet
421 418 m 0
 426 459 397 491 356 491 c 0
 316 491 280 459 275 418 c 0
 270 377 298 345 338 345 c 0
 379 345 416 377 421 418 c 0
373 76 m 0
 378 117 349 149 308 149 c 0
 268 149 232 117 227 76 c 0
 222 35 250 3 290 3 c 0
 331 3 368 35 373 76 c 0
EndSplineSet
EndChar

StartChar: Acircumflex
Encoding: 329 194 216
Width: 444
Flags: MW
HStem: 3 146<288 310.5> 345 146<336 358.5> 517 146<161 183.5>
LayerCount: 2
Fore
SplineSet
373 76 m 0
 378 117 349 149 308 149 c 0
 268 149 232 117 227 76 c 0
 222 35 250 3 290 3 c 0
 331 3 368 35 373 76 c 0
246 590 m 0
 251 631 222 663 181 663 c 0
 141 663 105 631 100 590 c 0
 95 549 123 517 163 517 c 0
 204 517 241 549 246 590 c 0
421 418 m 0
 426 459 397 491 356 491 c 0
 316 491 280 459 275 418 c 0
 270 377 298 345 338 345 c 0
 379 345 416 377 421 418 c 0
EndSplineSet
EndChar

StartChar: Atilde
Encoding: 330 195 217
Width: 444
Flags: W
HStem: 3 146<288 310.5> 345 146<336 358.5> 346 146<140 162.5>
LayerCount: 2
Fore
SplineSet
225 419 m 0xc0
 230 460 201 492 160 492 c 0
 120 492 84 460 79 419 c 0
 74 378 102 346 142 346 c 0
 183 346 220 378 225 419 c 0xc0
421 418 m 0
 426 459 397 491 356 491 c 0
 316 491 280 459 275 418 c 0
 270 377 298 345 338 345 c 0
 379 345 416 377 421 418 c 0
373 76 m 0
 378 117 349 149 308 149 c 0
 268 149 232 117 227 76 c 0
 222 35 250 3 290 3 c 0xa0
 331 3 368 35 373 76 c 0
EndSplineSet
EndChar

StartChar: Adieresis
Encoding: 331 196 218
Width: 444
Flags: W
HStem: 3 146<288 310.5> 345 146<336 358.5> 346 146<140 162.5> 517 146<161 183.5>
LayerCount: 2
Fore
SplineSet
373 76 m 0xd0
 378 117 349 149 308 149 c 0
 268 149 232 117 227 76 c 0
 222 35 250 3 290 3 c 0
 331 3 368 35 373 76 c 0xd0
225 419 m 0
 230 460 201 492 160 492 c 0
 120 492 84 460 79 419 c 0
 74 378 102 346 142 346 c 0
 183 346 220 378 225 419 c 0
246 590 m 0
 251 631 222 663 181 663 c 0
 141 663 105 631 100 590 c 0
 95 549 123 517 163 517 c 0xb0
 204 517 241 549 246 590 c 0
421 418 m 0
 426 459 397 491 356 491 c 0
 316 491 280 459 275 418 c 0
 270 377 298 345 338 345 c 0
 379 345 416 377 421 418 c 0
EndSplineSet
EndChar

StartChar: Aring
Encoding: 332 197 219
Width: 444
Flags: MW
HStem: 3 146<288 310.5> 174 146<120 142.5> 345 146<336 358.5>
LayerCount: 2
Fore
SplineSet
373 76 m 0
 378 117 349 149 308 149 c 0
 268 149 232 117 227 76 c 0
 222 35 250 3 290 3 c 0
 331 3 368 35 373 76 c 0
205 247 m 0
 210 288 181 320 140 320 c 0
 100 320 64 288 59 247 c 0
 54 206 82 174 122 174 c 0
 163 174 200 206 205 247 c 0
421 418 m 0
 426 459 397 491 356 491 c 0
 316 491 280 459 275 418 c 0
 270 377 298 345 338 345 c 0
 379 345 416 377 421 418 c 0
EndSplineSet
EndChar

StartChar: AE
Encoding: 225 198 220
Width: 444
Flags: MW
HStem: 3 146<288 310.5> 174 146<120 142.5> 345 146<336 358.5>
LayerCount: 2
Fore
SplineSet
421 418 m 0
 426 459 397 491 356 491 c 0
 316 491 280 459 275 418 c 0
 270 377 298 345 338 345 c 0
 379 345 416 377 421 418 c 0
373 76 m 0
 378 117 349 149 308 149 c 0
 268 149 232 117 227 76 c 0
 222 35 250 3 290 3 c 0
 331 3 368 35 373 76 c 0
246 590 m 0
 251 631 222 663 181 663 c 0
 141 663 105 631 100 590 c 0
 95 549 123 517 163 517 c 0
 204 517 241 549 246 590 c 0
205 247 m 0
 210 288 181 320 140 320 c 0
 100 320 64 288 59 247 c 0
 54 206 82 174 122 174 c 0
 163 174 200 206 205 247 c 0
EndSplineSet
EndChar

StartChar: Ccedilla
Encoding: 333 199 221
Width: 444
Flags: W
HStem: 3 146<288 310.5> 174 146<120 142.5> 345 146<336 358.5> 346 146<140 162.5>
LayerCount: 2
Fore
SplineSet
373 76 m 0xe0
 378 117 349 149 308 149 c 0
 268 149 232 117 227 76 c 0
 222 35 250 3 290 3 c 0
 331 3 368 35 373 76 c 0xe0
225 419 m 0
 230 460 201 492 160 492 c 0
 120 492 84 460 79 419 c 0
 74 378 102 346 142 346 c 0
 183 346 220 378 225 419 c 0
205 247 m 0
 210 288 181 320 140 320 c 0
 100 320 64 288 59 247 c 0
 54 206 82 174 122 174 c 0xd0
 163 174 200 206 205 247 c 0
421 418 m 0
 426 459 397 491 356 491 c 0
 316 491 280 459 275 418 c 0
 270 377 298 345 338 345 c 0
 379 345 416 377 421 418 c 0
EndSplineSet
EndChar

StartChar: Egrave
Encoding: 334 200 222
Width: 444
Flags: W
HStem: 3 146<288 310.5> 174 146<120 142.5> 345 146<336 358.5> 346 146<140 162.5> 517 146<161 183.5>
LayerCount: 2
Fore
SplineSet
421 418 m 0xd8
 426 459 397 491 356 491 c 0
 316 491 280 459 275 418 c 0
 270 377 298 345 338 345 c 0
 379 345 416 377 421 418 c 0xd8
225 419 m 0
 230 460 201 492 160 492 c 0
 120 492 84 460 79 419 c 0
 74 378 102 346 142 346 c 0
 183 346 220 378 225 419 c 0
373 76 m 0
 378 117 349 149 308 149 c 0
 268 149 232 117 227 76 c 0
 222 35 250 3 290 3 c 0
 331 3 368 35 373 76 c 0
246 590 m 0
 251 631 222 663 181 663 c 0
 141 663 105 631 100 590 c 0
 95 549 123 517 163 517 c 0
 204 517 241 549 246 590 c 0
205 247 m 0
 210 288 181 320 140 320 c 0
 100 320 64 288 59 247 c 0
 54 206 82 174 122 174 c 0xe0
 163 174 200 206 205 247 c 0
EndSplineSet
EndChar

StartChar: Eacute
Encoding: 335 201 223
Width: 444
Flags: MW
HStem: 3 146<288 310.5> 345 146<336 358.5> 516 146<357 379.5>
LayerCount: 2
Fore
SplineSet
373 76 m 0
 378 117 349 149 308 149 c 0
 268 149 232 117 227 76 c 0
 222 35 250 3 290 3 c 0
 331 3 368 35 373 76 c 0
442 589 m 0
 447 630 418 662 377 662 c 0
 337 662 301 630 296 589 c 0
 291 548 319 516 359 516 c 0
 400 516 437 548 442 589 c 0
421 418 m 0
 426 459 397 491 356 491 c 0
 316 491 280 459 275 418 c 0
 270 377 298 345 338 345 c 0
 379 345 416 377 421 418 c 0
EndSplineSet
EndChar

StartChar: Ecircumflex
Encoding: 336 202 224
Width: 444
Flags: W
HStem: 3 146<288 310.5> 345 146<336 358.5> 516 146<357 379.5> 517 146<161 183.5>
LayerCount: 2
Fore
SplineSet
421 418 m 0xe0
 426 459 397 491 356 491 c 0
 316 491 280 459 275 418 c 0
 270 377 298 345 338 345 c 0
 379 345 416 377 421 418 c 0xe0
373 76 m 0
 378 117 349 149 308 149 c 0
 268 149 232 117 227 76 c 0
 222 35 250 3 290 3 c 0xd0
 331 3 368 35 373 76 c 0
246 590 m 0
 251 631 222 663 181 663 c 0
 141 663 105 631 100 590 c 0
 95 549 123 517 163 517 c 0
 204 517 241 549 246 590 c 0
442 589 m 0
 447 630 418 662 377 662 c 0
 337 662 301 630 296 589 c 0
 291 548 319 516 359 516 c 0
 400 516 437 548 442 589 c 0
EndSplineSet
EndChar

StartChar: Edieresis
Encoding: 337 203 225
Width: 444
Flags: W
HStem: 3 146<288 310.5> 345 146<336 358.5> 346 146<140 162.5> 516 146<357 379.5>
LayerCount: 2
Fore
SplineSet
373 76 m 0xd0
 378 117 349 149 308 149 c 0
 268 149 232 117 227 76 c 0
 222 35 250 3 290 3 c 0
 331 3 368 35 373 76 c 0xd0
225 419 m 0
 230 460 201 492 160 492 c 0
 120 492 84 460 79 419 c 0
 74 378 102 346 142 346 c 0
 183 346 220 378 225 419 c 0
442 589 m 0
 447 630 418 662 377 662 c 0
 337 662 301 630 296 589 c 0
 291 548 319 516 359 516 c 0xb0
 400 516 437 548 442 589 c 0
421 418 m 0
 426 459 397 491 356 491 c 0
 316 491 280 459 275 418 c 0
 270 377 298 345 338 345 c 0
 379 345 416 377 421 418 c 0
EndSplineSet
EndChar

StartChar: Igrave
Encoding: 338 204 226
Width: 444
Flags: W
HStem: 3 146<288 310.5> 345 146<336 358.5> 346 146<140 162.5> 516 146<357 379.5> 517 146<161 183.5>
LayerCount: 2
Fore
SplineSet
421 418 m 0xd0
 426 459 397 491 356 491 c 0
 316 491 280 459 275 418 c 0
 270 377 298 345 338 345 c 0
 379 345 416 377 421 418 c 0xd0
225 419 m 0
 230 460 201 492 160 492 c 0
 120 492 84 460 79 419 c 0
 74 378 102 346 142 346 c 0xa8
 183 346 220 378 225 419 c 0
373 76 m 0
 378 117 349 149 308 149 c 0
 268 149 232 117 227 76 c 0
 222 35 250 3 290 3 c 0
 331 3 368 35 373 76 c 0
246 590 m 0
 251 631 222 663 181 663 c 0
 141 663 105 631 100 590 c 0
 95 549 123 517 163 517 c 0
 204 517 241 549 246 590 c 0
442 589 m 0
 447 630 418 662 377 662 c 0
 337 662 301 630 296 589 c 0
 291 548 319 516 359 516 c 0xd0
 400 516 437 548 442 589 c 0
EndSplineSet
EndChar

StartChar: Iacute
Encoding: 339 205 227
Width: 444
Flags: MW
HStem: 3 146<288 310.5> 174 146<120 142.5> 345 146<336 358.5>
LayerCount: 2
Fore
SplineSet
421 418 m 0
 426 459 397 491 356 491 c 0
 316 491 280 459 275 418 c 0
 270 377 298 345 338 345 c 0
 379 345 416 377 421 418 c 0
373 76 m 0
 378 117 349 149 308 149 c 0
 268 149 232 117 227 76 c 0
 222 35 250 3 290 3 c 0
 331 3 368 35 373 76 c 0
205 247 m 0
 210 288 181 320 140 320 c 0
 100 320 64 288 59 247 c 0
 54 206 82 174 122 174 c 0
 163 174 200 206 205 247 c 0
442 589 m 0
 447 630 418 662 377 662 c 0
 337 662 301 630 296 589 c 0
 291 548 319 516 359 516 c 0
 400 516 437 548 442 589 c 0
EndSplineSet
EndChar

StartChar: Icircumflex
Encoding: 340 206 228
Width: 444
Flags: W
HStem: 3 146<288 310.5> 174 146<120 142.5> 345 146<336 358.5> 516 146<357 379.5> 517 146<161 183.5>
LayerCount: 2
Fore
SplineSet
442 589 m 0xe8
 447 630 418 662 377 662 c 0
 337 662 301 630 296 589 c 0
 291 548 319 516 359 516 c 0
 400 516 437 548 442 589 c 0xe8
421 418 m 0
 426 459 397 491 356 491 c 0
 316 491 280 459 275 418 c 0
 270 377 298 345 338 345 c 0
 379 345 416 377 421 418 c 0
373 76 m 0
 378 117 349 149 308 149 c 0
 268 149 232 117 227 76 c 0
 222 35 250 3 290 3 c 0
 331 3 368 35 373 76 c 0
246 590 m 0
 251 631 222 663 181 663 c 0
 141 663 105 631 100 590 c 0
 95 549 123 517 163 517 c 0
 204 517 241 549 246 590 c 0
205 247 m 0
 210 288 181 320 140 320 c 0
 100 320 64 288 59 247 c 0
 54 206 82 174 122 174 c 0xf0
 163 174 200 206 205 247 c 0
EndSplineSet
EndChar

StartChar: Idieresis
Encoding: 341 207 229
Width: 444
Flags: W
HStem: 3 146<288 310.5> 174 146<120 142.5> 345 146<336 358.5> 346 146<140 162.5> 516 146<357 379.5>
LayerCount: 2
Fore
SplineSet
421 418 m 0xd8
 426 459 397 491 356 491 c 0
 316 491 280 459 275 418 c 0
 270 377 298 345 338 345 c 0
 379 345 416 377 421 418 c 0xd8
225 419 m 0
 230 460 201 492 160 492 c 0
 120 492 84 460 79 419 c 0
 74 378 102 346 142 346 c 0
 183 346 220 378 225 419 c 0
373 76 m 0
 378 117 349 149 308 149 c 0
 268 149 232 117 227 76 c 0
 222 35 250 3 290 3 c 0
 331 3 368 35 373 76 c 0
205 247 m 0
 210 288 181 320 140 320 c 0
 100 320 64 288 59 247 c 0
 54 206 82 174 122 174 c 0
 163 174 200 206 205 247 c 0
442 589 m 0
 447 630 418 662 377 662 c 0
 337 662 301 630 296 589 c 0
 291 548 319 516 359 516 c 0xe0
 400 516 437 548 442 589 c 0
EndSplineSet
EndChar

StartChar: Eth
Encoding: 342 208 230
Width: 444
Flags: W
HStem: 3 146<288 310.5> 174 146<120 142.5> 345 146<336 358.5> 346 146<140 162.5> 516 146<357 379.5> 517 146<161 183.5>
LayerCount: 2
Fore
SplineSet
442 589 m 0xe4
 447 630 418 662 377 662 c 0
 337 662 301 630 296 589 c 0
 291 548 319 516 359 516 c 0
 400 516 437 548 442 589 c 0xe4
225 419 m 0
 230 460 201 492 160 492 c 0
 120 492 84 460 79 419 c 0
 74 378 102 346 142 346 c 0
 183 346 220 378 225 419 c 0
421 418 m 0
 426 459 397 491 356 491 c 0
 316 491 280 459 275 418 c 0
 270 377 298 345 338 345 c 0
 379 345 416 377 421 418 c 0
373 76 m 0
 378 117 349 149 308 149 c 0
 268 149 232 117 227 76 c 0
 222 35 250 3 290 3 c 0
 331 3 368 35 373 76 c 0
246 590 m 0
 251 631 222 663 181 663 c 0
 141 663 105 631 100 590 c 0
 95 549 123 517 163 517 c 0xd8
 204 517 241 549 246 590 c 0
205 247 m 0
 210 288 181 320 140 320 c 0
 100 320 64 288 59 247 c 0
 54 206 82 174 122 174 c 0
 163 174 200 206 205 247 c 0
EndSplineSet
EndChar

StartChar: Ntilde
Encoding: 343 209 231
Width: 444
Flags: MW
HStem: 3 146<288 310.5> 173 146<316 338.5>
LayerCount: 2
Fore
SplineSet
373 76 m 0
 378 117 349 149 308 149 c 0
 268 149 232 117 227 76 c 0
 222 35 250 3 290 3 c 0
 331 3 368 35 373 76 c 0
401 246 m 0
 406 287 377 319 336 319 c 0
 296 319 260 287 255 246 c 0
 250 205 278 173 318 173 c 0
 359 173 396 205 401 246 c 0
EndSplineSet
EndChar

StartChar: Ograve
Encoding: 344 210 232
Width: 444
Flags: MW
HStem: 3 146<288 310.5> 173 146<316 338.5> 517 146<161 183.5>
LayerCount: 2
Fore
SplineSet
401 246 m 0
 406 287 377 319 336 319 c 0
 296 319 260 287 255 246 c 0
 250 205 278 173 318 173 c 0
 359 173 396 205 401 246 c 0
246 590 m 0
 251 631 222 663 181 663 c 0
 141 663 105 631 100 590 c 0
 95 549 123 517 163 517 c 0
 204 517 241 549 246 590 c 0
373 76 m 0
 378 117 349 149 308 149 c 0
 268 149 232 117 227 76 c 0
 222 35 250 3 290 3 c 0
 331 3 368 35 373 76 c 0
EndSplineSet
EndChar

StartChar: Oacute
Encoding: 345 211 233
Width: 444
Flags: MW
HStem: 3 146<288 310.5> 173 146<316 338.5> 346 146<140 162.5>
LayerCount: 2
Fore
SplineSet
401 246 m 0
 406 287 377 319 336 319 c 0
 296 319 260 287 255 246 c 0
 250 205 278 173 318 173 c 0
 359 173 396 205 401 246 c 0
373 76 m 0
 378 117 349 149 308 149 c 0
 268 149 232 117 227 76 c 0
 222 35 250 3 290 3 c 0
 331 3 368 35 373 76 c 0
225 419 m 0
 230 460 201 492 160 492 c 0
 120 492 84 460 79 419 c 0
 74 378 102 346 142 346 c 0
 183 346 220 378 225 419 c 0
EndSplineSet
EndChar

StartChar: Ocircumflex
Encoding: 346 212 234
Width: 444
Flags: MW
HStem: 3 146<288 310.5> 173 146<316 338.5> 346 146<140 162.5> 517 146<161 183.5>
LayerCount: 2
Fore
SplineSet
401 246 m 0
 406 287 377 319 336 319 c 0
 296 319 260 287 255 246 c 0
 250 205 278 173 318 173 c 0
 359 173 396 205 401 246 c 0
225 419 m 0
 230 460 201 492 160 492 c 0
 120 492 84 460 79 419 c 0
 74 378 102 346 142 346 c 0
 183 346 220 378 225 419 c 0
246 590 m 0
 251 631 222 663 181 663 c 0
 141 663 105 631 100 590 c 0
 95 549 123 517 163 517 c 0
 204 517 241 549 246 590 c 0
373 76 m 0
 378 117 349 149 308 149 c 0
 268 149 232 117 227 76 c 0
 222 35 250 3 290 3 c 0
 331 3 368 35 373 76 c 0
EndSplineSet
EndChar

StartChar: Otilde
Encoding: 347 213 235
Width: 444
Flags: W
HStem: 3 146<288 310.5> 173 146<316 338.5> 174 146<120 142.5>
LayerCount: 2
Fore
SplineSet
401 246 m 0xa0
 406 287 377 319 336 319 c 0
 296 319 260 287 255 246 c 0
 250 205 278 173 318 173 c 0
 359 173 396 205 401 246 c 0xa0
205 247 m 0
 210 288 181 320 140 320 c 0
 100 320 64 288 59 247 c 0
 54 206 82 174 122 174 c 0
 163 174 200 206 205 247 c 0
373 76 m 0
 378 117 349 149 308 149 c 0
 268 149 232 117 227 76 c 0
 222 35 250 3 290 3 c 0xc0
 331 3 368 35 373 76 c 0
EndSplineSet
EndChar

StartChar: Odieresis
Encoding: 348 214 236
Width: 444
Flags: W
HStem: 3 146<288 310.5> 173 146<316 338.5> 174 146<120 142.5> 517 146<161 183.5>
LayerCount: 2
Fore
SplineSet
373 76 m 0xb0
 378 117 349 149 308 149 c 0
 268 149 232 117 227 76 c 0
 222 35 250 3 290 3 c 0
 331 3 368 35 373 76 c 0xb0
401 246 m 0
 406 287 377 319 336 319 c 0
 296 319 260 287 255 246 c 0
 250 205 278 173 318 173 c 0
 359 173 396 205 401 246 c 0
246 590 m 0
 251 631 222 663 181 663 c 0
 141 663 105 631 100 590 c 0
 95 549 123 517 163 517 c 0xd0
 204 517 241 549 246 590 c 0
205 247 m 0
 210 288 181 320 140 320 c 0
 100 320 64 288 59 247 c 0
 54 206 82 174 122 174 c 0
 163 174 200 206 205 247 c 0
EndSplineSet
EndChar

StartChar: multiply
Encoding: 349 215 237
Width: 444
Flags: W
HStem: 3 146<288 310.5> 173 146<316 338.5> 174 146<120 142.5> 346 146<140 162.5>
LayerCount: 2
Fore
SplineSet
401 246 m 0xb0
 406 287 377 319 336 319 c 0
 296 319 260 287 255 246 c 0
 250 205 278 173 318 173 c 0
 359 173 396 205 401 246 c 0xb0
225 419 m 0
 230 460 201 492 160 492 c 0
 120 492 84 460 79 419 c 0
 74 378 102 346 142 346 c 0
 183 346 220 378 225 419 c 0
205 247 m 0
 210 288 181 320 140 320 c 0
 100 320 64 288 59 247 c 0
 54 206 82 174 122 174 c 0
 163 174 200 206 205 247 c 0
373 76 m 0
 378 117 349 149 308 149 c 0
 268 149 232 117 227 76 c 0
 222 35 250 3 290 3 c 0xd0
 331 3 368 35 373 76 c 0
EndSplineSet
EndChar

StartChar: Oslash
Encoding: 233 216 238
Width: 444
Flags: W
HStem: 3 146<288 310.5> 173 146<316 338.5> 174 146<120 142.5> 346 146<140 162.5> 517 146<161 183.5>
LayerCount: 2
Fore
SplineSet
401 246 m 0xb8
 406 287 377 319 336 319 c 0
 296 319 260 287 255 246 c 0
 250 205 278 173 318 173 c 0
 359 173 396 205 401 246 c 0xb8
225 419 m 0
 230 460 201 492 160 492 c 0
 120 492 84 460 79 419 c 0
 74 378 102 346 142 346 c 0
 183 346 220 378 225 419 c 0
373 76 m 0
 378 117 349 149 308 149 c 0
 268 149 232 117 227 76 c 0
 222 35 250 3 290 3 c 0
 331 3 368 35 373 76 c 0
246 590 m 0
 251 631 222 663 181 663 c 0
 141 663 105 631 100 590 c 0
 95 549 123 517 163 517 c 0
 204 517 241 549 246 590 c 0
205 247 m 0
 210 288 181 320 140 320 c 0
 100 320 64 288 59 247 c 0
 54 206 82 174 122 174 c 0xd8
 163 174 200 206 205 247 c 0
EndSplineSet
EndChar

StartChar: Ugrave
Encoding: 350 217 239
Width: 444
Flags: MW
HStem: 3 146<288 310.5> 173 146<316 338.5> 516 146<357 379.5>
LayerCount: 2
Fore
SplineSet
401 246 m 0
 406 287 377 319 336 319 c 0
 296 319 260 287 255 246 c 0
 250 205 278 173 318 173 c 0
 359 173 396 205 401 246 c 0
442 589 m 0
 447 630 418 662 377 662 c 0
 337 662 301 630 296 589 c 0
 291 548 319 516 359 516 c 0
 400 516 437 548 442 589 c 0
373 76 m 0
 378 117 349 149 308 149 c 0
 268 149 232 117 227 76 c 0
 222 35 250 3 290 3 c 0
 331 3 368 35 373 76 c 0
EndSplineSet
EndChar

StartChar: Uacute
Encoding: 351 218 240
Width: 444
Flags: W
HStem: 3 146<288 310.5> 173 146<316 338.5> 516 146<357 379.5> 517 146<161 183.5>
LayerCount: 2
Fore
SplineSet
373 76 m 0xe0
 378 117 349 149 308 149 c 0
 268 149 232 117 227 76 c 0
 222 35 250 3 290 3 c 0
 331 3 368 35 373 76 c 0xe0
401 246 m 0
 406 287 377 319 336 319 c 0
 296 319 260 287 255 246 c 0
 250 205 278 173 318 173 c 0xd0
 359 173 396 205 401 246 c 0
246 590 m 0
 251 631 222 663 181 663 c 0
 141 663 105 631 100 590 c 0
 95 549 123 517 163 517 c 0
 204 517 241 549 246 590 c 0
442 589 m 0
 447 630 418 662 377 662 c 0
 337 662 301 630 296 589 c 0
 291 548 319 516 359 516 c 0
 400 516 437 548 442 589 c 0
EndSplineSet
EndChar

StartChar: Ucircumflex
Encoding: 352 219 241
Width: 444
Flags: MW
HStem: 3 146<288 310.5> 173 146<316 338.5> 346 146<140 162.5> 516 146<357 379.5>
LayerCount: 2
Fore
SplineSet
401 246 m 0
 406 287 377 319 336 319 c 0
 296 319 260 287 255 246 c 0
 250 205 278 173 318 173 c 0
 359 173 396 205 401 246 c 0
225 419 m 0
 230 460 201 492 160 492 c 0
 120 492 84 460 79 419 c 0
 74 378 102 346 142 346 c 0
 183 346 220 378 225 419 c 0
442 589 m 0
 447 630 418 662 377 662 c 0
 337 662 301 630 296 589 c 0
 291 548 319 516 359 516 c 0
 400 516 437 548 442 589 c 0
373 76 m 0
 378 117 349 149 308 149 c 0
 268 149 232 117 227 76 c 0
 222 35 250 3 290 3 c 0
 331 3 368 35 373 76 c 0
EndSplineSet
EndChar

StartChar: Udieresis
Encoding: 353 220 242
Width: 444
Flags: W
HStem: 3 146<288 310.5> 173 146<316 338.5> 346 146<140 162.5> 516 146<357 379.5> 517 146<161 183.5>
LayerCount: 2
Fore
SplineSet
401 246 m 0xf0
 406 287 377 319 336 319 c 0
 296 319 260 287 255 246 c 0
 250 205 278 173 318 173 c 0
 359 173 396 205 401 246 c 0xf0
225 419 m 0
 230 460 201 492 160 492 c 0
 120 492 84 460 79 419 c 0
 74 378 102 346 142 346 c 0xe8
 183 346 220 378 225 419 c 0
373 76 m 0
 378 117 349 149 308 149 c 0
 268 149 232 117 227 76 c 0
 222 35 250 3 290 3 c 0
 331 3 368 35 373 76 c 0
246 590 m 0
 251 631 222 663 181 663 c 0
 141 663 105 631 100 590 c 0
 95 549 123 517 163 517 c 0
 204 517 241 549 246 590 c 0
442 589 m 0
 447 630 418 662 377 662 c 0
 337 662 301 630 296 589 c 0
 291 548 319 516 359 516 c 0
 400 516 437 548 442 589 c 0
EndSplineSet
EndChar

StartChar: Yacute
Encoding: 354 221 243
Width: 444
Flags: W
HStem: 3 146<288 310.5> 173 146<316 338.5> 174 146<120 142.5> 516 146<357 379.5>
LayerCount: 2
Fore
SplineSet
373 76 m 0xb0
 378 117 349 149 308 149 c 0
 268 149 232 117 227 76 c 0
 222 35 250 3 290 3 c 0
 331 3 368 35 373 76 c 0xb0
401 246 m 0
 406 287 377 319 336 319 c 0
 296 319 260 287 255 246 c 0
 250 205 278 173 318 173 c 0
 359 173 396 205 401 246 c 0
205 247 m 0
 210 288 181 320 140 320 c 0
 100 320 64 288 59 247 c 0
 54 206 82 174 122 174 c 0xd0
 163 174 200 206 205 247 c 0
442 589 m 0
 447 630 418 662 377 662 c 0
 337 662 301 630 296 589 c 0
 291 548 319 516 359 516 c 0
 400 516 437 548 442 589 c 0
EndSplineSet
EndChar

StartChar: Thorn
Encoding: 355 222 244
Width: 444
Flags: W
HStem: 3 146<288 310.5> 173 146<316 338.5> 174 146<120 142.5> 516 146<357 379.5> 517 146<161 183.5>
LayerCount: 2
Fore
SplineSet
442 589 m 0xa8
 447 630 418 662 377 662 c 0
 337 662 301 630 296 589 c 0
 291 548 319 516 359 516 c 0
 400 516 437 548 442 589 c 0xa8
401 246 m 0
 406 287 377 319 336 319 c 0
 296 319 260 287 255 246 c 0
 250 205 278 173 318 173 c 0
 359 173 396 205 401 246 c 0
373 76 m 0
 378 117 349 149 308 149 c 0
 268 149 232 117 227 76 c 0
 222 35 250 3 290 3 c 0
 331 3 368 35 373 76 c 0
246 590 m 0
 251 631 222 663 181 663 c 0
 141 663 105 631 100 590 c 0
 95 549 123 517 163 517 c 0xd0
 204 517 241 549 246 590 c 0
205 247 m 0
 210 288 181 320 140 320 c 0
 100 320 64 288 59 247 c 0
 54 206 82 174 122 174 c 0
 163 174 200 206 205 247 c 0
EndSplineSet
EndChar

StartChar: germandbls
Encoding: 251 223 245
Width: 444
Flags: W
HStem: 3 146<288 310.5> 173 146<316 338.5> 174 146<120 142.5> 346 146<140 162.5> 516 146<357 379.5>
LayerCount: 2
Fore
SplineSet
401 246 m 0xb8
 406 287 377 319 336 319 c 0
 296 319 260 287 255 246 c 0
 250 205 278 173 318 173 c 0
 359 173 396 205 401 246 c 0xb8
225 419 m 0
 230 460 201 492 160 492 c 0
 120 492 84 460 79 419 c 0
 74 378 102 346 142 346 c 0
 183 346 220 378 225 419 c 0
373 76 m 0
 378 117 349 149 308 149 c 0
 268 149 232 117 227 76 c 0
 222 35 250 3 290 3 c 0
 331 3 368 35 373 76 c 0
205 247 m 0
 210 288 181 320 140 320 c 0
 100 320 64 288 59 247 c 0
 54 206 82 174 122 174 c 0
 163 174 200 206 205 247 c 0
442 589 m 0
 447 630 418 662 377 662 c 0
 337 662 301 630 296 589 c 0
 291 548 319 516 359 516 c 0xd8
 400 516 437 548 442 589 c 0
EndSplineSet
EndChar

StartChar: agrave
Encoding: 356 224 246
Width: 444
Flags: W
HStem: 3 146<288 310.5> 173 146<316 338.5> 174 146<120 142.5> 346 146<140 162.5> 516 146<357 379.5> 517 146<161 183.5>
LayerCount: 2
Fore
SplineSet
442 589 m 0xb4
 447 630 418 662 377 662 c 0
 337 662 301 630 296 589 c 0
 291 548 319 516 359 516 c 0
 400 516 437 548 442 589 c 0xb4
401 246 m 0
 406 287 377 319 336 319 c 0
 296 319 260 287 255 246 c 0
 250 205 278 173 318 173 c 0
 359 173 396 205 401 246 c 0
225 419 m 0
 230 460 201 492 160 492 c 0
 120 492 84 460 79 419 c 0
 74 378 102 346 142 346 c 0
 183 346 220 378 225 419 c 0
373 76 m 0
 378 117 349 149 308 149 c 0
 268 149 232 117 227 76 c 0
 222 35 250 3 290 3 c 0
 331 3 368 35 373 76 c 0
246 590 m 0
 251 631 222 663 181 663 c 0
 141 663 105 631 100 590 c 0
 95 549 123 517 163 517 c 0xd8
 204 517 241 549 246 590 c 0
205 247 m 0
 210 288 181 320 140 320 c 0
 100 320 64 288 59 247 c 0
 54 206 82 174 122 174 c 0
 163 174 200 206 205 247 c 0
EndSplineSet
EndChar

StartChar: aacute
Encoding: 357 225 247
Width: 444
Flags: MW
HStem: 3 146<288 310.5> 173 146<316 338.5> 345 146<336 358.5>
LayerCount: 2
Fore
SplineSet
401 246 m 0
 406 287 377 319 336 319 c 0
 296 319 260 287 255 246 c 0
 250 205 278 173 318 173 c 0
 359 173 396 205 401 246 c 0
421 418 m 0
 426 459 397 491 356 491 c 0
 316 491 280 459 275 418 c 0
 270 377 298 345 338 345 c 0
 379 345 416 377 421 418 c 0
373 76 m 0
 378 117 349 149 308 149 c 0
 268 149 232 117 227 76 c 0
 222 35 250 3 290 3 c 0
 331 3 368 35 373 76 c 0
EndSplineSet
EndChar

StartChar: acircumflex
Encoding: 358 226 248
Width: 444
Flags: MW
HStem: 3 146<288 310.5> 173 146<316 338.5> 345 146<336 358.5> 517 146<161 183.5>
LayerCount: 2
Fore
SplineSet
373 76 m 0
 378 117 349 149 308 149 c 0
 268 149 232 117 227 76 c 0
 222 35 250 3 290 3 c 0
 331 3 368 35 373 76 c 0
401 246 m 0
 406 287 377 319 336 319 c 0
 296 319 260 287 255 246 c 0
 250 205 278 173 318 173 c 0
 359 173 396 205 401 246 c 0
246 590 m 0
 251 631 222 663 181 663 c 0
 141 663 105 631 100 590 c 0
 95 549 123 517 163 517 c 0
 204 517 241 549 246 590 c 0
421 418 m 0
 426 459 397 491 356 491 c 0
 316 491 280 459 275 418 c 0
 270 377 298 345 338 345 c 0
 379 345 416 377 421 418 c 0
EndSplineSet
EndChar

StartChar: atilde
Encoding: 359 227 249
Width: 444
Flags: W
HStem: 3 146<288 310.5> 173 146<316 338.5> 345 146<336 358.5> 346 146<140 162.5>
LayerCount: 2
Fore
SplineSet
401 246 m 0xe0
 406 287 377 319 336 319 c 0
 296 319 260 287 255 246 c 0
 250 205 278 173 318 173 c 0
 359 173 396 205 401 246 c 0xe0
225 419 m 0
 230 460 201 492 160 492 c 0
 120 492 84 460 79 419 c 0
 74 378 102 346 142 346 c 0
 183 346 220 378 225 419 c 0
421 418 m 0
 426 459 397 491 356 491 c 0
 316 491 280 459 275 418 c 0
 270 377 298 345 338 345 c 0xd0
 379 345 416 377 421 418 c 0
373 76 m 0
 378 117 349 149 308 149 c 0
 268 149 232 117 227 76 c 0
 222 35 250 3 290 3 c 0
 331 3 368 35 373 76 c 0
EndSplineSet
EndChar

StartChar: adieresis
Encoding: 360 228 250
Width: 444
Flags: W
HStem: 3 146<288 310.5> 173 146<316 338.5> 345 146<336 358.5> 346 146<140 162.5> 517 146<161 183.5>
LayerCount: 2
Fore
SplineSet
401 246 m 0xe8
 406 287 377 319 336 319 c 0
 296 319 260 287 255 246 c 0
 250 205 278 173 318 173 c 0
 359 173 396 205 401 246 c 0xe8
225 419 m 0
 230 460 201 492 160 492 c 0
 120 492 84 460 79 419 c 0
 74 378 102 346 142 346 c 0
 183 346 220 378 225 419 c 0
373 76 m 0
 378 117 349 149 308 149 c 0
 268 149 232 117 227 76 c 0
 222 35 250 3 290 3 c 0
 331 3 368 35 373 76 c 0
246 590 m 0
 251 631 222 663 181 663 c 0
 141 663 105 631 100 590 c 0
 95 549 123 517 163 517 c 0xd8
 204 517 241 549 246 590 c 0
421 418 m 0
 426 459 397 491 356 491 c 0
 316 491 280 459 275 418 c 0
 270 377 298 345 338 345 c 0
 379 345 416 377 421 418 c 0
EndSplineSet
EndChar

StartChar: aring
Encoding: 361 229 251
Width: 444
Flags: W
HStem: 3 146<288 310.5> 173 146<316 338.5> 174 146<120 142.5> 345 146<336 358.5>
LayerCount: 2
Fore
SplineSet
373 76 m 0xb0
 378 117 349 149 308 149 c 0
 268 149 232 117 227 76 c 0
 222 35 250 3 290 3 c 0
 331 3 368 35 373 76 c 0xb0
401 246 m 0
 406 287 377 319 336 319 c 0
 296 319 260 287 255 246 c 0
 250 205 278 173 318 173 c 0
 359 173 396 205 401 246 c 0
205 247 m 0
 210 288 181 320 140 320 c 0
 100 320 64 288 59 247 c 0
 54 206 82 174 122 174 c 0xd0
 163 174 200 206 205 247 c 0
421 418 m 0
 426 459 397 491 356 491 c 0
 316 491 280 459 275 418 c 0
 270 377 298 345 338 345 c 0
 379 345 416 377 421 418 c 0
EndSplineSet
EndChar

StartChar: ae
Encoding: 241 230 252
Width: 444
Flags: W
HStem: 3 146<288 310.5> 173 146<316 338.5> 174 146<120 142.5> 345 146<336 358.5> 517 146<161 183.5>
LayerCount: 2
Fore
SplineSet
421 418 m 0xb8
 426 459 397 491 356 491 c 0
 316 491 280 459 275 418 c 0
 270 377 298 345 338 345 c 0
 379 345 416 377 421 418 c 0xb8
401 246 m 0
 406 287 377 319 336 319 c 0
 296 319 260 287 255 246 c 0
 250 205 278 173 318 173 c 0
 359 173 396 205 401 246 c 0
373 76 m 0
 378 117 349 149 308 149 c 0
 268 149 232 117 227 76 c 0
 222 35 250 3 290 3 c 0
 331 3 368 35 373 76 c 0
246 590 m 0
 251 631 222 663 181 663 c 0
 141 663 105 631 100 590 c 0
 95 549 123 517 163 517 c 0xd8
 204 517 241 549 246 590 c 0
205 247 m 0
 210 288 181 320 140 320 c 0
 100 320 64 288 59 247 c 0
 54 206 82 174 122 174 c 0
 163 174 200 206 205 247 c 0
EndSplineSet
EndChar

StartChar: ccedilla
Encoding: 362 231 253
Width: 444
Flags: W
HStem: 3 146<288 310.5> 173 146<316 338.5> 174 146<120 142.5> 345 146<336 358.5> 346 146<140 162.5>
LayerCount: 2
Fore
SplineSet
401 246 m 0xb0
 406 287 377 319 336 319 c 0
 296 319 260 287 255 246 c 0
 250 205 278 173 318 173 c 0
 359 173 396 205 401 246 c 0xb0
225 419 m 0
 230 460 201 492 160 492 c 0
 120 492 84 460 79 419 c 0
 74 378 102 346 142 346 c 0
 183 346 220 378 225 419 c 0
373 76 m 0
 378 117 349 149 308 149 c 0
 268 149 232 117 227 76 c 0
 222 35 250 3 290 3 c 0
 331 3 368 35 373 76 c 0
205 247 m 0
 210 288 181 320 140 320 c 0
 100 320 64 288 59 247 c 0
 54 206 82 174 122 174 c 0xc8
 163 174 200 206 205 247 c 0
421 418 m 0
 426 459 397 491 356 491 c 0
 316 491 280 459 275 418 c 0
 270 377 298 345 338 345 c 0
 379 345 416 377 421 418 c 0
EndSplineSet
EndChar

StartChar: egrave
Encoding: 363 232 254
Width: 444
Flags: W
HStem: 3 146<288 310.5> 173 146<316 338.5> 174 146<120 142.5> 345 146<336 358.5> 346 146<140 162.5> 517 146<161 183.5>
LayerCount: 2
Fore
SplineSet
401 246 m 0xb4
 406 287 377 319 336 319 c 0
 296 319 260 287 255 246 c 0
 250 205 278 173 318 173 c 0
 359 173 396 205 401 246 c 0xb4
225 419 m 0
 230 460 201 492 160 492 c 0
 120 492 84 460 79 419 c 0
 74 378 102 346 142 346 c 0
 183 346 220 378 225 419 c 0
421 418 m 0
 426 459 397 491 356 491 c 0
 316 491 280 459 275 418 c 0
 270 377 298 345 338 345 c 0
 379 345 416 377 421 418 c 0
373 76 m 0
 378 117 349 149 308 149 c 0
 268 149 232 117 227 76 c 0
 222 35 250 3 290 3 c 0
 331 3 368 35 373 76 c 0
246 590 m 0
 251 631 222 663 181 663 c 0
 141 663 105 631 100 590 c 0
 95 549 123 517 163 517 c 0xcc
 204 517 241 549 246 590 c 0
205 247 m 0
 210 288 181 320 140 320 c 0
 100 320 64 288 59 247 c 0
 54 206 82 174 122 174 c 0
 163 174 200 206 205 247 c 0
EndSplineSet
EndChar

StartChar: eacute
Encoding: 364 233 255
Width: 444
Flags: MW
HStem: 3 146<288 310.5> 173 146<316 338.5> 345 146<336 358.5> 516 146<357 379.5>
LayerCount: 2
Fore
SplineSet
373 76 m 0
 378 117 349 149 308 149 c 0
 268 149 232 117 227 76 c 0
 222 35 250 3 290 3 c 0
 331 3 368 35 373 76 c 0
401 246 m 0
 406 287 377 319 336 319 c 0
 296 319 260 287 255 246 c 0
 250 205 278 173 318 173 c 0
 359 173 396 205 401 246 c 0
442 589 m 0
 447 630 418 662 377 662 c 0
 337 662 301 630 296 589 c 0
 291 548 319 516 359 516 c 0
 400 516 437 548 442 589 c 0
421 418 m 0
 426 459 397 491 356 491 c 0
 316 491 280 459 275 418 c 0
 270 377 298 345 338 345 c 0
 379 345 416 377 421 418 c 0
EndSplineSet
EndChar

StartChar: ecircumflex
Encoding: 365 234 256
Width: 444
Flags: W
HStem: 3 146<288 310.5> 173 146<316 338.5> 345 146<336 358.5> 516 146<357 379.5> 517 146<161 183.5>
LayerCount: 2
Fore
SplineSet
421 418 m 0xf0
 426 459 397 491 356 491 c 0
 316 491 280 459 275 418 c 0
 270 377 298 345 338 345 c 0
 379 345 416 377 421 418 c 0xf0
401 246 m 0
 406 287 377 319 336 319 c 0
 296 319 260 287 255 246 c 0
 250 205 278 173 318 173 c 0xe8
 359 173 396 205 401 246 c 0
373 76 m 0
 378 117 349 149 308 149 c 0
 268 149 232 117 227 76 c 0
 222 35 250 3 290 3 c 0
 331 3 368 35 373 76 c 0
246 590 m 0
 251 631 222 663 181 663 c 0
 141 663 105 631 100 590 c 0
 95 549 123 517 163 517 c 0
 204 517 241 549 246 590 c 0
442 589 m 0
 447 630 418 662 377 662 c 0
 337 662 301 630 296 589 c 0
 291 548 319 516 359 516 c 0
 400 516 437 548 442 589 c 0
EndSplineSet
EndChar

StartChar: edieresis
Encoding: 366 235 257
Width: 444
Flags: W
HStem: 3 146<288 310.5> 173 146<316 338.5> 345 146<336 358.5> 346 146<140 162.5> 516 146<357 379.5>
LayerCount: 2
Fore
SplineSet
401 246 m 0xe8
 406 287 377 319 336 319 c 0
 296 319 260 287 255 246 c 0
 250 205 278 173 318 173 c 0
 359 173 396 205 401 246 c 0xe8
225 419 m 0
 230 460 201 492 160 492 c 0
 120 492 84 460 79 419 c 0
 74 378 102 346 142 346 c 0
 183 346 220 378 225 419 c 0
373 76 m 0
 378 117 349 149 308 149 c 0
 268 149 232 117 227 76 c 0
 222 35 250 3 290 3 c 0
 331 3 368 35 373 76 c 0
442 589 m 0
 447 630 418 662 377 662 c 0
 337 662 301 630 296 589 c 0
 291 548 319 516 359 516 c 0xd8
 400 516 437 548 442 589 c 0
421 418 m 0
 426 459 397 491 356 491 c 0
 316 491 280 459 275 418 c 0
 270 377 298 345 338 345 c 0
 379 345 416 377 421 418 c 0
EndSplineSet
EndChar

StartChar: igrave
Encoding: 367 236 258
Width: 444
Flags: W
HStem: 3 146<288 310.5> 173 146<316 338.5> 345 146<336 358.5> 346 146<140 162.5> 516 146<357 379.5> 517 146<161 183.5>
LayerCount: 2
Fore
SplineSet
401 246 m 0xe8
 406 287 377 319 336 319 c 0
 296 319 260 287 255 246 c 0
 250 205 278 173 318 173 c 0
 359 173 396 205 401 246 c 0xe8
225 419 m 0
 230 460 201 492 160 492 c 0
 120 492 84 460 79 419 c 0
 74 378 102 346 142 346 c 0xe4
 183 346 220 378 225 419 c 0
421 418 m 0
 426 459 397 491 356 491 c 0
 316 491 280 459 275 418 c 0
 270 377 298 345 338 345 c 0
 379 345 416 377 421 418 c 0
373 76 m 0
 378 117 349 149 308 149 c 0
 268 149 232 117 227 76 c 0
 222 35 250 3 290 3 c 0
 331 3 368 35 373 76 c 0
246 590 m 0
 251 631 222 663 181 663 c 0
 141 663 105 631 100 590 c 0
 95 549 123 517 163 517 c 0xd8
 204 517 241 549 246 590 c 0
442 589 m 0
 447 630 418 662 377 662 c 0
 337 662 301 630 296 589 c 0
 291 548 319 516 359 516 c 0
 400 516 437 548 442 589 c 0
EndSplineSet
EndChar

StartChar: iacute
Encoding: 368 237 259
Width: 444
Flags: W
HStem: 3 146<288 310.5> 173 146<316 338.5> 174 146<120 142.5> 345 146<336 358.5> 516 146<357 379.5>
LayerCount: 2
Fore
SplineSet
421 418 m 0xb8
 426 459 397 491 356 491 c 0
 316 491 280 459 275 418 c 0
 270 377 298 345 338 345 c 0
 379 345 416 377 421 418 c 0xb8
401 246 m 0
 406 287 377 319 336 319 c 0
 296 319 260 287 255 246 c 0
 250 205 278 173 318 173 c 0
 359 173 396 205 401 246 c 0
373 76 m 0
 378 117 349 149 308 149 c 0
 268 149 232 117 227 76 c 0
 222 35 250 3 290 3 c 0
 331 3 368 35 373 76 c 0
205 247 m 0
 210 288 181 320 140 320 c 0
 100 320 64 288 59 247 c 0
 54 206 82 174 122 174 c 0xd8
 163 174 200 206 205 247 c 0
442 589 m 0
 447 630 418 662 377 662 c 0
 337 662 301 630 296 589 c 0
 291 548 319 516 359 516 c 0
 400 516 437 548 442 589 c 0
EndSplineSet
EndChar

StartChar: icircumflex
Encoding: 369 238 260
Width: 444
Flags: W
HStem: 3 146<288 310.5> 173 146<316 338.5> 174 146<120 142.5> 345 146<336 358.5> 516 146<357 379.5> 517 146<161 183.5>
LayerCount: 2
Fore
SplineSet
442 589 m 0xb4
 447 630 418 662 377 662 c 0
 337 662 301 630 296 589 c 0
 291 548 319 516 359 516 c 0
 400 516 437 548 442 589 c 0xb4
401 246 m 0
 406 287 377 319 336 319 c 0
 296 319 260 287 255 246 c 0
 250 205 278 173 318 173 c 0
 359 173 396 205 401 246 c 0
421 418 m 0
 426 459 397 491 356 491 c 0
 316 491 280 459 275 418 c 0
 270 377 298 345 338 345 c 0
 379 345 416 377 421 418 c 0
373 76 m 0
 378 117 349 149 308 149 c 0
 268 149 232 117 227 76 c 0
 222 35 250 3 290 3 c 0
 331 3 368 35 373 76 c 0
246 590 m 0
 251 631 222 663 181 663 c 0
 141 663 105 631 100 590 c 0
 95 549 123 517 163 517 c 0xd8
 204 517 241 549 246 590 c 0
205 247 m 0
 210 288 181 320 140 320 c 0
 100 320 64 288 59 247 c 0
 54 206 82 174 122 174 c 0
 163 174 200 206 205 247 c 0
EndSplineSet
EndChar

StartChar: idieresis
Encoding: 370 239 261
Width: 444
Flags: W
HStem: 3 146<288 310.5> 173 146<316 338.5> 174 146<120 142.5> 345 146<336 358.5> 346 146<140 162.5> 516 146<357 379.5>
LayerCount: 2
Fore
SplineSet
401 246 m 0xb4
 406 287 377 319 336 319 c 0
 296 319 260 287 255 246 c 0
 250 205 278 173 318 173 c 0
 359 173 396 205 401 246 c 0xb4
225 419 m 0
 230 460 201 492 160 492 c 0
 120 492 84 460 79 419 c 0
 74 378 102 346 142 346 c 0
 183 346 220 378 225 419 c 0
421 418 m 0
 426 459 397 491 356 491 c 0
 316 491 280 459 275 418 c 0
 270 377 298 345 338 345 c 0
 379 345 416 377 421 418 c 0
373 76 m 0
 378 117 349 149 308 149 c 0
 268 149 232 117 227 76 c 0
 222 35 250 3 290 3 c 0
 331 3 368 35 373 76 c 0
205 247 m 0
 210 288 181 320 140 320 c 0
 100 320 64 288 59 247 c 0
 54 206 82 174 122 174 c 0xcc
 163 174 200 206 205 247 c 0
442 589 m 0
 447 630 418 662 377 662 c 0
 337 662 301 630 296 589 c 0
 291 548 319 516 359 516 c 0
 400 516 437 548 442 589 c 0
EndSplineSet
EndChar

StartChar: eth
Encoding: 371 240 262
Width: 444
Flags: W
HStem: 3 146<288 310.5> 173 146<316 338.5> 174 146<120 142.5> 345 146<336 358.5> 346 146<140 162.5> 516 146<357 379.5> 517 146<161 183.5>
LayerCount: 2
Fore
SplineSet
401 246 m 0xb2
 406 287 377 319 336 319 c 0
 296 319 260 287 255 246 c 0
 250 205 278 173 318 173 c 0
 359 173 396 205 401 246 c 0xb2
225 419 m 0
 230 460 201 492 160 492 c 0
 120 492 84 460 79 419 c 0
 74 378 102 346 142 346 c 0
 183 346 220 378 225 419 c 0
421 418 m 0
 426 459 397 491 356 491 c 0
 316 491 280 459 275 418 c 0
 270 377 298 345 338 345 c 0
 379 345 416 377 421 418 c 0
442 589 m 0
 447 630 418 662 377 662 c 0
 337 662 301 630 296 589 c 0
 291 548 319 516 359 516 c 0xd4
 400 516 437 548 442 589 c 0
373 76 m 0
 378 117 349 149 308 149 c 0
 268 149 232 117 227 76 c 0
 222 35 250 3 290 3 c 0
 331 3 368 35 373 76 c 0
246 590 m 0
 251 631 222 663 181 663 c 0
 141 663 105 631 100 590 c 0
 95 549 123 517 163 517 c 0xcc
 204 517 241 549 246 590 c 0
205 247 m 0
 210 288 181 320 140 320 c 0
 100 320 64 288 59 247 c 0
 54 206 82 174 122 174 c 0
 163 174 200 206 205 247 c 0
EndSplineSet
EndChar

StartChar: ntilde
Encoding: 372 241 263
Width: 444
Flags: W
HStem: 3 146<288 310.5> 4 146<93 115.5>
LayerCount: 2
Fore
SplineSet
373 76 m 0x40
 378 117 349 149 308 149 c 0
 268 149 232 117 227 76 c 0
 222 35 250 3 290 3 c 0
 331 3 368 35 373 76 c 0x40
178 77 m 0
 183 118 154 150 113 150 c 0
 73 150 36 118 31 77 c 0
 26 36 55 4 95 4 c 0x80
 136 4 173 36 178 77 c 0
EndSplineSet
EndChar

StartChar: ograve
Encoding: 373 242 264
Width: 444
Flags: W
HStem: 3 146<288 310.5> 4 146<93 115.5> 517 146<161 183.5>
LayerCount: 2
Fore
SplineSet
373 76 m 0x60
 378 117 349 149 308 149 c 0
 268 149 232 117 227 76 c 0
 222 35 250 3 290 3 c 0
 331 3 368 35 373 76 c 0x60
246 590 m 0
 251 631 222 663 181 663 c 0
 141 663 105 631 100 590 c 0
 95 549 123 517 163 517 c 0
 204 517 241 549 246 590 c 0
178 77 m 0
 183 118 154 150 113 150 c 0
 73 150 36 118 31 77 c 0
 26 36 55 4 95 4 c 0xa0
 136 4 173 36 178 77 c 0
EndSplineSet
EndChar

StartChar: oacute
Encoding: 374 243 265
Width: 444
Flags: W
HStem: 3 146<288 310.5> 4 146<93 115.5> 346 146<140 162.5>
LayerCount: 2
Fore
SplineSet
225 419 m 0x60
 230 460 201 492 160 492 c 0
 120 492 84 460 79 419 c 0
 74 378 102 346 142 346 c 0
 183 346 220 378 225 419 c 0x60
373 76 m 0
 378 117 349 149 308 149 c 0
 268 149 232 117 227 76 c 0
 222 35 250 3 290 3 c 0xa0
 331 3 368 35 373 76 c 0
178 77 m 0
 183 118 154 150 113 150 c 0
 73 150 36 118 31 77 c 0
 26 36 55 4 95 4 c 0
 136 4 173 36 178 77 c 0
EndSplineSet
EndChar

StartChar: ocircumflex
Encoding: 375 244 266
Width: 444
Flags: W
HStem: 3 146<288 310.5> 4 146<93 115.5> 346 146<140 162.5> 517 146<161 183.5>
LayerCount: 2
Fore
SplineSet
246 590 m 0x70
 251 631 222 663 181 663 c 0
 141 663 105 631 100 590 c 0
 95 549 123 517 163 517 c 0
 204 517 241 549 246 590 c 0x70
225 419 m 0
 230 460 201 492 160 492 c 0
 120 492 84 460 79 419 c 0
 74 378 102 346 142 346 c 0xb0
 183 346 220 378 225 419 c 0
373 76 m 0
 378 117 349 149 308 149 c 0
 268 149 232 117 227 76 c 0
 222 35 250 3 290 3 c 0
 331 3 368 35 373 76 c 0
178 77 m 0
 183 118 154 150 113 150 c 0
 73 150 36 118 31 77 c 0
 26 36 55 4 95 4 c 0
 136 4 173 36 178 77 c 0
EndSplineSet
EndChar

StartChar: otilde
Encoding: 376 245 267
Width: 444
Flags: W
HStem: 3 146<288 310.5> 4 146<93 115.5> 174 146<120 142.5>
LayerCount: 2
Fore
SplineSet
373 76 m 0x60
 378 117 349 149 308 149 c 0
 268 149 232 117 227 76 c 0
 222 35 250 3 290 3 c 0
 331 3 368 35 373 76 c 0x60
205 247 m 0
 210 288 181 320 140 320 c 0
 100 320 64 288 59 247 c 0
 54 206 82 174 122 174 c 0
 163 174 200 206 205 247 c 0
178 77 m 0
 183 118 154 150 113 150 c 0
 73 150 36 118 31 77 c 0
 26 36 55 4 95 4 c 0xa0
 136 4 173 36 178 77 c 0
EndSplineSet
EndChar

StartChar: odieresis
Encoding: 377 246 268
Width: 444
Flags: W
HStem: 3 146<288 310.5> 4 146<93 115.5> 174 146<120 142.5> 517 146<161 183.5>
LayerCount: 2
Fore
SplineSet
246 590 m 0x70
 251 631 222 663 181 663 c 0
 141 663 105 631 100 590 c 0
 95 549 123 517 163 517 c 0
 204 517 241 549 246 590 c 0x70
373 76 m 0
 378 117 349 149 308 149 c 0
 268 149 232 117 227 76 c 0
 222 35 250 3 290 3 c 0
 331 3 368 35 373 76 c 0
205 247 m 0
 210 288 181 320 140 320 c 0
 100 320 64 288 59 247 c 0
 54 206 82 174 122 174 c 0xb0
 163 174 200 206 205 247 c 0
178 77 m 0
 183 118 154 150 113 150 c 0
 73 150 36 118 31 77 c 0
 26 36 55 4 95 4 c 0
 136 4 173 36 178 77 c 0
EndSplineSet
EndChar

StartChar: divide
Encoding: 378 247 269
Width: 444
Flags: W
HStem: 3 146<288 310.5> 4 146<93 115.5> 174 146<120 142.5> 346 146<140 162.5>
LayerCount: 2
Fore
SplineSet
205 247 m 0x70
 210 288 181 320 140 320 c 0
 100 320 64 288 59 247 c 0
 54 206 82 174 122 174 c 0
 163 174 200 206 205 247 c 0x70
225 419 m 0
 230 460 201 492 160 492 c 0
 120 492 84 460 79 419 c 0
 74 378 102 346 142 346 c 0xb0
 183 346 220 378 225 419 c 0
373 76 m 0
 378 117 349 149 308 149 c 0
 268 149 232 117 227 76 c 0
 222 35 250 3 290 3 c 0
 331 3 368 35 373 76 c 0
178 77 m 0
 183 118 154 150 113 150 c 0
 73 150 36 118 31 77 c 0
 26 36 55 4 95 4 c 0
 136 4 173 36 178 77 c 0
EndSplineSet
EndChar

StartChar: oslash
Encoding: 249 248 270
Width: 444
Flags: W
HStem: 3 146<288 310.5> 4 146<93 115.5> 174 146<120 142.5> 346 146<140 162.5> 517 146<161 183.5>
LayerCount: 2
Fore
SplineSet
246 590 m 0x78
 251 631 222 663 181 663 c 0
 141 663 105 631 100 590 c 0
 95 549 123 517 163 517 c 0
 204 517 241 549 246 590 c 0x78
225 419 m 0
 230 460 201 492 160 492 c 0
 120 492 84 460 79 419 c 0
 74 378 102 346 142 346 c 0
 183 346 220 378 225 419 c 0
373 76 m 0
 378 117 349 149 308 149 c 0
 268 149 232 117 227 76 c 0
 222 35 250 3 290 3 c 0xb8
 331 3 368 35 373 76 c 0
205 247 m 0
 210 288 181 320 140 320 c 0
 100 320 64 288 59 247 c 0
 54 206 82 174 122 174 c 0
 163 174 200 206 205 247 c 0
178 77 m 0
 183 118 154 150 113 150 c 0
 73 150 36 118 31 77 c 0
 26 36 55 4 95 4 c 0
 136 4 173 36 178 77 c 0
EndSplineSet
EndChar

StartChar: ugrave
Encoding: 379 249 271
Width: 444
Flags: W
HStem: 3 146<288 310.5> 4 146<93 115.5> 346 146<140 162.5> 516 146<357 379.5> 517 146<161 183.5>
LayerCount: 2
Fore
SplineSet
246 590 m 0x70
 251 631 222 663 181 663 c 0
 141 663 105 631 100 590 c 0
 95 549 123 517 163 517 c 0
 204 517 241 549 246 590 c 0x70
225 419 m 0
 230 460 201 492 160 492 c 0
 120 492 84 460 79 419 c 0
 74 378 102 346 142 346 c 0
 183 346 220 378 225 419 c 0
373 76 m 0
 378 117 349 149 308 149 c 0
 268 149 232 117 227 76 c 0
 222 35 250 3 290 3 c 0xa8
 331 3 368 35 373 76 c 0
442 589 m 0
 447 630 418 662 377 662 c 0
 337 662 301 630 296 589 c 0
 291 548 319 516 359 516 c 0
 400 516 437 548 442 589 c 0
178 77 m 0
 183 118 154 150 113 150 c 0
 73 150 36 118 31 77 c 0
 26 36 55 4 95 4 c 0
 136 4 173 36 178 77 c 0
EndSplineSet
EndChar

StartChar: uacute
Encoding: 380 250 272
Width: 444
Flags: W
HStem: 3 146<288 310.5> 4 146<93 115.5> 174 146<120 142.5> 516 146<357 379.5>
LayerCount: 2
Fore
SplineSet
205 247 m 0x70
 210 288 181 320 140 320 c 0
 100 320 64 288 59 247 c 0
 54 206 82 174 122 174 c 0
 163 174 200 206 205 247 c 0x70
373 76 m 0
 378 117 349 149 308 149 c 0
 268 149 232 117 227 76 c 0
 222 35 250 3 290 3 c 0
 331 3 368 35 373 76 c 0
442 589 m 0
 447 630 418 662 377 662 c 0
 337 662 301 630 296 589 c 0
 291 548 319 516 359 516 c 0xb0
 400 516 437 548 442 589 c 0
178 77 m 0
 183 118 154 150 113 150 c 0
 73 150 36 118 31 77 c 0
 26 36 55 4 95 4 c 0
 136 4 173 36 178 77 c 0
EndSplineSet
EndChar

StartChar: ucircumflex
Encoding: 381 251 273
Width: 444
Flags: W
HStem: 3 146<288 310.5> 4 146<93 115.5> 174 146<120 142.5> 516 146<357 379.5> 517 146<161 183.5>
LayerCount: 2
Fore
SplineSet
246 590 m 0x70
 251 631 222 663 181 663 c 0
 141 663 105 631 100 590 c 0
 95 549 123 517 163 517 c 0
 204 517 241 549 246 590 c 0x70
442 589 m 0
 447 630 418 662 377 662 c 0
 337 662 301 630 296 589 c 0
 291 548 319 516 359 516 c 0
 400 516 437 548 442 589 c 0
373 76 m 0
 378 117 349 149 308 149 c 0
 268 149 232 117 227 76 c 0
 222 35 250 3 290 3 c 0xb0
 331 3 368 35 373 76 c 0
205 247 m 0
 210 288 181 320 140 320 c 0
 100 320 64 288 59 247 c 0
 54 206 82 174 122 174 c 0
 163 174 200 206 205 247 c 0
178 77 m 0
 183 118 154 150 113 150 c 0
 73 150 36 118 31 77 c 0
 26 36 55 4 95 4 c 0xa8
 136 4 173 36 178 77 c 0
EndSplineSet
EndChar

StartChar: udieresis
Encoding: 382 252 274
Width: 444
Flags: W
HStem: 3 146<288 310.5> 4 146<93 115.5> 174 146<120 142.5> 346 146<140 162.5> 516 146<357 379.5>
LayerCount: 2
Fore
SplineSet
205 247 m 0x78
 210 288 181 320 140 320 c 0
 100 320 64 288 59 247 c 0
 54 206 82 174 122 174 c 0
 163 174 200 206 205 247 c 0x78
225 419 m 0
 230 460 201 492 160 492 c 0
 120 492 84 460 79 419 c 0
 74 378 102 346 142 346 c 0
 183 346 220 378 225 419 c 0
373 76 m 0
 378 117 349 149 308 149 c 0
 268 149 232 117 227 76 c 0
 222 35 250 3 290 3 c 0xb8
 331 3 368 35 373 76 c 0
442 589 m 0
 447 630 418 662 377 662 c 0
 337 662 301 630 296 589 c 0
 291 548 319 516 359 516 c 0
 400 516 437 548 442 589 c 0
178 77 m 0
 183 118 154 150 113 150 c 0
 73 150 36 118 31 77 c 0
 26 36 55 4 95 4 c 0
 136 4 173 36 178 77 c 0
EndSplineSet
EndChar

StartChar: yacute
Encoding: 383 253 275
Width: 444
Flags: W
HStem: 3 146<288 310.5> 4 146<93 115.5> 174 146<120 142.5> 346 146<140 162.5> 516 146<357 379.5> 517 146<161 183.5>
LayerCount: 2
Fore
SplineSet
205 247 m 0x78
 210 288 181 320 140 320 c 0
 100 320 64 288 59 247 c 0
 54 206 82 174 122 174 c 0
 163 174 200 206 205 247 c 0x78
246 590 m 0
 251 631 222 663 181 663 c 0
 141 663 105 631 100 590 c 0
 95 549 123 517 163 517 c 0
 204 517 241 549 246 590 c 0
225 419 m 0
 230 460 201 492 160 492 c 0
 120 492 84 460 79 419 c 0
 74 378 102 346 142 346 c 0xb4
 183 346 220 378 225 419 c 0
373 76 m 0
 378 117 349 149 308 149 c 0
 268 149 232 117 227 76 c 0
 222 35 250 3 290 3 c 0
 331 3 368 35 373 76 c 0
442 589 m 0
 447 630 418 662 377 662 c 0
 337 662 301 630 296 589 c 0
 291 548 319 516 359 516 c 0
 400 516 437 548 442 589 c 0
178 77 m 0
 183 118 154 150 113 150 c 0
 73 150 36 118 31 77 c 0
 26 36 55 4 95 4 c 0
 136 4 173 36 178 77 c 0
EndSplineSet
EndChar

StartChar: thorn
Encoding: 384 254 276
Width: 444
Flags: W
HStem: 3 146<288 310.5> 4 146<93 115.5> 345 146<336 358.5>
LayerCount: 2
Fore
SplineSet
373 76 m 0x60
 378 117 349 149 308 149 c 0
 268 149 232 117 227 76 c 0
 222 35 250 3 290 3 c 0
 331 3 368 35 373 76 c 0x60
421 418 m 0
 426 459 397 491 356 491 c 0
 316 491 280 459 275 418 c 0
 270 377 298 345 338 345 c 0
 379 345 416 377 421 418 c 0
178 77 m 0
 183 118 154 150 113 150 c 0
 73 150 36 118 31 77 c 0
 26 36 55 4 95 4 c 0xa0
 136 4 173 36 178 77 c 0
EndSplineSet
EndChar

StartChar: ydieresis
Encoding: 385 255 277
Width: 444
Flags: W
HStem: 3 146<288 310.5> 4 146<93 115.5> 345 146<336 358.5> 517 146<161 183.5>
LayerCount: 2
Fore
SplineSet
246 590 m 0x70
 251 631 222 663 181 663 c 0
 141 663 105 631 100 590 c 0
 95 549 123 517 163 517 c 0
 204 517 241 549 246 590 c 0x70
373 76 m 0
 378 117 349 149 308 149 c 0
 268 149 232 117 227 76 c 0
 222 35 250 3 290 3 c 0
 331 3 368 35 373 76 c 0
421 418 m 0
 426 459 397 491 356 491 c 0
 316 491 280 459 275 418 c 0
 270 377 298 345 338 345 c 0xb0
 379 345 416 377 421 418 c 0
178 77 m 0
 183 118 154 150 113 150 c 0
 73 150 36 118 31 77 c 0
 26 36 55 4 95 4 c 0
 136 4 173 36 178 77 c 0
EndSplineSet
EndChar

